<svg width="977" height="414" viewBox="0 0 977 414" fill="none" xmlns="http://www.w3.org/2000/svg">
<path d="M23.6804 97.9408L115.281 32.0748L160.587 64.6651L206.652 32.0748L250.041 64.6651L297.104 32.0748L387.708 97.9408V189.996L355.362 178.705V112.632L297.104 70.1733L277.131 82.7963L297.104 101.401V160.357H266.341V112.632L206.652 70.1733L145.125 112.632V160.357L115.281 166.316V98.1734L134.335 82.7963L115.281 70.1733L56.5096 112.632V182.312L23.6804 195.485V97.9408Z" fill="#E7EE32"/>
<path d="M211.241 165.218C343.45 165.218 398.376 198.035 414.485 203.954C414.485 203.954 341.255 151.261 208.732 151.261C76.2099 151.261 -1.23909e-06 209.599 -1.23909e-06 209.599C-1.23909e-06 209.599 79.0327 165.218 211.241 165.218Z" fill="#E7EE32"/>
<path d="M480.22 109.832C480.22 110.058 480.189 110.293 480.128 110.54C480.087 110.786 479.974 110.991 479.79 111.155C478.867 111.852 477.862 112.498 476.775 113.093C475.708 113.667 474.55 114.169 473.299 114.6C472.048 115.031 470.694 115.359 469.238 115.584C467.803 115.831 466.254 115.954 464.593 115.954C460.861 115.954 457.457 115.41 454.38 114.323C451.304 113.216 448.659 111.657 446.444 109.647C444.25 107.638 442.547 105.228 441.337 102.418C440.127 99.5884 439.522 96.4507 439.522 93.0054C439.522 91.0571 439.769 89.1396 440.261 87.2529C440.773 85.3662 441.512 83.5718 442.476 81.8696C443.439 80.1675 444.629 78.6089 446.044 77.1938C447.459 75.7583 449.069 74.5176 450.874 73.4717C452.699 72.4258 454.698 71.6157 456.872 71.0415C459.066 70.4468 461.435 70.1494 463.978 70.1494C464.962 70.1494 465.967 70.2007 466.993 70.3032C468.018 70.3853 469.033 70.5186 470.038 70.7031C471.043 70.8672 472.007 71.0723 472.93 71.3184C473.873 71.5645 474.765 71.8413 475.606 72.1489L477.698 77.8398L477.452 77.9629C476.652 77.2451 475.729 76.5786 474.683 75.9634C473.637 75.3481 472.52 74.8149 471.33 74.3638C470.141 73.9126 468.89 73.564 467.577 73.3179C466.285 73.0513 464.973 72.918 463.64 72.918C461.056 72.918 458.687 73.3281 456.534 74.1484C454.38 74.9482 452.524 76.1172 450.966 77.6553C449.428 79.1934 448.228 81.0801 447.367 83.3154C446.505 85.5508 446.075 88.0938 446.075 90.9443C446.075 94.082 446.485 96.9941 447.305 99.6807C448.125 102.367 449.346 104.695 450.966 106.664C452.586 108.632 454.606 110.181 457.026 111.309C459.466 112.416 462.307 112.97 465.547 112.97C466.982 112.97 468.264 112.857 469.392 112.631C470.52 112.406 471.474 112.129 472.253 111.801C473.032 111.452 473.617 111.083 474.006 110.693C474.417 110.283 474.622 109.914 474.622 109.586V108.386C474.622 106.951 474.601 105.71 474.56 104.664C474.519 103.618 474.458 102.716 474.375 101.957C474.293 101.178 474.201 100.511 474.099 99.9575C473.996 99.4038 473.873 98.8911 473.729 98.4194V98.2964H481.112V98.4194C480.989 98.8501 480.866 99.3628 480.743 99.9575C480.641 100.532 480.548 101.219 480.466 102.019C480.384 102.818 480.323 103.762 480.282 104.849C480.241 105.915 480.22 107.156 480.22 108.571V109.832ZM487.788 81.9312C489.797 81.9312 491.858 81.9312 493.971 81.9312C496.083 81.9106 498.042 81.8901 499.846 81.8696C501.651 81.8286 503.199 81.7876 504.491 81.7466C505.804 81.7056 506.665 81.644 507.075 81.562L505.875 84.8843C505.322 84.7407 504.696 84.6074 503.999 84.4844C503.384 84.3818 502.635 84.2896 501.753 84.2075C500.892 84.105 499.887 84.0537 498.739 84.0537C498.329 84.0537 497.857 84.0742 497.324 84.1152C496.791 84.1357 496.278 84.1665 495.786 84.2075C495.211 84.2485 494.627 84.2896 494.032 84.3306V96.4814C495.693 96.4609 497.19 96.4199 498.523 96.3584C499.856 96.2969 500.995 96.2148 501.938 96.1123C503.045 96.0303 504.02 95.9175 504.86 95.7739L504.122 99.4346C502.994 99.291 501.856 99.168 500.708 99.0654C499.723 98.9629 498.636 98.8809 497.447 98.8193C496.257 98.7373 495.119 98.6963 494.032 98.6963V112.662C495.939 112.662 497.693 112.59 499.292 112.447C500.892 112.283 502.287 112.108 503.476 111.924C504.871 111.698 506.132 111.442 507.26 111.155L506.552 115.185C506.245 115.164 505.742 115.133 505.045 115.092C504.368 115.072 503.65 115.051 502.892 115.031C502.153 115.031 501.456 115.021 500.8 115C500.144 115 499.692 115 499.446 115H487.788V114.877C487.931 114.446 488.054 113.893 488.157 113.216C488.28 112.539 488.372 111.708 488.434 110.724C488.516 109.719 488.577 108.53 488.618 107.156C488.659 105.782 488.68 104.172 488.68 102.326V94.5742C488.68 92.7285 488.659 91.1289 488.618 89.7754C488.577 88.4014 488.516 87.2222 488.434 86.2378C488.372 85.2329 488.28 84.3921 488.157 83.7153C488.054 83.0386 487.931 82.4849 487.788 82.0542V81.9312ZM520.487 84.1152C520.467 85.7969 520.446 87.4272 520.426 89.0063C520.426 89.6831 520.416 90.3804 520.395 91.0981C520.395 91.7954 520.385 92.4927 520.364 93.1899C520.364 93.8872 520.364 94.5537 520.364 95.1895C520.364 95.8047 520.364 96.3584 520.364 96.8506C520.364 97.876 520.364 99.1167 520.364 100.573C520.385 102.008 520.405 103.485 520.426 105.002C520.446 106.52 520.477 107.986 520.518 109.401C520.559 110.796 520.61 111.965 520.672 112.908C520.877 112.949 521.144 112.99 521.472 113.031C521.8 113.052 522.138 113.083 522.487 113.124C522.856 113.144 523.215 113.165 523.563 113.185C523.912 113.185 524.209 113.185 524.456 113.185C525.583 113.185 526.722 113.113 527.87 112.97C529.039 112.826 530.157 112.56 531.223 112.17C532.31 111.76 533.325 111.206 534.269 110.509C535.212 109.812 536.032 108.919 536.729 107.833C537.447 106.725 538.001 105.402 538.391 103.864C538.801 102.306 539.006 100.47 539.006 98.3579C539.006 93.7026 537.888 90.1138 535.653 87.5913C533.438 85.0688 530.126 83.8076 525.717 83.8076C525.286 83.8076 524.825 83.8179 524.333 83.8384C523.861 83.8589 523.389 83.8896 522.917 83.9307C522.446 83.9512 521.995 83.9819 521.564 84.0229C521.154 84.064 520.795 84.0947 520.487 84.1152ZM514.12 81.8696C514.612 81.8901 515.073 81.9004 515.504 81.9004C515.873 81.9209 516.232 81.9312 516.581 81.9312C516.929 81.9312 517.186 81.9312 517.35 81.9312C517.637 81.9312 518.149 81.9209 518.888 81.9004C519.626 81.8799 520.457 81.8594 521.379 81.8389C522.323 81.7979 523.307 81.7671 524.333 81.7466C525.378 81.7056 526.342 81.6851 527.224 81.6851C529.624 81.6851 531.91 81.9619 534.084 82.5156C536.258 83.0693 538.165 83.9819 539.806 85.2534C541.467 86.5044 542.779 88.1553 543.743 90.2061C544.707 92.2363 545.189 94.7485 545.189 97.7427C545.189 100.962 544.635 103.69 543.528 105.925C542.42 108.161 540.923 109.986 539.037 111.401C537.15 112.795 534.956 113.811 532.454 114.446C529.972 115.062 527.347 115.369 524.579 115.369C523.922 115.369 523.102 115.349 522.118 115.308C521.133 115.267 520.128 115.226 519.103 115.185C518.078 115.144 517.104 115.103 516.181 115.062C515.278 115.021 514.591 115 514.12 115V114.877C514.263 114.446 514.386 113.893 514.489 113.216C514.612 112.539 514.704 111.708 514.766 110.724C514.848 109.719 514.909 108.53 514.95 107.156C514.991 105.782 515.012 104.172 515.012 102.326V94.5742C515.012 92.7285 514.991 91.1187 514.95 89.7446C514.909 88.3706 514.848 87.1812 514.766 86.1763C514.704 85.1714 514.612 84.3306 514.489 83.6538C514.386 82.9771 514.263 82.4233 514.12 81.9927V81.8696ZM577.027 94.4512C577.027 92.626 577.017 91.0366 576.997 89.6831C576.976 88.3296 576.935 87.1606 576.874 86.1763C576.812 85.1919 576.74 84.3716 576.658 83.7153C576.576 83.0386 576.474 82.4849 576.351 82.0542V81.9312H580.873V82.0542C580.75 82.4849 580.647 83.0386 580.565 83.7153C580.483 84.3921 580.411 85.2329 580.35 86.2378C580.288 87.2222 580.247 88.4014 580.227 89.7754C580.206 91.1289 580.196 92.7285 580.196 94.5742V103.403C580.196 105.618 579.847 107.504 579.15 109.063C578.473 110.622 577.53 111.903 576.32 112.908C575.11 113.893 573.664 114.61 571.982 115.062C570.321 115.533 568.496 115.769 566.507 115.769C564.497 115.769 562.631 115.543 560.908 115.092C559.186 114.662 557.688 113.964 556.417 113C555.166 112.037 554.171 110.786 553.433 109.248C552.715 107.709 552.356 105.843 552.356 103.649V94.5742C552.356 92.7285 552.336 91.1289 552.295 89.7754C552.254 88.4014 552.192 87.2222 552.11 86.2378C552.028 85.2329 551.936 84.3921 551.833 83.7153C551.731 83.0386 551.608 82.4849 551.464 82.0542V81.9312H558.57V82.0542C558.427 82.4849 558.304 83.0386 558.201 83.7153C558.099 84.3716 558.006 85.1919 557.924 86.1763C557.863 87.1606 557.812 88.3296 557.771 89.6831C557.729 91.0366 557.709 92.626 557.709 94.4512V103.649C557.709 105.474 557.986 106.981 558.54 108.171C559.093 109.34 559.821 110.273 560.724 110.97C561.626 111.667 562.651 112.16 563.8 112.447C564.948 112.713 566.127 112.847 567.337 112.847C568.568 112.847 569.757 112.713 570.906 112.447C572.075 112.16 573.11 111.667 574.013 110.97C574.936 110.273 575.664 109.34 576.197 108.171C576.75 106.981 577.027 105.474 577.027 103.649V94.4512ZM618.433 115.431H617.233L592.777 91.375V102.326C592.777 104.172 592.788 105.782 592.808 107.156C592.829 108.53 592.859 109.719 592.9 110.724C592.962 111.708 593.034 112.539 593.116 113.216C593.218 113.893 593.341 114.446 593.485 114.877V115H588.871V114.877C589.014 114.446 589.137 113.893 589.24 113.216C589.342 112.539 589.424 111.708 589.486 110.724C589.547 109.719 589.588 108.53 589.609 107.156C589.629 105.782 589.64 104.172 589.64 102.326V94.5742C589.64 92.7285 589.629 91.1289 589.609 89.7754C589.588 88.4014 589.547 87.2222 589.486 86.2378C589.424 85.2329 589.342 84.3921 589.24 83.7153C589.137 83.0386 589.014 82.4849 588.871 82.0542V81.9312H590.778L615.264 106.11V94.5742C615.264 92.7285 615.254 91.1289 615.233 89.7754C615.213 88.4014 615.172 87.2222 615.11 86.2378C615.069 85.2329 615.008 84.3921 614.926 83.7153C614.844 83.0386 614.731 82.4849 614.587 82.0542V81.9312H619.171V82.0542C619.027 82.4849 618.904 83.0386 618.802 83.7153C618.72 84.3921 618.648 85.2329 618.586 86.2378C618.525 87.2222 618.484 88.4014 618.463 89.7754C618.443 91.1289 618.433 92.7285 618.433 94.5742V115.431ZM657.5 111.278C657.5 111.544 657.469 111.77 657.408 111.955C657.367 112.139 657.254 112.293 657.069 112.416C655.613 113.441 653.911 114.262 651.963 114.877C650.035 115.472 647.769 115.769 645.165 115.769C642.232 115.769 639.556 115.349 637.136 114.508C634.736 113.667 632.675 112.498 630.953 111.001C629.23 109.483 627.887 107.668 626.923 105.556C625.979 103.444 625.508 101.106 625.508 98.5425C625.508 96.3481 625.938 94.2153 626.8 92.144C627.682 90.0728 628.943 88.2373 630.583 86.6377C632.224 85.0381 634.213 83.7563 636.551 82.7925C638.91 81.8286 641.565 81.3467 644.519 81.3467C646.057 81.3467 647.513 81.439 648.887 81.6235C650.261 81.7876 651.583 82.0542 652.855 82.4233L655.162 87.9604L654.854 88.1758C653.624 86.7607 652.137 85.6431 650.394 84.8228C648.651 83.9819 646.651 83.5615 644.396 83.5615C642.55 83.5615 640.848 83.8589 639.289 84.4536C637.751 85.0483 636.408 85.9199 635.259 87.0684C634.131 88.1963 633.25 89.5908 632.614 91.252C631.978 92.9131 631.66 94.7998 631.66 96.9121C631.66 99.291 631.958 101.496 632.552 103.526C633.147 105.556 634.039 107.32 635.229 108.817C636.418 110.293 637.884 111.452 639.627 112.293C641.391 113.134 643.442 113.554 645.78 113.554C647.79 113.554 649.348 113.298 650.456 112.785C651.583 112.272 652.147 111.688 652.147 111.032V109.401C652.147 108.335 652.137 107.412 652.117 106.633C652.096 105.854 652.065 105.187 652.024 104.633C651.983 104.059 651.922 103.567 651.84 103.157C651.778 102.747 651.696 102.367 651.594 102.019V101.896H658.146V102.019C658.043 102.326 657.951 102.695 657.869 103.126C657.787 103.557 657.715 104.069 657.654 104.664C657.613 105.259 657.572 105.956 657.531 106.756C657.51 107.556 657.5 108.479 657.5 109.524V111.278ZM690.292 95.4663C692.302 95.8354 694.137 95.8765 695.798 95.5894C697.48 95.2817 698.916 94.646 700.105 93.6821C701.315 92.6978 702.248 91.375 702.904 89.7139C703.581 88.0527 703.919 86.0225 703.919 83.623C703.919 81.9619 703.745 80.4546 703.396 79.1011C703.048 77.7271 702.525 76.5684 701.828 75.625C701.151 74.6611 700.29 73.9229 699.244 73.4102C698.198 72.877 696.978 72.6104 695.583 72.6104C694.701 72.6104 693.932 72.6514 693.276 72.7334C692.62 72.7949 692.066 72.8667 691.615 72.9487C691.082 73.0513 690.641 73.1641 690.292 73.2871V95.4663ZM683.801 70.8877C684.211 70.9287 684.642 70.9697 685.093 71.0107C685.483 71.0518 685.914 71.0825 686.385 71.103C686.877 71.103 687.38 71.103 687.893 71.103C688.692 71.103 689.769 71.0107 691.123 70.8262C692.497 70.6211 694.24 70.5186 696.352 70.5186C698.321 70.5186 700.136 70.8057 701.797 71.3799C703.479 71.9541 704.935 72.7949 706.165 73.9023C707.396 75.0098 708.349 76.3633 709.026 77.9629C709.723 79.542 710.072 81.3467 710.072 83.377C710.072 86.1045 709.528 88.4629 708.441 90.4521C707.354 92.4414 705.898 94.0513 704.073 95.2817C702.248 96.5122 700.146 97.353 697.767 97.8042C695.388 98.2349 692.896 98.2554 690.292 97.8657V102.972C690.292 104.715 690.312 106.243 690.354 107.556C690.415 108.848 690.477 109.965 690.538 110.909C690.62 111.852 690.712 112.642 690.815 113.277C690.938 113.913 691.061 114.446 691.184 114.877V115H683.801V114.877C683.924 114.446 684.037 113.913 684.14 113.277C684.263 112.642 684.365 111.852 684.447 110.909C684.529 109.965 684.591 108.848 684.632 107.556C684.673 106.243 684.693 104.715 684.693 102.972V82.9463C684.693 81.2031 684.673 79.6855 684.632 78.3936C684.591 77.0811 684.529 75.9531 684.447 75.0098C684.365 74.0459 684.263 73.2461 684.14 72.6104C684.037 71.9746 683.924 71.4414 683.801 71.0107V70.8877ZM715.732 81.9312C717.742 81.9312 719.803 81.9312 721.915 81.9312C724.027 81.9106 725.986 81.8901 727.791 81.8696C729.595 81.8286 731.144 81.7876 732.436 81.7466C733.748 81.7056 734.609 81.644 735.02 81.562L733.82 84.8843C733.266 84.7407 732.641 84.6074 731.943 84.4844C731.328 84.3818 730.58 84.2896 729.698 84.2075C728.836 84.105 727.832 84.0537 726.683 84.0537C726.273 84.0537 725.801 84.0742 725.268 84.1152C724.735 84.1357 724.222 84.1665 723.73 84.2075C723.156 84.2485 722.571 84.2896 721.977 84.3306V96.4814C723.638 96.4609 725.135 96.4199 726.468 96.3584C727.801 96.2969 728.939 96.2148 729.882 96.1123C730.99 96.0303 731.964 95.9175 732.805 95.7739L732.066 99.4346C730.938 99.291 729.8 99.168 728.652 99.0654C727.667 98.9629 726.581 98.8809 725.391 98.8193C724.202 98.7373 723.063 98.6963 721.977 98.6963V112.662C723.884 112.662 725.637 112.59 727.237 112.447C728.836 112.283 730.231 112.108 731.42 111.924C732.815 111.698 734.076 111.442 735.204 111.155L734.497 115.185C734.189 115.164 733.687 115.133 732.989 115.092C732.312 115.072 731.595 115.051 730.836 115.031C730.098 115.031 729.4 115.021 728.744 115C728.088 115 727.637 115 727.391 115H715.732V114.877C715.875 114.446 715.999 113.893 716.101 113.216C716.224 112.539 716.316 111.708 716.378 110.724C716.46 109.719 716.521 108.53 716.562 107.156C716.604 105.782 716.624 104.172 716.624 102.326V94.5742C716.624 92.7285 716.604 91.1289 716.562 89.7754C716.521 88.4014 716.46 87.2222 716.378 86.2378C716.316 85.2329 716.224 84.3921 716.101 83.7153C715.999 83.0386 715.875 82.4849 715.732 82.0542V81.9312ZM748.309 98.9424C748.719 99.0039 749.129 99.0552 749.539 99.0962C749.97 99.1167 750.38 99.127 750.77 99.127C753.333 99.127 755.271 98.4399 756.583 97.0659C757.917 95.6919 758.583 93.6309 758.583 90.8828C758.583 88.627 758.05 86.8428 756.983 85.5303C755.938 84.2178 754.389 83.5615 752.338 83.5615C751.682 83.5615 751.098 83.5923 750.585 83.6538C750.093 83.6948 749.672 83.7461 749.324 83.8076C748.934 83.8896 748.596 83.9717 748.309 84.0537V98.9424ZM753.015 100.942C752.605 101.003 752.195 101.044 751.785 101.065C751.395 101.065 750.995 101.065 750.585 101.065C750.257 101.065 749.898 101.055 749.508 101.034C749.119 101.014 748.719 100.983 748.309 100.942V102.449C748.309 104.274 748.329 105.874 748.37 107.248C748.411 108.602 748.462 109.771 748.524 110.755C748.606 111.739 748.698 112.57 748.801 113.247C748.903 113.903 749.026 114.446 749.17 114.877V115H742.064V114.877C742.208 114.446 742.331 113.893 742.433 113.216C742.556 112.539 742.648 111.708 742.71 110.724C742.792 109.719 742.854 108.53 742.895 107.156C742.936 105.782 742.956 104.172 742.956 102.326V94.5742C742.956 92.7285 742.936 91.1289 742.895 89.7754C742.854 88.4014 742.792 87.2222 742.71 86.2378C742.648 85.2329 742.556 84.3921 742.433 83.7153C742.331 83.0386 742.208 82.4849 742.064 82.0542V81.9312C742.392 81.9517 742.741 81.9722 743.11 81.9927C743.417 82.0132 743.756 82.0337 744.125 82.0542C744.515 82.0542 744.904 82.0542 745.294 82.0542C745.95 82.0542 746.924 81.9927 748.216 81.8696C749.508 81.7466 751.026 81.6851 752.769 81.6851C754.533 81.6851 756.132 81.9004 757.568 82.3311C759.024 82.7617 760.265 83.377 761.29 84.1768C762.336 84.9766 763.136 85.9507 763.689 87.0991C764.264 88.2476 764.551 89.5293 764.551 90.9443C764.551 92.0518 764.397 93.0669 764.089 93.9897C763.782 94.8921 763.351 95.7124 762.797 96.4507C762.244 97.1685 761.587 97.8042 760.829 98.3579C760.07 98.9116 759.229 99.3936 758.306 99.8037L764.735 108.878C765.289 109.617 765.843 110.324 766.396 111.001C766.971 111.678 767.514 112.283 768.027 112.816C768.54 113.349 769.021 113.8 769.473 114.169C769.924 114.518 770.303 114.754 770.611 114.877V115H762.551C762.551 114.815 762.418 114.498 762.151 114.046C761.905 113.575 761.608 113.093 761.259 112.601C760.931 112.088 760.593 111.596 760.244 111.124C759.916 110.652 759.67 110.304 759.506 110.078L753.015 100.942ZM781.039 84.2075C779.173 84.2075 777.471 84.2896 775.933 84.4536C774.415 84.6177 773.103 84.792 771.995 84.9766C770.724 85.2021 769.575 85.4482 768.55 85.7148L769.165 81.7466C769.473 81.7876 769.975 81.8184 770.672 81.8389C771.37 81.8594 772.098 81.8799 772.856 81.9004C773.636 81.9004 774.364 81.9106 775.041 81.9312C775.738 81.9312 776.22 81.9312 776.486 81.9312H791.037C791.283 81.9312 791.734 81.9312 792.39 81.9312C793.067 81.9106 793.785 81.9004 794.543 81.9004C795.302 81.8799 796.03 81.8594 796.728 81.8389C797.425 81.8184 797.927 81.7876 798.235 81.7466L798.85 85.7148C797.866 85.4482 796.738 85.2021 795.466 84.9766C794.379 84.792 793.067 84.6177 791.529 84.4536C790.011 84.2896 788.299 84.2075 786.392 84.2075V102.326C786.392 104.172 786.412 105.782 786.453 107.156C786.494 108.53 786.545 109.719 786.607 110.724C786.689 111.708 786.781 112.539 786.884 113.216C786.986 113.893 787.109 114.446 787.253 114.877V115H780.147V114.877C780.291 114.446 780.414 113.893 780.516 113.216C780.619 112.539 780.711 111.708 780.793 110.724C780.875 109.719 780.937 108.53 780.978 107.156C781.019 105.782 781.039 104.172 781.039 102.326V84.2075ZM802.911 81.9312C804.92 81.9312 806.981 81.9312 809.094 81.9312C811.206 81.9106 813.165 81.8901 814.969 81.8696C816.774 81.8286 818.322 81.7876 819.614 81.7466C820.927 81.7056 821.788 81.644 822.198 81.562L820.999 84.8843C820.445 84.7407 819.819 84.6074 819.122 84.4844C818.507 84.3818 817.758 84.2896 816.876 84.2075C816.015 84.105 815.01 84.0537 813.862 84.0537C813.452 84.0537 812.98 84.0742 812.447 84.1152C811.914 84.1357 811.401 84.1665 810.909 84.2075C810.334 84.2485 809.75 84.2896 809.155 84.3306V96.4814C810.816 96.4609 812.313 96.4199 813.646 96.3584C814.979 96.2969 816.118 96.2148 817.061 96.1123C818.168 96.0303 819.143 95.9175 819.983 95.7739L819.245 99.4346C818.117 99.291 816.979 99.168 815.831 99.0654C814.846 98.9629 813.759 98.8809 812.57 98.8193C811.38 98.7373 810.242 98.6963 809.155 98.6963V112.662C811.062 112.662 812.816 112.59 814.416 112.447C816.015 112.283 817.41 112.108 818.599 111.924C819.994 111.698 821.255 111.442 822.383 111.155L821.675 115.185C821.368 115.164 820.865 115.133 820.168 115.092C819.491 115.072 818.773 115.051 818.015 115.031C817.276 115.031 816.579 115.021 815.923 115C815.267 115 814.815 115 814.569 115H802.911V114.877C803.054 114.446 803.177 113.893 803.28 113.216C803.403 112.539 803.495 111.708 803.557 110.724C803.639 109.719 803.7 108.53 803.741 107.156C803.782 105.782 803.803 104.172 803.803 102.326V94.5742C803.803 92.7285 803.782 91.1289 803.741 89.7754C803.7 88.4014 803.639 87.2222 803.557 86.2378C803.495 85.2329 803.403 84.3921 803.28 83.7153C803.177 83.0386 803.054 82.4849 802.911 82.0542V81.9312ZM827.089 114.877C827.356 114.59 827.623 114.067 827.889 113.308C828.176 112.549 828.402 111.729 828.566 110.847C828.812 109.412 829.079 107.781 829.366 105.956C829.673 104.11 829.971 102.213 830.258 100.265C830.565 98.3169 830.863 96.3789 831.15 94.4512C831.437 92.5029 831.704 90.6982 831.95 89.0371C832.196 87.376 832.401 85.9199 832.565 84.6689C832.729 83.418 832.842 82.5054 832.903 81.9312H836.564L851.237 108.202L866.28 81.9312H869.264L872.955 107.617C873.14 108.786 873.314 109.781 873.478 110.601C873.663 111.421 873.837 112.119 874.001 112.693C874.165 113.247 874.329 113.698 874.493 114.046C874.657 114.395 874.801 114.672 874.924 114.877V115H867.356V114.877C867.418 114.713 867.49 114.436 867.572 114.046C867.674 113.657 867.726 113.195 867.726 112.662C867.726 112.313 867.695 111.811 867.633 111.155C867.592 110.499 867.521 109.853 867.418 109.217L864.772 90.3599L850.776 114.938L848.592 114.631L834.841 90.1753C834.329 93.6206 833.877 96.8096 833.488 99.7422C833.324 100.993 833.16 102.244 832.996 103.495C832.832 104.746 832.688 105.925 832.565 107.033C832.442 108.12 832.339 109.083 832.257 109.924C832.175 110.765 832.134 111.391 832.134 111.801C832.134 112.313 832.145 112.765 832.165 113.154C832.186 113.523 832.216 113.852 832.257 114.139C832.298 114.467 832.339 114.754 832.38 115H827.089V114.877ZM906.793 94.4512C906.793 92.626 906.783 91.0366 906.762 89.6831C906.742 88.3296 906.701 87.1606 906.639 86.1763C906.578 85.1919 906.506 84.3716 906.424 83.7153C906.342 83.0386 906.239 82.4849 906.116 82.0542V81.9312H910.638V82.0542C910.515 82.4849 910.413 83.0386 910.331 83.7153C910.249 84.3921 910.177 85.2329 910.115 86.2378C910.054 87.2222 910.013 88.4014 909.992 89.7754C909.972 91.1289 909.961 92.7285 909.961 94.5742V103.403C909.961 105.618 909.613 107.504 908.916 109.063C908.239 110.622 907.295 111.903 906.085 112.908C904.875 113.893 903.43 114.61 901.748 115.062C900.087 115.533 898.262 115.769 896.272 115.769C894.263 115.769 892.396 115.543 890.674 115.092C888.951 114.662 887.454 113.964 886.183 113C884.932 112.037 883.937 110.786 883.199 109.248C882.481 107.709 882.122 105.843 882.122 103.649V94.5742C882.122 92.7285 882.102 91.1289 882.061 89.7754C882.02 88.4014 881.958 87.2222 881.876 86.2378C881.794 85.2329 881.702 84.3921 881.599 83.7153C881.497 83.0386 881.374 82.4849 881.23 82.0542V81.9312H888.336V82.0542C888.192 82.4849 888.069 83.0386 887.967 83.7153C887.864 84.3716 887.772 85.1919 887.69 86.1763C887.628 87.1606 887.577 88.3296 887.536 89.6831C887.495 91.0366 887.475 92.626 887.475 94.4512V103.649C887.475 105.474 887.751 106.981 888.305 108.171C888.859 109.34 889.587 110.273 890.489 110.97C891.392 111.667 892.417 112.16 893.565 112.447C894.714 112.713 895.893 112.847 897.103 112.847C898.333 112.847 899.523 112.713 900.671 112.447C901.84 112.16 902.876 111.667 903.778 110.97C904.701 110.273 905.429 109.34 905.962 108.171C906.516 106.981 906.793 105.474 906.793 103.649V94.4512ZM938.416 104.603C937.862 104.603 937.165 104.603 936.324 104.603C935.504 104.603 934.602 104.603 933.617 104.603C932.633 104.603 931.618 104.603 930.572 104.603C929.526 104.603 928.531 104.613 927.588 104.633C926.645 104.633 925.783 104.644 925.004 104.664C924.225 104.664 923.62 104.664 923.189 104.664L922.051 107.063C921.559 108.048 921.138 108.909 920.79 109.647C920.441 110.365 920.154 111.001 919.928 111.555C919.703 112.108 919.539 112.59 919.436 113C919.333 113.39 919.282 113.759 919.282 114.108C919.282 114.333 919.292 114.508 919.313 114.631C919.333 114.733 919.364 114.815 919.405 114.877V115H913.991V114.877C914.135 114.733 914.36 114.426 914.668 113.954C914.976 113.462 915.324 112.867 915.714 112.17C916.124 111.473 916.555 110.683 917.006 109.801C917.478 108.919 917.939 108.007 918.39 107.063L930.941 81.1621H933.248L945.553 107.063C946.024 108.048 946.496 108.991 946.968 109.894C947.46 110.796 947.911 111.606 948.321 112.324C948.731 113.021 949.09 113.605 949.398 114.077C949.706 114.528 949.911 114.795 950.013 114.877V115H942.138C942.179 114.836 942.2 114.692 942.2 114.569C942.2 114.426 942.2 114.272 942.2 114.108C942.2 113.657 942.097 113.113 941.892 112.478C941.708 111.842 941.472 111.196 941.185 110.54C940.918 109.863 940.631 109.217 940.323 108.602C940.036 107.986 939.8 107.474 939.616 107.063L938.416 104.603ZM924.389 102.203H926.265C927.126 102.203 928.039 102.203 929.003 102.203C929.987 102.183 930.972 102.172 931.956 102.172C932.94 102.172 933.894 102.172 934.817 102.172C935.74 102.152 936.57 102.142 937.309 102.142L930.941 88.5449L924.389 102.203ZM983.328 115.431H982.128L957.673 91.375V102.326C957.673 104.172 957.683 105.782 957.704 107.156C957.724 108.53 957.755 109.719 957.796 110.724C957.857 111.708 957.929 112.539 958.011 113.216C958.114 113.893 958.237 114.446 958.38 114.877V115H953.766V114.877C953.91 114.446 954.033 113.893 954.135 113.216C954.238 112.539 954.32 111.708 954.381 110.724C954.443 109.719 954.484 108.53 954.504 107.156C954.525 105.782 954.535 104.172 954.535 102.326V94.5742C954.535 92.7285 954.525 91.1289 954.504 89.7754C954.484 88.4014 954.443 87.2222 954.381 86.2378C954.32 85.2329 954.238 84.3921 954.135 83.7153C954.033 83.0386 953.91 82.4849 953.766 82.0542V81.9312H955.673L980.16 106.11V94.5742C980.16 92.7285 980.149 91.1289 980.129 89.7754C980.108 88.4014 980.067 87.2222 980.006 86.2378C979.965 85.2329 979.903 84.3921 979.821 83.7153C979.739 83.0386 979.626 82.4849 979.483 82.0542V81.9312H984.066V82.0542C983.923 82.4849 983.8 83.0386 983.697 83.7153C983.615 84.3921 983.543 85.2329 983.482 86.2378C983.42 87.2222 983.379 88.4014 983.359 89.7754C983.338 91.1289 983.328 92.7285 983.328 94.5742V115.431ZM448.136 131.533C448.095 133.83 448.054 136.055 448.013 138.208C447.992 139.131 447.972 140.075 447.951 141.039C447.951 142.002 447.941 142.956 447.92 143.899C447.92 144.822 447.91 145.714 447.89 146.576C447.89 147.417 447.89 148.165 447.89 148.821C447.89 150.195 447.9 151.856 447.92 153.805C447.941 155.753 447.961 157.752 447.982 159.803C448.023 161.854 448.074 163.823 448.136 165.709C448.197 167.596 448.269 169.165 448.351 170.416C448.638 170.457 449.018 170.508 449.489 170.57C449.981 170.611 450.494 170.652 451.027 170.693C451.561 170.713 452.083 170.734 452.596 170.754C453.109 170.775 453.54 170.785 453.888 170.785C455.324 170.785 456.79 170.693 458.287 170.508C459.805 170.303 461.261 169.934 462.655 169.401C464.07 168.868 465.393 168.14 466.624 167.217C467.875 166.273 468.961 165.063 469.884 163.587C470.828 162.11 471.566 160.336 472.099 158.265C472.632 156.173 472.899 153.712 472.899 150.882C472.899 147.745 472.52 144.956 471.761 142.515C471.002 140.054 469.884 137.983 468.408 136.301C466.952 134.62 465.137 133.348 462.963 132.487C460.81 131.605 458.328 131.164 455.519 131.164C454.965 131.164 454.339 131.185 453.642 131.226C452.945 131.246 452.248 131.277 451.55 131.318C450.874 131.338 450.228 131.379 449.612 131.441C449.018 131.482 448.525 131.513 448.136 131.533ZM441.399 128.765C441.871 128.785 442.312 128.806 442.722 128.826C443.07 128.847 443.429 128.867 443.798 128.888C444.167 128.888 444.465 128.888 444.69 128.888C445.08 128.888 445.726 128.867 446.628 128.826C447.551 128.785 448.597 128.744 449.766 128.703C450.935 128.662 452.145 128.621 453.396 128.58C454.667 128.539 455.857 128.519 456.964 128.519C459.938 128.519 462.768 128.888 465.455 129.626C468.141 130.364 470.5 131.574 472.53 133.256C474.56 134.938 476.17 137.142 477.359 139.87C478.549 142.597 479.144 145.95 479.144 149.929C479.144 152.779 478.826 155.343 478.19 157.619C477.575 159.896 476.703 161.905 475.575 163.648C474.447 165.392 473.094 166.889 471.515 168.14C469.956 169.37 468.223 170.385 466.316 171.185C464.429 171.985 462.409 172.569 460.256 172.938C458.103 173.308 455.877 173.492 453.581 173.492C452.76 173.492 451.766 173.461 450.597 173.4C449.448 173.359 448.29 173.308 447.121 173.246C445.952 173.185 444.844 173.123 443.798 173.062C442.773 173.021 441.973 173 441.399 173V172.877C441.522 172.446 441.635 171.913 441.737 171.277C441.86 170.642 441.963 169.852 442.045 168.909C442.127 167.965 442.188 166.848 442.229 165.556C442.271 164.243 442.291 162.715 442.291 160.972V140.946C442.291 139.203 442.271 137.675 442.229 136.363C442.188 135.03 442.127 133.892 442.045 132.948C441.963 131.984 441.86 131.174 441.737 130.518C441.635 129.862 441.522 129.318 441.399 128.888V128.765ZM486.003 139.931C488.013 139.931 490.074 139.931 492.187 139.931C494.299 139.911 496.257 139.89 498.062 139.87C499.867 139.829 501.415 139.788 502.707 139.747C504.02 139.706 504.881 139.644 505.291 139.562L504.091 142.884C503.538 142.741 502.912 142.607 502.215 142.484C501.6 142.382 500.851 142.29 499.969 142.208C499.108 142.105 498.103 142.054 496.955 142.054C496.544 142.054 496.073 142.074 495.54 142.115C495.006 142.136 494.494 142.167 494.001 142.208C493.427 142.249 492.843 142.29 492.248 142.331V154.481C493.909 154.461 495.406 154.42 496.739 154.358C498.072 154.297 499.21 154.215 500.154 154.112C501.261 154.03 502.235 153.917 503.076 153.774L502.338 157.435C501.21 157.291 500.072 157.168 498.923 157.065C497.939 156.963 496.852 156.881 495.663 156.819C494.473 156.737 493.335 156.696 492.248 156.696V170.662C494.155 170.662 495.909 170.59 497.508 170.447C499.108 170.283 500.502 170.108 501.692 169.924C503.086 169.698 504.348 169.442 505.476 169.155L504.768 173.185C504.46 173.164 503.958 173.133 503.261 173.092C502.584 173.072 501.866 173.051 501.107 173.031C500.369 173.031 499.672 173.021 499.016 173C498.359 173 497.908 173 497.662 173H486.003V172.877C486.147 172.446 486.27 171.893 486.373 171.216C486.496 170.539 486.588 169.708 486.649 168.724C486.731 167.719 486.793 166.53 486.834 165.156C486.875 163.782 486.896 162.172 486.896 160.326V152.574C486.896 150.729 486.875 149.129 486.834 147.775C486.793 146.401 486.731 145.222 486.649 144.238C486.588 143.233 486.496 142.392 486.373 141.715C486.27 141.039 486.147 140.485 486.003 140.054V139.931ZM527.316 146.36H526.701C526.578 146.012 526.373 145.571 526.086 145.038C525.819 144.504 525.45 143.981 524.979 143.469C524.527 142.956 523.963 142.525 523.287 142.177C522.61 141.808 521.8 141.623 520.856 141.623C520.139 141.623 519.493 141.746 518.918 141.992C518.365 142.218 517.893 142.536 517.503 142.946C517.114 143.356 516.816 143.848 516.611 144.422C516.406 144.976 516.304 145.581 516.304 146.237C516.304 147.304 516.622 148.319 517.257 149.283C517.914 150.247 518.724 151.21 519.688 152.174C520.651 153.118 521.697 154.071 522.825 155.035C523.953 155.999 524.999 157.004 525.963 158.05C526.927 159.096 527.727 160.203 528.362 161.372C529.019 162.541 529.347 163.792 529.347 165.125C529.347 166.109 529.162 167.125 528.793 168.17C528.444 169.216 527.87 170.16 527.07 171C526.271 171.841 525.245 172.528 523.994 173.062C522.743 173.615 521.226 173.892 519.441 173.892C518.457 173.892 517.514 173.81 516.611 173.646C515.729 173.482 514.909 173.277 514.15 173.031C513.412 172.805 512.746 172.559 512.151 172.292C511.577 172.005 511.095 171.739 510.705 171.493L511.259 165.679H511.905C512.11 166.396 512.407 167.114 512.797 167.832C513.207 168.55 513.699 169.206 514.273 169.801C514.868 170.375 515.555 170.847 516.334 171.216C517.134 171.564 518.047 171.739 519.072 171.739C519.79 171.739 520.467 171.626 521.103 171.4C521.738 171.154 522.282 170.816 522.733 170.385C523.205 169.955 523.574 169.432 523.84 168.816C524.107 168.181 524.24 167.473 524.24 166.694C524.24 165.771 524.056 164.92 523.687 164.141C523.317 163.341 522.825 162.582 522.21 161.864C521.595 161.126 520.897 160.418 520.118 159.742C519.359 159.065 518.57 158.378 517.75 157.681C516.929 156.983 516.129 156.276 515.35 155.558C514.591 154.82 513.904 154.03 513.289 153.189C512.674 152.349 512.182 151.457 511.812 150.513C511.443 149.549 511.259 148.493 511.259 147.345C511.259 146.135 511.515 145.048 512.028 144.084C512.541 143.12 513.217 142.31 514.058 141.654C514.899 140.977 515.863 140.464 516.95 140.116C518.037 139.747 519.165 139.562 520.333 139.562C521.195 139.562 521.995 139.624 522.733 139.747C523.492 139.87 524.168 140.023 524.763 140.208C525.378 140.372 525.912 140.546 526.363 140.731C526.814 140.895 527.183 141.028 527.47 141.131L527.316 146.36ZM555.863 162.603C555.31 162.603 554.612 162.603 553.771 162.603C552.951 162.603 552.049 162.603 551.064 162.603C550.08 162.603 549.065 162.603 548.019 162.603C546.973 162.603 545.979 162.613 545.035 162.633C544.092 162.633 543.23 162.644 542.451 162.664C541.672 162.664 541.067 162.664 540.636 162.664L539.498 165.063C539.006 166.048 538.585 166.909 538.237 167.647C537.888 168.365 537.601 169.001 537.375 169.555C537.15 170.108 536.986 170.59 536.883 171C536.781 171.39 536.729 171.759 536.729 172.108C536.729 172.333 536.74 172.508 536.76 172.631C536.781 172.733 536.812 172.815 536.853 172.877V173H531.438V172.877C531.582 172.733 531.808 172.426 532.115 171.954C532.423 171.462 532.771 170.867 533.161 170.17C533.571 169.473 534.002 168.683 534.453 167.801C534.925 166.919 535.386 166.007 535.837 165.063L548.388 139.162H550.695L563 165.063C563.472 166.048 563.943 166.991 564.415 167.894C564.907 168.796 565.358 169.606 565.769 170.324C566.179 171.021 566.538 171.605 566.845 172.077C567.153 172.528 567.358 172.795 567.46 172.877V173H559.585C559.626 172.836 559.647 172.692 559.647 172.569C559.647 172.426 559.647 172.272 559.647 172.108C559.647 171.657 559.544 171.113 559.339 170.478C559.155 169.842 558.919 169.196 558.632 168.54C558.365 167.863 558.078 167.217 557.771 166.602C557.483 165.986 557.248 165.474 557.063 165.063L555.863 162.603ZM541.836 160.203H543.712C544.574 160.203 545.486 160.203 546.45 160.203C547.435 160.183 548.419 160.172 549.403 160.172C550.388 160.172 551.341 160.172 552.264 160.172C553.187 160.152 554.018 160.142 554.756 160.142L548.388 146.545L541.836 160.203ZM626.154 135.655L625.877 135.778C624.277 134.302 622.35 133.123 620.094 132.241C617.858 131.359 615.397 130.918 612.711 130.918C610.127 130.918 607.758 131.328 605.605 132.148C603.452 132.948 601.596 134.117 600.037 135.655C598.499 137.193 597.299 139.08 596.438 141.315C595.577 143.551 595.146 146.094 595.146 148.944C595.146 152.082 595.556 155.015 596.376 157.742C597.197 160.449 598.417 162.797 600.037 164.787C601.657 166.776 603.677 168.345 606.097 169.493C608.538 170.621 611.378 171.185 614.618 171.185C615.787 171.185 616.956 171.062 618.125 170.816C619.294 170.57 620.412 170.211 621.478 169.739C622.565 169.247 623.58 168.663 624.523 167.986C625.487 167.289 626.359 166.499 627.138 165.617L627.477 165.833L625.016 172.108C623.478 172.703 621.775 173.154 619.909 173.461C618.063 173.79 616.197 173.954 614.311 173.954C610.517 173.954 607.041 173.41 603.882 172.323C600.745 171.216 598.038 169.657 595.761 167.647C593.505 165.638 591.742 163.228 590.47 160.418C589.219 157.588 588.594 154.451 588.594 151.005C588.594 149.057 588.84 147.14 589.332 145.253C589.845 143.366 590.583 141.572 591.547 139.87C592.511 138.167 593.7 136.609 595.115 135.194C596.53 133.758 598.14 132.518 599.945 131.472C601.77 130.426 603.77 129.616 605.943 129.042C608.138 128.447 610.506 128.149 613.049 128.149C617.007 128.149 620.678 128.754 624.062 129.964L626.154 135.655ZM652.824 162.603C652.271 162.603 651.573 162.603 650.732 162.603C649.912 162.603 649.01 162.603 648.025 162.603C647.041 162.603 646.026 162.603 644.98 162.603C643.934 162.603 642.939 162.613 641.996 162.633C641.053 162.633 640.191 162.644 639.412 162.664C638.633 162.664 638.028 162.664 637.597 162.664L636.459 165.063C635.967 166.048 635.546 166.909 635.198 167.647C634.849 168.365 634.562 169.001 634.336 169.555C634.111 170.108 633.947 170.59 633.844 171C633.742 171.39 633.69 171.759 633.69 172.108C633.69 172.333 633.701 172.508 633.721 172.631C633.742 172.733 633.772 172.815 633.813 172.877V173H628.399V172.877C628.543 172.733 628.769 172.426 629.076 171.954C629.384 171.462 629.732 170.867 630.122 170.17C630.532 169.473 630.963 168.683 631.414 167.801C631.886 166.919 632.347 166.007 632.798 165.063L645.349 139.162H647.656L659.961 165.063C660.433 166.048 660.904 166.991 661.376 167.894C661.868 168.796 662.319 169.606 662.729 170.324C663.14 171.021 663.499 171.605 663.806 172.077C664.114 172.528 664.319 172.795 664.421 172.877V173H656.546C656.587 172.836 656.608 172.692 656.608 172.569C656.608 172.426 656.608 172.272 656.608 172.108C656.608 171.657 656.505 171.113 656.3 170.478C656.116 169.842 655.88 169.196 655.593 168.54C655.326 167.863 655.039 167.217 654.731 166.602C654.444 165.986 654.208 165.474 654.024 165.063L652.824 162.603ZM638.797 160.203H640.673C641.535 160.203 642.447 160.203 643.411 160.203C644.396 160.183 645.38 160.172 646.364 160.172C647.349 160.172 648.302 160.172 649.225 160.172C650.148 160.152 650.979 160.142 651.717 160.142L645.349 146.545L638.797 160.203ZM697.736 173.431H696.537L672.081 149.375V160.326C672.081 162.172 672.091 163.782 672.112 165.156C672.132 166.53 672.163 167.719 672.204 168.724C672.266 169.708 672.337 170.539 672.419 171.216C672.522 171.893 672.645 172.446 672.789 172.877V173H668.174V172.877C668.318 172.446 668.441 171.893 668.543 171.216C668.646 170.539 668.728 169.708 668.79 168.724C668.851 167.719 668.892 166.53 668.913 165.156C668.933 163.782 668.943 162.172 668.943 160.326V152.574C668.943 150.729 668.933 149.129 668.913 147.775C668.892 146.401 668.851 145.222 668.79 144.238C668.728 143.233 668.646 142.392 668.543 141.715C668.441 141.039 668.318 140.485 668.174 140.054V139.931H670.082L694.568 164.11V152.574C694.568 150.729 694.558 149.129 694.537 147.775C694.517 146.401 694.476 145.222 694.414 144.238C694.373 143.233 694.312 142.392 694.229 141.715C694.147 141.039 694.035 140.485 693.891 140.054V139.931H698.475V140.054C698.331 140.485 698.208 141.039 698.105 141.715C698.023 142.392 697.952 143.233 697.89 144.238C697.829 145.222 697.788 146.401 697.767 147.775C697.747 149.129 697.736 150.729 697.736 152.574V173.431ZM736.804 169.278C736.804 169.544 736.773 169.77 736.711 169.955C736.67 170.139 736.558 170.293 736.373 170.416C734.917 171.441 733.215 172.262 731.267 172.877C729.339 173.472 727.073 173.769 724.468 173.769C721.536 173.769 718.859 173.349 716.439 172.508C714.04 171.667 711.979 170.498 710.256 169.001C708.534 167.483 707.19 165.668 706.227 163.556C705.283 161.444 704.812 159.106 704.812 156.542C704.812 154.348 705.242 152.215 706.104 150.144C706.985 148.073 708.247 146.237 709.887 144.638C711.528 143.038 713.517 141.756 715.855 140.792C718.213 139.829 720.869 139.347 723.822 139.347C725.36 139.347 726.816 139.439 728.19 139.624C729.564 139.788 730.887 140.054 732.159 140.423L734.466 145.96L734.158 146.176C732.928 144.761 731.441 143.643 729.698 142.823C727.955 141.982 725.955 141.562 723.699 141.562C721.854 141.562 720.151 141.859 718.593 142.454C717.055 143.048 715.711 143.92 714.563 145.068C713.435 146.196 712.553 147.591 711.917 149.252C711.282 150.913 710.964 152.8 710.964 154.912C710.964 157.291 711.261 159.496 711.856 161.526C712.451 163.556 713.343 165.32 714.532 166.817C715.722 168.293 717.188 169.452 718.931 170.293C720.695 171.134 722.746 171.554 725.083 171.554C727.093 171.554 728.652 171.298 729.759 170.785C730.887 170.272 731.451 169.688 731.451 169.032V167.401C731.451 166.335 731.441 165.412 731.42 164.633C731.4 163.854 731.369 163.187 731.328 162.633C731.287 162.059 731.226 161.567 731.144 161.157C731.082 160.747 731 160.367 730.897 160.019V159.896H737.45V160.019C737.347 160.326 737.255 160.695 737.173 161.126C737.091 161.557 737.019 162.069 736.958 162.664C736.917 163.259 736.875 163.956 736.834 164.756C736.814 165.556 736.804 166.479 736.804 167.524V169.278ZM744.74 152.574C744.74 150.729 744.72 149.129 744.679 147.775C744.638 146.401 744.576 145.222 744.494 144.238C744.433 143.233 744.34 142.392 744.217 141.715C744.115 141.039 743.992 140.485 743.848 140.054V139.931H750.954V140.054C750.811 140.485 750.688 141.039 750.585 141.715C750.482 142.392 750.39 143.233 750.308 144.238C750.247 145.222 750.195 146.401 750.154 147.775C750.113 149.129 750.093 150.729 750.093 152.574V154.604L764.151 143.069C764.93 142.433 765.515 141.869 765.904 141.377C766.314 140.885 766.52 140.403 766.52 139.931H773.841V140.054C772.918 140.28 771.964 140.69 770.98 141.285C770.016 141.879 768.991 142.628 767.904 143.53L755.63 153.589L768.427 166.878C770.129 168.663 771.564 170.026 772.733 170.97C773.923 171.893 774.835 172.528 775.471 172.877V173H767.104C766.878 172.59 766.396 171.985 765.658 171.185C764.92 170.385 763.946 169.35 762.736 168.078L750.093 154.912V160.326C750.093 162.172 750.113 163.782 750.154 165.156C750.195 166.53 750.247 167.719 750.308 168.724C750.39 169.708 750.482 170.539 750.585 171.216C750.688 171.893 750.811 172.446 750.954 172.877V173H743.848V172.877C743.992 172.446 744.115 171.893 744.217 171.216C744.34 170.539 744.433 169.708 744.494 168.724C744.576 167.719 744.638 166.53 744.679 165.156C744.72 163.782 744.74 162.172 744.74 160.326V152.574ZM775.871 156.358C775.871 153.938 776.322 151.692 777.225 149.621C778.147 147.55 779.398 145.755 780.978 144.238C782.557 142.7 784.423 141.5 786.576 140.639C788.729 139.777 791.037 139.347 793.498 139.347C795.917 139.347 798.194 139.757 800.327 140.577C802.48 141.377 804.346 142.525 805.925 144.022C807.525 145.52 808.786 147.334 809.709 149.467C810.632 151.6 811.093 153.989 811.093 156.635C811.093 158.829 810.704 160.952 809.924 163.002C809.145 165.033 808.007 166.837 806.51 168.417C805.013 169.975 803.167 171.226 800.973 172.169C798.778 173.092 796.266 173.554 793.436 173.554C791.037 173.554 788.771 173.154 786.638 172.354C784.505 171.554 782.639 170.416 781.039 168.939C779.439 167.442 778.178 165.638 777.255 163.525C776.333 161.393 775.871 159.003 775.871 156.358ZM794.205 171.37C795.764 171.37 797.199 171.062 798.512 170.447C799.824 169.832 800.952 168.95 801.896 167.801C802.859 166.653 803.598 165.258 804.11 163.618C804.644 161.957 804.91 160.09 804.91 158.019C804.91 155.661 804.654 153.477 804.141 151.467C803.649 149.457 802.89 147.724 801.865 146.268C800.86 144.792 799.599 143.643 798.081 142.823C796.563 141.982 794.79 141.562 792.759 141.562C791.201 141.562 789.765 141.859 788.453 142.454C787.14 143.048 786.002 143.91 785.038 145.038C784.095 146.166 783.356 147.55 782.823 149.19C782.29 150.831 782.023 152.697 782.023 154.789C782.023 157.127 782.28 159.311 782.792 161.341C783.326 163.351 784.095 165.104 785.1 166.602C786.125 168.078 787.396 169.247 788.914 170.108C790.432 170.949 792.195 171.37 794.205 171.37ZM823.613 170.601C825.521 170.601 827.274 170.529 828.874 170.385C830.494 170.221 831.909 170.047 833.119 169.862C834.534 169.637 835.815 169.38 836.964 169.093L836.256 173.185C835.969 173.164 835.477 173.133 834.78 173.092C834.103 173.072 833.385 173.051 832.626 173.031C831.868 173.031 831.16 173.021 830.504 173C829.848 173 829.396 173 829.15 173H817.369V172.877C817.512 172.446 817.635 171.893 817.738 171.216C817.861 170.539 817.953 169.708 818.015 168.724C818.097 167.719 818.158 166.53 818.199 165.156C818.24 163.782 818.261 162.172 818.261 160.326V152.574C818.261 150.729 818.24 149.129 818.199 147.775C818.158 146.401 818.097 145.222 818.015 144.238C817.953 143.233 817.861 142.392 817.738 141.715C817.635 141.039 817.512 140.485 817.369 140.054V139.931H824.475V140.054C824.331 140.485 824.208 141.039 824.105 141.715C824.003 142.392 823.911 143.233 823.829 144.238C823.767 145.222 823.716 146.401 823.675 147.775C823.634 149.129 823.613 150.729 823.613 152.574V170.601Z" fill="#EBEBEB"/>
</svg>
