<svg width="1412" height="255" viewBox="0 0 1412 255" fill="none" xmlns="http://www.w3.org/2000/svg">
<path d="M576.429 106.535C576.429 106.861 576.385 107.202 576.296 107.557C576.237 107.913 576.074 108.209 575.807 108.446C574.474 109.453 573.023 110.386 571.453 111.245C569.912 112.075 568.239 112.8 566.432 113.422C564.625 114.044 562.67 114.518 560.566 114.844C558.493 115.2 556.256 115.377 553.857 115.377C548.466 115.377 543.548 114.592 539.105 113.022C534.662 111.423 530.84 109.172 527.641 106.269C524.472 103.366 522.013 99.8849 520.265 95.8267C518.517 91.7388 517.644 87.2065 517.644 82.23C517.644 79.4159 517.999 76.6462 518.71 73.9209C519.451 71.1956 520.517 68.6037 521.909 66.145C523.301 63.6864 525.02 61.4351 527.063 59.3911C529.107 57.3175 531.433 55.5254 534.04 54.0146C536.676 52.5039 539.564 51.3338 542.704 50.5044C545.874 49.6453 549.295 49.2158 552.968 49.2158C554.39 49.2158 555.842 49.2899 557.323 49.438C558.804 49.5565 560.27 49.749 561.722 50.0156C563.173 50.2526 564.565 50.5488 565.898 50.9043C567.261 51.2598 568.55 51.6597 569.764 52.104L572.786 60.3242L572.43 60.502C571.275 59.4652 569.942 58.5024 568.431 57.6138C566.92 56.7251 565.306 55.9549 563.588 55.3032C561.87 54.6515 560.063 54.1479 558.167 53.7925C556.301 53.4074 554.405 53.2148 552.479 53.2148C548.747 53.2148 545.326 53.8073 542.215 54.9922C539.105 56.1475 536.424 57.8359 534.173 60.0576C531.951 62.2793 530.218 65.0046 528.974 68.2334C527.73 71.4622 527.108 75.1354 527.108 79.2529C527.108 83.7852 527.7 87.9915 528.885 91.8721C530.07 95.7526 531.833 99.1147 534.173 101.958C536.513 104.802 539.431 107.039 542.926 108.668C546.451 110.268 550.554 111.067 555.234 111.067C557.308 111.067 559.159 110.904 560.789 110.579C562.418 110.253 563.795 109.853 564.921 109.379C566.047 108.875 566.891 108.342 567.454 107.779C568.046 107.187 568.342 106.654 568.342 106.18V104.447C568.342 102.373 568.313 100.581 568.253 99.0703C568.194 97.5596 568.105 96.2562 567.987 95.1602C567.868 94.0345 567.735 93.0718 567.587 92.272C567.439 91.4722 567.261 90.7316 567.054 90.0503V89.8726H577.718V90.0503C577.54 90.6724 577.362 91.4129 577.185 92.272C577.036 93.1014 576.903 94.0938 576.785 95.249C576.666 96.4043 576.577 97.7669 576.518 99.3369C576.459 100.877 576.429 102.669 576.429 104.713V106.535ZM587.36 66.2339C590.263 66.2339 593.24 66.2339 596.291 66.2339C599.342 66.2043 602.171 66.1746 604.778 66.145C607.385 66.0858 609.621 66.0265 611.487 65.9673C613.383 65.908 614.627 65.8192 615.22 65.7007L613.487 70.4995C612.687 70.2922 611.784 70.0996 610.776 69.9219C609.888 69.7738 608.806 69.6405 607.533 69.522C606.289 69.3739 604.837 69.2998 603.178 69.2998C602.586 69.2998 601.904 69.3294 601.134 69.3887C600.364 69.4183 599.624 69.4627 598.913 69.522C598.083 69.5812 597.239 69.6405 596.38 69.6997V87.251C598.779 87.2214 600.942 87.1621 602.867 87.0732C604.793 86.9844 606.437 86.8659 607.799 86.7178C609.399 86.5993 610.806 86.4364 612.021 86.229L610.954 91.5166C609.325 91.3092 607.681 91.1315 606.022 90.9834C604.6 90.8353 603.03 90.7168 601.312 90.6279C599.594 90.5094 597.95 90.4502 596.38 90.4502V110.623C599.135 110.623 601.667 110.519 603.978 110.312C606.289 110.075 608.303 109.823 610.021 109.557C612.035 109.231 613.857 108.861 615.486 108.446L614.464 114.267C614.02 114.237 613.294 114.193 612.287 114.133C611.31 114.104 610.273 114.074 609.177 114.044C608.11 114.044 607.103 114.03 606.155 114C605.207 114 604.556 114 604.2 114H587.36V113.822C587.567 113.2 587.745 112.4 587.893 111.423C588.071 110.445 588.204 109.246 588.293 107.824C588.411 106.372 588.5 104.654 588.56 102.669C588.619 100.685 588.648 98.3594 588.648 95.6934V84.4961C588.648 81.8301 588.619 79.5195 588.56 77.5645C588.5 75.5798 588.411 73.8765 588.293 72.4546C588.204 71.0031 588.071 69.7886 587.893 68.811C587.745 67.8335 587.567 67.0337 587.36 66.4116V66.2339ZM634.593 69.3887C634.563 71.8177 634.534 74.1727 634.504 76.4536C634.504 77.4312 634.489 78.4383 634.459 79.4751C634.459 80.4823 634.445 81.4894 634.415 82.4966C634.415 83.5037 634.415 84.4665 634.415 85.3848C634.415 86.2734 634.415 87.0732 634.415 87.7842C634.415 89.2653 634.415 91.0575 634.415 93.1606C634.445 95.2342 634.474 97.367 634.504 99.5591C634.534 101.751 634.578 103.869 634.637 105.913C634.696 107.927 634.771 109.616 634.859 110.979C635.156 111.038 635.541 111.097 636.015 111.156C636.489 111.186 636.977 111.23 637.481 111.29C638.014 111.319 638.533 111.349 639.036 111.378C639.54 111.378 639.969 111.378 640.325 111.378C641.954 111.378 643.598 111.275 645.257 111.067C646.945 110.86 648.56 110.475 650.1 109.912C651.67 109.32 653.136 108.52 654.499 107.513C655.862 106.506 657.047 105.217 658.054 103.647C659.09 102.047 659.89 100.137 660.453 97.915C661.046 95.6637 661.342 93.0125 661.342 89.9614C661.342 83.2371 659.727 78.0532 656.499 74.4097C653.299 70.7661 648.515 68.9443 642.146 68.9443C641.524 68.9443 640.858 68.9591 640.147 68.9888C639.466 69.0184 638.784 69.0628 638.103 69.1221C637.422 69.1517 636.77 69.1961 636.148 69.2554C635.556 69.3146 635.037 69.359 634.593 69.3887ZM625.395 66.145C626.106 66.1746 626.772 66.1895 627.395 66.1895C627.928 66.2191 628.446 66.2339 628.95 66.2339C629.453 66.2339 629.824 66.2339 630.061 66.2339C630.475 66.2339 631.216 66.2191 632.282 66.1895C633.349 66.1598 634.548 66.1302 635.881 66.1006C637.244 66.0413 638.666 65.9969 640.147 65.9673C641.658 65.908 643.05 65.8784 644.324 65.8784C647.79 65.8784 651.092 66.2783 654.232 67.0781C657.372 67.8779 660.127 69.1961 662.497 71.0327C664.896 72.8397 666.792 75.2243 668.185 78.1865C669.577 81.1191 670.273 84.7479 670.273 89.0728C670.273 93.7235 669.473 97.6632 667.874 100.892C666.274 104.121 664.111 106.757 661.386 108.801C658.661 110.816 655.491 112.282 651.877 113.2C648.293 114.089 644.501 114.533 640.502 114.533C639.555 114.533 638.37 114.504 636.948 114.444C635.526 114.385 634.074 114.326 632.593 114.267C631.112 114.207 629.705 114.148 628.372 114.089C627.069 114.03 626.076 114 625.395 114V113.822C625.602 113.2 625.78 112.4 625.928 111.423C626.106 110.445 626.239 109.246 626.328 107.824C626.447 106.372 626.535 104.654 626.595 102.669C626.654 100.685 626.684 98.3594 626.684 95.6934V84.4961C626.684 81.8301 626.654 79.5047 626.595 77.52C626.535 75.5353 626.447 73.8172 626.328 72.3657C626.239 70.9142 626.106 69.6997 625.928 68.7222C625.78 67.7446 625.602 66.9448 625.395 66.3228V66.145ZM716.262 84.3184C716.262 81.682 716.247 79.3862 716.217 77.4312C716.188 75.4761 716.128 73.7876 716.04 72.3657C715.951 70.9438 715.847 69.759 715.729 68.811C715.61 67.8335 715.462 67.0337 715.284 66.4116V66.2339H721.816V66.4116C721.638 67.0337 721.49 67.8335 721.372 68.811C721.253 69.7886 721.149 71.0031 721.061 72.4546C720.972 73.8765 720.912 75.5798 720.883 77.5645C720.853 79.5195 720.838 81.8301 720.838 84.4961V97.2485C720.838 100.448 720.335 103.173 719.328 105.424C718.35 107.676 716.987 109.527 715.24 110.979C713.492 112.4 711.404 113.437 708.975 114.089C706.575 114.77 703.939 115.111 701.065 115.111C698.162 115.111 695.467 114.785 692.979 114.133C690.49 113.511 688.328 112.504 686.491 111.112C684.684 109.72 683.248 107.913 682.181 105.691C681.144 103.469 680.626 100.774 680.626 97.604V84.4961C680.626 81.8301 680.596 79.5195 680.537 77.5645C680.478 75.5798 680.389 73.8765 680.271 72.4546C680.152 71.0031 680.019 69.7886 679.871 68.811C679.722 67.8335 679.545 67.0337 679.337 66.4116V66.2339H689.602V66.4116C689.394 67.0337 689.216 67.8335 689.068 68.811C688.92 69.759 688.787 70.9438 688.668 72.3657C688.58 73.7876 688.506 75.4761 688.446 77.4312C688.387 79.3862 688.357 81.682 688.357 84.3184V97.604C688.357 100.24 688.757 102.418 689.557 104.136C690.357 105.824 691.409 107.172 692.712 108.179C694.015 109.186 695.496 109.897 697.155 110.312C698.814 110.697 700.517 110.89 702.265 110.89C704.042 110.89 705.761 110.697 707.419 110.312C709.108 109.897 710.604 109.186 711.907 108.179C713.24 107.172 714.292 105.824 715.062 104.136C715.862 102.418 716.262 100.24 716.262 97.604V84.3184ZM776.069 114.622H774.336L739.012 79.875V95.6934C739.012 98.3594 739.027 100.685 739.056 102.669C739.086 104.654 739.13 106.372 739.189 107.824C739.278 109.246 739.382 110.445 739.5 111.423C739.649 112.4 739.826 113.2 740.034 113.822V114H733.369V113.822C733.576 113.2 733.754 112.4 733.902 111.423C734.05 110.445 734.168 109.246 734.257 107.824C734.346 106.372 734.405 104.654 734.435 102.669C734.465 100.685 734.479 98.3594 734.479 95.6934V84.4961C734.479 81.8301 734.465 79.5195 734.435 77.5645C734.405 75.5798 734.346 73.8765 734.257 72.4546C734.168 71.0031 734.05 69.7886 733.902 68.811C733.754 67.8335 733.576 67.0337 733.369 66.4116V66.2339H736.124L771.493 101.159V84.4961C771.493 81.8301 771.478 79.5195 771.448 77.5645C771.419 75.5798 771.359 73.8765 771.271 72.4546C771.211 71.0031 771.122 69.7886 771.004 68.811C770.885 67.8335 770.722 67.0337 770.515 66.4116V66.2339H777.136V66.4116C776.928 67.0337 776.751 67.8335 776.603 68.811C776.484 69.7886 776.38 71.0031 776.292 72.4546C776.203 73.8765 776.143 75.5798 776.114 77.5645C776.084 79.5195 776.069 81.8301 776.069 84.4961V114.622ZM832.5 108.624C832.5 109.009 832.456 109.334 832.367 109.601C832.307 109.868 832.145 110.09 831.878 110.268C829.775 111.749 827.316 112.934 824.502 113.822C821.717 114.681 818.444 115.111 814.682 115.111C810.446 115.111 806.58 114.504 803.085 113.289C799.619 112.075 796.642 110.386 794.154 108.224C791.666 106.032 789.725 103.41 788.333 100.359C786.97 97.3078 786.289 93.9308 786.289 90.228C786.289 87.0584 786.911 83.9777 788.155 80.9858C789.429 77.994 791.251 75.3428 793.621 73.0322C795.99 70.7217 798.864 68.8703 802.241 67.478C805.647 66.0858 809.483 65.3896 813.749 65.3896C815.971 65.3896 818.074 65.5229 820.059 65.7896C822.043 66.0265 823.954 66.4116 825.791 66.9448L829.123 74.9429L828.679 75.2539C826.901 73.21 824.754 71.5955 822.236 70.4106C819.718 69.1961 816.83 68.5889 813.571 68.5889C810.905 68.5889 808.447 69.0184 806.195 69.8774C803.974 70.7365 802.033 71.9954 800.375 73.6543C798.745 75.2835 797.472 77.2979 796.553 79.6973C795.635 82.0967 795.176 84.8219 795.176 87.873C795.176 91.3092 795.605 94.4937 796.464 97.4263C797.323 100.359 798.612 102.906 800.33 105.069C802.048 107.202 804.166 108.875 806.684 110.09C809.232 111.304 812.194 111.912 815.571 111.912C818.474 111.912 820.725 111.541 822.325 110.801C823.954 110.06 824.769 109.216 824.769 108.268V105.913C824.769 104.373 824.754 103.04 824.724 101.914C824.694 100.788 824.65 99.8257 824.591 99.0259C824.532 98.1965 824.443 97.4855 824.324 96.8931C824.235 96.3006 824.117 95.7526 823.969 95.249V95.0713H833.433V95.249C833.285 95.6934 833.152 96.2266 833.033 96.8486C832.915 97.4707 832.811 98.2113 832.722 99.0703C832.663 99.9294 832.604 100.937 832.544 102.092C832.515 103.247 832.5 104.58 832.5 106.091V108.624ZM879.866 85.7847C882.769 86.3179 885.42 86.3771 887.82 85.9624C890.249 85.5181 892.322 84.5998 894.041 83.2075C895.788 81.7856 897.136 79.875 898.084 77.4756C899.062 75.0762 899.55 72.1436 899.55 68.6777C899.55 66.2783 899.299 64.1011 898.795 62.146C898.291 60.1613 897.536 58.4876 896.529 57.125C895.551 55.7327 894.307 54.6663 892.796 53.9258C891.286 53.1556 889.523 52.7705 887.509 52.7705C886.235 52.7705 885.124 52.8298 884.176 52.9482C883.228 53.0371 882.429 53.1408 881.777 53.2593C881.007 53.4074 880.37 53.5703 879.866 53.748V85.7847ZM870.491 50.2822C871.083 50.3415 871.705 50.4007 872.357 50.46C872.92 50.5192 873.542 50.5636 874.223 50.5933C874.934 50.5933 875.66 50.5933 876.4 50.5933C877.556 50.5933 879.111 50.46 881.066 50.1934C883.051 49.8971 885.569 49.749 888.62 49.749C891.463 49.749 894.085 50.1637 896.484 50.9932C898.913 51.8226 901.017 53.0371 902.794 54.6367C904.571 56.2363 905.949 58.1914 906.926 60.502C907.933 62.7829 908.437 65.3896 908.437 68.3223C908.437 72.262 907.652 75.6686 906.082 78.542C904.512 81.4154 902.409 83.7407 899.772 85.5181C897.136 87.2954 894.1 88.5099 890.664 89.1616C887.227 89.7837 883.628 89.8133 879.866 89.2505V96.6265C879.866 99.1444 879.896 101.351 879.955 103.247C880.044 105.113 880.133 106.728 880.222 108.09C880.34 109.453 880.473 110.593 880.622 111.512C880.799 112.43 880.977 113.2 881.155 113.822V114H870.491V113.822C870.668 113.2 870.831 112.43 870.979 111.512C871.157 110.593 871.305 109.453 871.424 108.09C871.542 106.728 871.631 105.113 871.69 103.247C871.75 101.351 871.779 99.1444 871.779 96.6265V67.7002C871.779 65.1823 871.75 62.9902 871.69 61.124C871.631 59.2282 871.542 57.599 871.424 56.2363C871.305 54.8441 871.157 53.6888 870.979 52.7705C870.831 51.8522 870.668 51.082 870.491 50.46V50.2822ZM916.613 66.2339C919.516 66.2339 922.493 66.2339 925.544 66.2339C928.595 66.2043 931.424 66.1746 934.031 66.145C936.638 66.0858 938.874 66.0265 940.74 65.9673C942.636 65.908 943.88 65.8192 944.473 65.7007L942.74 70.4995C941.94 70.2922 941.036 70.0996 940.029 69.9219C939.141 69.7738 938.059 69.6405 936.786 69.522C935.542 69.3739 934.09 69.2998 932.431 69.2998C931.839 69.2998 931.157 69.3294 930.387 69.3887C929.617 69.4183 928.876 69.4627 928.166 69.522C927.336 69.5812 926.492 69.6405 925.633 69.6997V87.251C928.032 87.2214 930.195 87.1621 932.12 87.0732C934.046 86.9844 935.69 86.8659 937.052 86.7178C938.652 86.5993 940.059 86.4364 941.273 86.229L940.207 91.5166C938.578 91.3092 936.934 91.1315 935.275 90.9834C933.853 90.8353 932.283 90.7168 930.565 90.6279C928.847 90.5094 927.203 90.4502 925.633 90.4502V110.623C928.388 110.623 930.92 110.519 933.231 110.312C935.542 110.075 937.556 109.823 939.274 109.557C941.288 109.231 943.11 108.861 944.739 108.446L943.717 114.267C943.273 114.237 942.547 114.193 941.54 114.133C940.562 114.104 939.526 114.074 938.43 114.044C937.363 114.044 936.356 114.03 935.408 114C934.46 114 933.809 114 933.453 114H916.613V113.822C916.82 113.2 916.998 112.4 917.146 111.423C917.324 110.445 917.457 109.246 917.546 107.824C917.664 106.372 917.753 104.654 917.812 102.669C917.872 100.685 917.901 98.3594 917.901 95.6934V84.4961C917.901 81.8301 917.872 79.5195 917.812 77.5645C917.753 75.5798 917.664 73.8765 917.546 72.4546C917.457 71.0031 917.324 69.7886 917.146 68.811C916.998 67.8335 916.82 67.0337 916.613 66.4116V66.2339ZM963.668 90.8057C964.26 90.8945 964.853 90.9686 965.445 91.0278C966.067 91.0575 966.66 91.0723 967.223 91.0723C970.925 91.0723 973.725 90.0799 975.621 88.0952C977.546 86.1105 978.509 83.1335 978.509 79.1641C978.509 75.9056 977.739 73.3285 976.198 71.4326C974.688 69.5368 972.451 68.5889 969.489 68.5889C968.541 68.5889 967.697 68.6333 966.956 68.7222C966.245 68.7814 965.638 68.8555 965.134 68.9443C964.571 69.0628 964.083 69.1813 963.668 69.2998V90.8057ZM970.466 93.6938C969.874 93.7827 969.281 93.842 968.689 93.8716C968.126 93.8716 967.549 93.8716 966.956 93.8716C966.482 93.8716 965.964 93.8568 965.401 93.8271C964.838 93.7975 964.26 93.7531 963.668 93.6938V95.8711C963.668 98.5075 963.698 100.818 963.757 102.803C963.816 104.758 963.89 106.446 963.979 107.868C964.097 109.29 964.231 110.49 964.379 111.467C964.527 112.415 964.705 113.2 964.912 113.822V114H954.648V113.822C954.855 113.2 955.033 112.4 955.181 111.423C955.359 110.445 955.492 109.246 955.581 107.824C955.7 106.372 955.788 104.654 955.848 102.669C955.907 100.685 955.937 98.3594 955.937 95.6934V84.4961C955.937 81.8301 955.907 79.5195 955.848 77.5645C955.788 75.5798 955.7 73.8765 955.581 72.4546C955.492 71.0031 955.359 69.7886 955.181 68.811C955.033 67.8335 954.855 67.0337 954.648 66.4116V66.2339C955.122 66.2635 955.625 66.2931 956.159 66.3228C956.603 66.3524 957.092 66.382 957.625 66.4116C958.188 66.4116 958.751 66.4116 959.313 66.4116C960.261 66.4116 961.668 66.3228 963.535 66.145C965.401 65.9673 967.593 65.8784 970.111 65.8784C972.658 65.8784 974.969 66.1895 977.042 66.8115C979.146 67.4336 980.938 68.3223 982.419 69.4775C983.93 70.6328 985.085 72.0399 985.885 73.6987C986.714 75.3576 987.129 77.209 987.129 79.2529C987.129 80.8525 986.907 82.3188 986.462 83.6519C986.018 84.9552 985.396 86.1401 984.596 87.2065C983.796 88.2433 982.848 89.1616 981.752 89.9614C980.656 90.7612 979.442 91.4574 978.109 92.0498L987.396 105.158C988.195 106.224 988.995 107.246 989.795 108.224C990.624 109.201 991.409 110.075 992.15 110.845C992.89 111.615 993.587 112.267 994.238 112.8C994.89 113.304 995.438 113.645 995.882 113.822V114H984.241C984.241 113.733 984.048 113.274 983.663 112.623C983.308 111.941 982.878 111.245 982.375 110.534C981.901 109.794 981.412 109.083 980.908 108.401C980.434 107.72 980.079 107.216 979.842 106.891L970.466 93.6938ZM1010.95 69.522C1008.25 69.522 1005.79 69.6405 1003.57 69.8774C1001.38 70.1144 999.481 70.3662 997.882 70.6328C996.045 70.9587 994.386 71.3141 992.905 71.6992L993.794 65.9673C994.238 66.0265 994.964 66.071 995.971 66.1006C996.978 66.1302 998.03 66.1598 999.126 66.1895C1000.25 66.1895 1001.3 66.2043 1002.28 66.2339C1003.29 66.2339 1003.98 66.2339 1004.37 66.2339H1025.39C1025.74 66.2339 1026.39 66.2339 1027.34 66.2339C1028.32 66.2043 1029.36 66.1895 1030.45 66.1895C1031.55 66.1598 1032.6 66.1302 1033.61 66.1006C1034.61 66.071 1035.34 66.0265 1035.78 65.9673L1036.67 71.6992C1035.25 71.3141 1033.62 70.9587 1031.78 70.6328C1030.21 70.3662 1028.32 70.1144 1026.1 69.8774C1023.91 69.6405 1021.43 69.522 1018.68 69.522V95.6934C1018.68 98.3594 1018.71 100.685 1018.77 102.669C1018.82 104.654 1018.9 106.372 1018.99 107.824C1019.11 109.246 1019.24 110.445 1019.39 111.423C1019.54 112.4 1019.71 113.2 1019.92 113.822V114H1009.66V113.822C1009.86 113.2 1010.04 112.4 1010.19 111.423C1010.34 110.445 1010.47 109.246 1010.59 107.824C1010.71 106.372 1010.8 104.654 1010.86 102.669C1010.92 100.685 1010.95 98.3594 1010.95 95.6934V69.522ZM1042.54 66.2339C1045.44 66.2339 1048.42 66.2339 1051.47 66.2339C1054.52 66.2043 1057.35 66.1746 1059.96 66.145C1062.56 66.0858 1064.8 66.0265 1066.67 65.9673C1068.56 65.908 1069.81 65.8192 1070.4 65.7007L1068.66 70.4995C1067.86 70.2922 1066.96 70.0996 1065.95 69.9219C1065.07 69.7738 1063.98 69.6405 1062.71 69.522C1061.47 69.3739 1060.01 69.2998 1058.36 69.2998C1057.76 69.2998 1057.08 69.3294 1056.31 69.3887C1055.54 69.4183 1054.8 69.4627 1054.09 69.522C1053.26 69.5812 1052.42 69.6405 1051.56 69.6997V87.251C1053.96 87.2214 1056.12 87.1621 1058.04 87.0732C1059.97 86.9844 1061.61 86.8659 1062.98 86.7178C1064.58 86.5993 1065.98 86.4364 1067.2 86.229L1066.13 91.5166C1064.5 91.3092 1062.86 91.1315 1061.2 90.9834C1059.78 90.8353 1058.21 90.7168 1056.49 90.6279C1054.77 90.5094 1053.13 90.4502 1051.56 90.4502V110.623C1054.31 110.623 1056.85 110.519 1059.16 110.312C1061.47 110.075 1063.48 109.823 1065.2 109.557C1067.21 109.231 1069.03 108.861 1070.66 108.446L1069.64 114.267C1069.2 114.237 1068.47 114.193 1067.46 114.133C1066.49 114.104 1065.45 114.074 1064.35 114.044C1063.29 114.044 1062.28 114.03 1061.33 114C1060.39 114 1059.73 114 1059.38 114H1042.54V113.822C1042.74 113.2 1042.92 112.4 1043.07 111.423C1043.25 110.445 1043.38 109.246 1043.47 107.824C1043.59 106.372 1043.68 104.654 1043.74 102.669C1043.8 100.685 1043.83 98.3594 1043.83 95.6934V84.4961C1043.83 81.8301 1043.8 79.5195 1043.74 77.5645C1043.68 75.5798 1043.59 73.8765 1043.47 72.4546C1043.38 71.0031 1043.25 69.7886 1043.07 68.811C1042.92 67.8335 1042.74 67.0337 1042.54 66.4116V66.2339ZM1077.46 113.822C1077.85 113.408 1078.23 112.652 1078.62 111.556C1079.03 110.46 1079.36 109.275 1079.6 108.001C1079.95 105.928 1080.34 103.573 1080.75 100.937C1081.19 98.2705 1081.62 95.5304 1082.04 92.7163C1082.48 89.9022 1082.91 87.1029 1083.33 84.3184C1083.74 81.5042 1084.13 78.8975 1084.48 76.498C1084.84 74.0986 1085.13 71.9954 1085.37 70.1885C1085.61 68.3815 1085.77 67.0633 1085.86 66.2339H1091.15L1112.34 104.18L1134.07 66.2339H1138.38L1143.71 103.336C1143.98 105.024 1144.23 106.461 1144.47 107.646C1144.73 108.831 1144.99 109.838 1145.22 110.667C1145.46 111.467 1145.7 112.119 1145.93 112.623C1146.17 113.126 1146.38 113.526 1146.56 113.822V114H1135.63V113.822C1135.71 113.585 1135.82 113.185 1135.94 112.623C1136.09 112.06 1136.16 111.393 1136.16 110.623C1136.16 110.119 1136.11 109.394 1136.03 108.446C1135.97 107.498 1135.86 106.565 1135.71 105.646L1131.89 78.4087L1111.68 113.911L1108.52 113.467L1088.66 78.1421C1087.92 83.1187 1087.27 87.7249 1086.7 91.9609C1086.47 93.7679 1086.23 95.5749 1085.99 97.3818C1085.76 99.1888 1085.55 100.892 1085.37 102.492C1085.19 104.062 1085.05 105.454 1084.93 106.668C1084.81 107.883 1084.75 108.786 1084.75 109.379C1084.75 110.119 1084.76 110.771 1084.79 111.334C1084.82 111.867 1084.87 112.341 1084.93 112.756C1084.99 113.23 1085.05 113.645 1085.1 114H1077.46V113.822ZM1192.59 84.3184C1192.59 81.682 1192.58 79.3862 1192.55 77.4312C1192.52 75.4761 1192.46 73.7876 1192.37 72.3657C1192.28 70.9438 1192.18 69.759 1192.06 68.811C1191.94 67.8335 1191.79 67.0337 1191.61 66.4116V66.2339H1198.14V66.4116C1197.97 67.0337 1197.82 67.8335 1197.7 68.811C1197.58 69.7886 1197.48 71.0031 1197.39 72.4546C1197.3 73.8765 1197.24 75.5798 1197.21 77.5645C1197.18 79.5195 1197.17 81.8301 1197.17 84.4961V97.2485C1197.17 100.448 1196.66 103.173 1195.66 105.424C1194.68 107.676 1193.32 109.527 1191.57 110.979C1189.82 112.4 1187.73 113.437 1185.3 114.089C1182.9 114.77 1180.27 115.111 1177.39 115.111C1174.49 115.111 1171.79 114.785 1169.31 114.133C1166.82 113.511 1164.66 112.504 1162.82 111.112C1161.01 109.72 1159.58 107.913 1158.51 105.691C1157.47 103.469 1156.95 100.774 1156.95 97.604V84.4961C1156.95 81.8301 1156.92 79.5195 1156.87 77.5645C1156.81 75.5798 1156.72 73.8765 1156.6 72.4546C1156.48 71.0031 1156.35 69.7886 1156.2 68.811C1156.05 67.8335 1155.87 67.0337 1155.67 66.4116V66.2339H1165.93V66.4116C1165.72 67.0337 1165.54 67.8335 1165.4 68.811C1165.25 69.759 1165.12 70.9438 1165 72.3657C1164.91 73.7876 1164.83 75.4761 1164.77 77.4312C1164.72 79.3862 1164.69 81.682 1164.69 84.3184V97.604C1164.69 100.24 1165.09 102.418 1165.89 104.136C1166.69 105.824 1167.74 107.172 1169.04 108.179C1170.34 109.186 1171.82 109.897 1173.48 110.312C1175.14 110.697 1176.85 110.89 1178.59 110.89C1180.37 110.89 1182.09 110.697 1183.75 110.312C1185.44 109.897 1186.93 109.186 1188.24 108.179C1189.57 107.172 1190.62 105.824 1191.39 104.136C1192.19 102.418 1192.59 100.24 1192.59 97.604V84.3184ZM1238.27 98.9814C1237.47 98.9814 1236.46 98.9814 1235.25 98.9814C1234.06 98.9814 1232.76 98.9814 1231.34 98.9814C1229.91 98.9814 1228.45 98.9814 1226.94 98.9814C1225.43 98.9814 1223.99 98.9963 1222.63 99.0259C1221.26 99.0259 1220.02 99.0407 1218.89 99.0703C1217.77 99.0703 1216.9 99.0703 1216.27 99.0703L1214.63 102.536C1213.92 103.958 1213.31 105.202 1212.81 106.269C1212.3 107.305 1211.89 108.224 1211.56 109.023C1211.24 109.823 1211 110.519 1210.85 111.112C1210.7 111.675 1210.63 112.208 1210.63 112.711C1210.63 113.037 1210.64 113.289 1210.67 113.467C1210.7 113.615 1210.75 113.733 1210.81 113.822V114H1202.99V113.822C1203.19 113.615 1203.52 113.171 1203.96 112.489C1204.41 111.778 1204.91 110.919 1205.48 109.912C1206.07 108.905 1206.69 107.764 1207.34 106.491C1208.02 105.217 1208.69 103.899 1209.34 102.536L1227.47 65.123H1230.8L1248.58 102.536C1249.26 103.958 1249.94 105.321 1250.62 106.624C1251.33 107.927 1251.98 109.097 1252.58 110.134C1253.17 111.141 1253.69 111.986 1254.13 112.667C1254.57 113.319 1254.87 113.704 1255.02 113.822V114H1243.64C1243.7 113.763 1243.73 113.556 1243.73 113.378C1243.73 113.171 1243.73 112.948 1243.73 112.711C1243.73 112.06 1243.58 111.275 1243.29 110.356C1243.02 109.438 1242.68 108.505 1242.27 107.557C1241.88 106.58 1241.47 105.646 1241.02 104.758C1240.61 103.869 1240.27 103.129 1240 102.536L1238.27 98.9814ZM1218.01 95.5156H1220.72C1221.96 95.5156 1223.28 95.5156 1224.67 95.5156C1226.09 95.486 1227.51 95.4712 1228.94 95.4712C1230.36 95.4712 1231.74 95.4712 1233.07 95.4712C1234.4 95.4416 1235.6 95.4268 1236.67 95.4268L1227.47 75.7871L1218.01 95.5156ZM1303.14 114.622H1301.41L1266.08 79.875V95.6934C1266.08 98.3594 1266.1 100.685 1266.13 102.669C1266.16 104.654 1266.2 106.372 1266.26 107.824C1266.35 109.246 1266.45 110.445 1266.57 111.423C1266.72 112.4 1266.9 113.2 1267.1 113.822V114H1260.44V113.822C1260.65 113.2 1260.83 112.4 1260.97 111.423C1261.12 110.445 1261.24 109.246 1261.33 107.824C1261.42 106.372 1261.48 104.654 1261.51 102.669C1261.54 100.685 1261.55 98.3594 1261.55 95.6934V84.4961C1261.55 81.8301 1261.54 79.5195 1261.51 77.5645C1261.48 75.5798 1261.42 73.8765 1261.33 72.4546C1261.24 71.0031 1261.12 69.7886 1260.97 68.811C1260.83 67.8335 1260.65 67.0337 1260.44 66.4116V66.2339H1263.19L1298.56 101.159V84.4961C1298.56 81.8301 1298.55 79.5195 1298.52 77.5645C1298.49 75.5798 1298.43 73.8765 1298.34 72.4546C1298.28 71.0031 1298.19 69.7886 1298.08 68.811C1297.96 67.8335 1297.79 67.0337 1297.59 66.4116V66.2339H1304.21V66.4116C1304 67.0337 1303.82 67.8335 1303.67 68.811C1303.56 69.7886 1303.45 71.0031 1303.36 72.4546C1303.27 73.8765 1303.21 75.5798 1303.19 77.5645C1303.16 79.5195 1303.14 81.8301 1303.14 84.4961V114.622ZM530.085 150.104C530.026 153.421 529.966 156.635 529.907 159.746C529.878 161.079 529.848 162.441 529.818 163.833C529.818 165.226 529.804 166.603 529.774 167.966C529.774 169.299 529.759 170.587 529.729 171.832C529.729 173.046 529.729 174.127 529.729 175.075C529.729 177.06 529.744 179.459 529.774 182.273C529.804 185.088 529.833 187.976 529.863 190.938C529.922 193.9 529.996 196.744 530.085 199.469C530.174 202.194 530.278 204.461 530.396 206.268C530.811 206.327 531.359 206.401 532.04 206.49C532.751 206.549 533.492 206.608 534.262 206.667C535.032 206.697 535.787 206.727 536.528 206.756C537.268 206.786 537.89 206.801 538.394 206.801C540.468 206.801 542.586 206.667 544.748 206.401C546.94 206.105 549.043 205.571 551.058 204.801C553.102 204.031 555.012 202.979 556.79 201.646C558.597 200.284 560.167 198.536 561.5 196.403C562.862 194.271 563.929 191.708 564.699 188.716C565.469 185.695 565.854 182.14 565.854 178.052C565.854 173.52 565.306 169.491 564.21 165.966C563.114 162.412 561.5 159.42 559.367 156.991C557.264 154.562 554.642 152.725 551.502 151.481C548.392 150.207 544.807 149.57 540.749 149.57C539.949 149.57 539.046 149.6 538.039 149.659C537.031 149.689 536.024 149.733 535.017 149.792C534.04 149.822 533.106 149.881 532.218 149.97C531.359 150.029 530.648 150.074 530.085 150.104ZM520.354 146.104C521.035 146.134 521.672 146.164 522.265 146.193C522.768 146.223 523.287 146.253 523.82 146.282C524.353 146.282 524.783 146.282 525.108 146.282C525.671 146.282 526.604 146.253 527.908 146.193C529.241 146.134 530.751 146.075 532.44 146.016C534.128 145.956 535.876 145.897 537.683 145.838C539.52 145.779 541.238 145.749 542.837 145.749C547.133 145.749 551.221 146.282 555.101 147.349C558.982 148.415 562.388 150.163 565.321 152.592C568.253 155.021 570.579 158.205 572.297 162.145C574.015 166.085 574.874 170.928 574.874 176.675C574.874 180.792 574.415 184.495 573.497 187.783C572.608 191.071 571.349 193.974 569.72 196.492C568.09 199.01 566.135 201.173 563.854 202.979C561.603 204.757 559.1 206.223 556.345 207.378C553.62 208.534 550.702 209.378 547.592 209.911C544.481 210.444 541.267 210.711 537.95 210.711C536.765 210.711 535.328 210.667 533.64 210.578C531.981 210.518 530.307 210.444 528.619 210.355C526.93 210.267 525.331 210.178 523.82 210.089C522.339 210.03 521.183 210 520.354 210V209.822C520.532 209.2 520.695 208.43 520.843 207.512C521.021 206.593 521.169 205.453 521.287 204.09C521.406 202.728 521.494 201.113 521.554 199.247C521.613 197.351 521.643 195.144 521.643 192.626V163.7C521.643 161.182 521.613 158.975 521.554 157.08C521.494 155.154 521.406 153.51 521.287 152.147C521.169 150.755 521.021 149.585 520.843 148.637C520.695 147.689 520.532 146.904 520.354 146.282V146.104ZM584.783 162.234C587.686 162.234 590.663 162.234 593.714 162.234C596.765 162.204 599.594 162.175 602.201 162.145C604.807 162.086 607.044 162.027 608.91 161.967C610.806 161.908 612.05 161.819 612.643 161.701L610.91 166.5C610.11 166.292 609.206 166.1 608.199 165.922C607.311 165.774 606.229 165.64 604.956 165.522C603.711 165.374 602.26 165.3 600.601 165.3C600.009 165.3 599.327 165.329 598.557 165.389C597.787 165.418 597.046 165.463 596.335 165.522C595.506 165.581 594.662 165.64 593.803 165.7V183.251C596.202 183.221 598.365 183.162 600.29 183.073C602.215 182.984 603.86 182.866 605.222 182.718C606.822 182.599 608.229 182.436 609.443 182.229L608.377 187.517C606.748 187.309 605.104 187.132 603.445 186.983C602.023 186.835 600.453 186.717 598.735 186.628C597.017 186.509 595.373 186.45 593.803 186.45V206.623C596.558 206.623 599.09 206.519 601.401 206.312C603.711 206.075 605.726 205.823 607.444 205.557C609.458 205.231 611.28 204.861 612.909 204.446L611.887 210.267C611.443 210.237 610.717 210.193 609.71 210.133C608.732 210.104 607.696 210.074 606.6 210.044C605.533 210.044 604.526 210.03 603.578 210C602.63 210 601.979 210 601.623 210H584.783V209.822C584.99 209.2 585.168 208.4 585.316 207.423C585.494 206.445 585.627 205.246 585.716 203.824C585.834 202.372 585.923 200.654 585.982 198.669C586.042 196.685 586.071 194.359 586.071 191.693V180.496C586.071 177.83 586.042 175.52 585.982 173.564C585.923 171.58 585.834 169.876 585.716 168.455C585.627 167.003 585.494 165.789 585.316 164.811C585.168 163.833 584.99 163.034 584.783 162.412V162.234ZM644.457 171.521H643.568C643.391 171.017 643.094 170.38 642.68 169.61C642.295 168.84 641.761 168.084 641.08 167.344C640.428 166.603 639.614 165.981 638.636 165.478C637.659 164.944 636.489 164.678 635.126 164.678C634.089 164.678 633.156 164.855 632.327 165.211C631.527 165.537 630.846 165.996 630.283 166.588C629.72 167.181 629.29 167.892 628.994 168.721C628.698 169.521 628.55 170.395 628.55 171.343C628.55 172.883 629.009 174.349 629.927 175.742C630.875 177.134 632.045 178.526 633.438 179.918C634.83 181.281 636.34 182.659 637.97 184.051C639.599 185.443 641.11 186.895 642.502 188.405C643.894 189.916 645.049 191.516 645.968 193.204C646.916 194.893 647.39 196.7 647.39 198.625C647.39 200.047 647.123 201.513 646.59 203.024C646.086 204.535 645.257 205.897 644.102 207.112C642.946 208.326 641.465 209.319 639.658 210.089C637.851 210.889 635.659 211.289 633.082 211.289C631.66 211.289 630.298 211.17 628.994 210.933C627.72 210.696 626.535 210.4 625.439 210.044C624.373 209.719 623.41 209.363 622.551 208.978C621.722 208.563 621.026 208.178 620.463 207.823L621.263 199.425H622.196C622.492 200.462 622.922 201.498 623.484 202.535C624.077 203.572 624.788 204.52 625.617 205.379C626.476 206.208 627.469 206.89 628.594 207.423C629.75 207.926 631.068 208.178 632.549 208.178C633.586 208.178 634.563 208.015 635.481 207.689C636.4 207.334 637.185 206.845 637.836 206.223C638.518 205.601 639.051 204.846 639.436 203.957C639.821 203.039 640.014 202.017 640.014 200.891C640.014 199.558 639.747 198.329 639.214 197.203C638.681 196.048 637.97 194.952 637.081 193.915C636.192 192.849 635.185 191.827 634.06 190.849C632.964 189.872 631.823 188.879 630.638 187.872C629.453 186.865 628.298 185.843 627.172 184.806C626.076 183.74 625.084 182.599 624.195 181.385C623.307 180.17 622.596 178.882 622.062 177.519C621.529 176.127 621.263 174.601 621.263 172.942C621.263 171.195 621.633 169.625 622.374 168.232C623.114 166.84 624.092 165.67 625.306 164.722C626.521 163.745 627.913 163.004 629.483 162.5C631.053 161.967 632.682 161.701 634.371 161.701C635.615 161.701 636.77 161.79 637.836 161.967C638.932 162.145 639.91 162.367 640.769 162.634C641.658 162.871 642.428 163.123 643.08 163.389C643.731 163.626 644.264 163.819 644.679 163.967L644.457 171.521ZM685.691 194.981C684.892 194.981 683.884 194.981 682.67 194.981C681.485 194.981 680.182 194.981 678.76 194.981C677.338 194.981 675.872 194.981 674.361 194.981C672.85 194.981 671.413 194.996 670.051 195.026C668.688 195.026 667.444 195.041 666.318 195.07C665.193 195.07 664.319 195.07 663.697 195.07L662.053 198.536C661.342 199.958 660.735 201.202 660.231 202.269C659.727 203.305 659.313 204.224 658.987 205.023C658.661 205.823 658.424 206.519 658.276 207.112C658.128 207.675 658.054 208.208 658.054 208.711C658.054 209.037 658.069 209.289 658.098 209.467C658.128 209.615 658.172 209.733 658.231 209.822V210H650.411V209.822C650.618 209.615 650.944 209.171 651.389 208.489C651.833 207.778 652.337 206.919 652.899 205.912C653.492 204.905 654.114 203.764 654.766 202.491C655.447 201.217 656.113 199.899 656.765 198.536L674.894 161.123H678.227L696 198.536C696.681 199.958 697.363 201.321 698.044 202.624C698.755 203.927 699.407 205.097 699.999 206.134C700.591 207.141 701.11 207.986 701.554 208.667C701.999 209.319 702.295 209.704 702.443 209.822V210H691.068C691.127 209.763 691.157 209.556 691.157 209.378C691.157 209.171 691.157 208.948 691.157 208.711C691.157 208.06 691.009 207.275 690.712 206.356C690.446 205.438 690.105 204.505 689.69 203.557C689.305 202.58 688.891 201.646 688.446 200.758C688.032 199.869 687.691 199.129 687.424 198.536L685.691 194.981ZM665.43 191.516H668.14C669.384 191.516 670.702 191.516 672.095 191.516C673.517 191.486 674.938 191.471 676.36 191.471C677.782 191.471 679.16 191.471 680.493 191.471C681.826 191.442 683.025 191.427 684.092 191.427L674.894 171.787L665.43 191.516ZM787.222 156.058L786.822 156.235C784.512 154.103 781.727 152.399 778.469 151.125C775.24 149.852 771.685 149.215 767.805 149.215C764.072 149.215 760.651 149.807 757.541 150.992C754.43 152.147 751.749 153.836 749.498 156.058C747.276 158.279 745.543 161.005 744.299 164.233C743.055 167.462 742.433 171.135 742.433 175.253C742.433 179.785 743.026 184.021 744.21 187.961C745.395 191.871 747.158 195.263 749.498 198.136C751.838 201.01 754.756 203.276 758.251 204.935C761.777 206.564 765.879 207.378 770.56 207.378C772.248 207.378 773.937 207.201 775.625 206.845C777.313 206.49 778.928 205.971 780.468 205.29C782.038 204.579 783.505 203.735 784.867 202.757C786.259 201.75 787.518 200.61 788.644 199.336L789.133 199.647L785.578 208.711C783.356 209.57 780.898 210.222 778.202 210.667C775.536 211.14 772.84 211.377 770.115 211.377C764.635 211.377 759.614 210.592 755.052 209.022C750.52 207.423 746.61 205.172 743.322 202.269C740.063 199.366 737.516 195.885 735.679 191.827C733.872 187.739 732.969 183.207 732.969 178.23C732.969 175.416 733.324 172.646 734.035 169.921C734.776 167.196 735.842 164.604 737.234 162.145C738.627 159.686 740.345 157.435 742.389 155.391C744.433 153.318 746.758 151.525 749.365 150.015C752.001 148.504 754.889 147.334 758.029 146.504C761.199 145.645 764.62 145.216 768.293 145.216C774.011 145.216 779.313 146.09 784.201 147.837L787.222 156.058ZM825.746 194.981C824.946 194.981 823.939 194.981 822.725 194.981C821.54 194.981 820.236 194.981 818.814 194.981C817.393 194.981 815.926 194.981 814.416 194.981C812.905 194.981 811.468 194.996 810.105 195.026C808.743 195.026 807.499 195.041 806.373 195.07C805.247 195.07 804.374 195.07 803.751 195.07L802.107 198.536C801.396 199.958 800.789 201.202 800.286 202.269C799.782 203.305 799.367 204.224 799.042 205.023C798.716 205.823 798.479 206.519 798.331 207.112C798.182 207.675 798.108 208.208 798.108 208.711C798.108 209.037 798.123 209.289 798.153 209.467C798.182 209.615 798.227 209.733 798.286 209.822V210H790.466V209.822C790.673 209.615 790.999 209.171 791.443 208.489C791.888 207.778 792.391 206.919 792.954 205.912C793.547 204.905 794.169 203.764 794.82 202.491C795.502 201.217 796.168 199.899 796.82 198.536L814.949 161.123H818.281L836.055 198.536C836.736 199.958 837.417 201.321 838.099 202.624C838.81 203.927 839.461 205.097 840.054 206.134C840.646 207.141 841.165 207.986 841.609 208.667C842.053 209.319 842.349 209.704 842.498 209.822V210H831.123C831.182 209.763 831.211 209.556 831.211 209.378C831.211 209.171 831.211 208.948 831.211 208.711C831.211 208.06 831.063 207.275 830.767 206.356C830.5 205.438 830.16 204.505 829.745 203.557C829.36 202.58 828.945 201.646 828.501 200.758C828.086 199.869 827.746 199.129 827.479 198.536L825.746 194.981ZM805.484 191.516H808.195C809.439 191.516 810.757 191.516 812.149 191.516C813.571 191.486 814.993 191.471 816.415 191.471C817.837 191.471 819.214 191.471 820.547 191.471C821.88 191.442 823.08 191.427 824.146 191.427L814.949 171.787L805.484 191.516ZM890.619 210.622H888.886L853.562 175.875V191.693C853.562 194.359 853.576 196.685 853.606 198.669C853.636 200.654 853.68 202.372 853.739 203.824C853.828 205.246 853.932 206.445 854.05 207.423C854.198 208.4 854.376 209.2 854.583 209.822V210H847.918V209.822C848.126 209.2 848.304 208.4 848.452 207.423C848.6 206.445 848.718 205.246 848.807 203.824C848.896 202.372 848.955 200.654 848.985 198.669C849.014 196.685 849.029 194.359 849.029 191.693V180.496C849.029 177.83 849.014 175.52 848.985 173.564C848.955 171.58 848.896 169.876 848.807 168.455C848.718 167.003 848.6 165.789 848.452 164.811C848.304 163.833 848.126 163.034 847.918 162.412V162.234H850.673L886.042 197.159V180.496C886.042 177.83 886.028 175.52 885.998 173.564C885.968 171.58 885.909 169.876 885.82 168.455C885.761 167.003 885.672 165.789 885.554 164.811C885.435 163.833 885.272 163.034 885.065 162.412V162.234H891.686V162.412C891.478 163.034 891.3 163.833 891.152 164.811C891.034 165.789 890.93 167.003 890.841 168.455C890.752 169.876 890.693 171.58 890.664 173.564C890.634 175.52 890.619 177.83 890.619 180.496V210.622ZM947.05 204.624C947.05 205.009 947.005 205.334 946.917 205.601C946.857 205.868 946.694 206.09 946.428 206.268C944.325 207.749 941.866 208.934 939.052 209.822C936.267 210.681 932.994 211.111 929.232 211.111C924.996 211.111 921.13 210.504 917.635 209.289C914.169 208.075 911.192 206.386 908.704 204.224C906.215 202.032 904.275 199.41 902.883 196.359C901.52 193.308 900.839 189.931 900.839 186.228C900.839 183.058 901.461 179.978 902.705 176.986C903.979 173.994 905.801 171.343 908.17 169.032C910.54 166.722 913.414 164.87 916.791 163.478C920.197 162.086 924.033 161.39 928.299 161.39C930.521 161.39 932.624 161.523 934.608 161.79C936.593 162.027 938.504 162.412 940.34 162.945L943.673 170.943L943.229 171.254C941.451 169.21 939.304 167.596 936.786 166.411C934.268 165.196 931.38 164.589 928.121 164.589C925.455 164.589 922.996 165.018 920.745 165.877C918.523 166.736 916.583 167.995 914.924 169.654C913.295 171.284 912.021 173.298 911.103 175.697C910.185 178.097 909.726 180.822 909.726 183.873C909.726 187.309 910.155 190.494 911.014 193.426C911.873 196.359 913.162 198.906 914.88 201.069C916.598 203.202 918.716 204.875 921.234 206.09C923.781 207.304 926.744 207.912 930.121 207.912C933.024 207.912 935.275 207.541 936.875 206.801C938.504 206.06 939.318 205.216 939.318 204.268V201.913C939.318 200.373 939.304 199.04 939.274 197.914C939.244 196.788 939.2 195.826 939.141 195.026C939.081 194.196 938.993 193.486 938.874 192.893C938.785 192.301 938.667 191.753 938.519 191.249V191.071H947.983V191.249C947.835 191.693 947.701 192.227 947.583 192.849C947.465 193.471 947.361 194.211 947.272 195.07C947.213 195.929 947.153 196.937 947.094 198.092C947.065 199.247 947.05 200.58 947.05 202.091V204.624ZM958.514 180.496C958.514 177.83 958.484 175.52 958.425 173.564C958.366 171.58 958.277 169.876 958.158 168.455C958.069 167.003 957.936 165.789 957.758 164.811C957.61 163.833 957.432 163.034 957.225 162.412V162.234H967.489V162.412C967.282 163.034 967.104 163.833 966.956 164.811C966.808 165.789 966.675 167.003 966.556 168.455C966.467 169.876 966.393 171.58 966.334 173.564C966.275 175.52 966.245 177.83 966.245 180.496V183.429L986.551 166.766C987.677 165.848 988.521 165.033 989.084 164.322C989.676 163.611 989.973 162.915 989.973 162.234H1000.55V162.412C999.215 162.737 997.837 163.33 996.416 164.189C995.023 165.048 993.542 166.129 991.972 167.433L974.243 181.962L992.728 201.158C995.186 203.735 997.26 205.705 998.948 207.067C1000.67 208.4 1001.98 209.319 1002.9 209.822V210H990.817C990.491 209.408 989.795 208.534 988.729 207.378C987.662 206.223 986.255 204.727 984.507 202.891L966.245 183.873V191.693C966.245 194.359 966.275 196.685 966.334 198.669C966.393 200.654 966.467 202.372 966.556 203.824C966.675 205.246 966.808 206.445 966.956 207.423C967.104 208.4 967.282 209.2 967.489 209.822V210H957.225V209.822C957.432 209.2 957.61 208.4 957.758 207.423C957.936 206.445 958.069 205.246 958.158 203.824C958.277 202.372 958.366 200.654 958.425 198.669C958.484 196.685 958.514 194.359 958.514 191.693V180.496ZM1003.48 185.961C1003.48 182.466 1004.13 179.222 1005.44 176.23C1006.77 173.239 1008.58 170.647 1010.86 168.455C1013.14 166.233 1015.83 164.5 1018.94 163.256C1022.05 162.012 1025.39 161.39 1028.94 161.39C1032.44 161.39 1035.72 161.982 1038.81 163.167C1041.92 164.322 1044.61 165.981 1046.89 168.144C1049.2 170.306 1051.02 172.928 1052.36 176.008C1053.69 179.089 1054.36 182.54 1054.36 186.361C1054.36 189.531 1053.79 192.597 1052.67 195.559C1051.54 198.492 1049.9 201.098 1047.74 203.379C1045.57 205.631 1042.91 207.438 1039.74 208.8C1036.57 210.133 1032.94 210.8 1028.85 210.8C1025.39 210.8 1022.11 210.222 1019.03 209.067C1015.95 207.912 1013.26 206.268 1010.95 204.135C1008.63 201.972 1006.81 199.366 1005.48 196.314C1004.15 193.234 1003.48 189.783 1003.48 185.961ZM1029.96 207.645C1032.21 207.645 1034.29 207.201 1036.18 206.312C1038.08 205.423 1039.71 204.15 1041.07 202.491C1042.46 200.832 1043.53 198.818 1044.27 196.448C1045.04 194.048 1045.43 191.353 1045.43 188.361C1045.43 184.954 1045.06 181.799 1044.31 178.896C1043.6 175.993 1042.51 173.49 1041.03 171.387C1039.58 169.254 1037.75 167.596 1035.56 166.411C1033.37 165.196 1030.81 164.589 1027.87 164.589C1025.62 164.589 1023.55 165.018 1021.65 165.877C1019.76 166.736 1018.11 167.981 1016.72 169.61C1015.36 171.239 1014.29 173.239 1013.52 175.608C1012.75 177.978 1012.37 180.674 1012.37 183.695C1012.37 187.072 1012.74 190.227 1013.48 193.16C1014.25 196.063 1015.36 198.595 1016.81 200.758C1018.29 202.891 1020.13 204.579 1022.32 205.823C1024.51 207.038 1027.06 207.645 1029.96 207.645ZM1072.44 206.534C1075.2 206.534 1077.73 206.431 1080.04 206.223C1082.38 205.986 1084.42 205.734 1086.17 205.468C1088.22 205.142 1090.07 204.772 1091.73 204.357L1090.7 210.267C1090.29 210.237 1089.58 210.193 1088.57 210.133C1087.59 210.104 1086.56 210.074 1085.46 210.044C1084.36 210.044 1083.34 210.03 1082.39 210C1081.45 210 1080.79 210 1080.44 210H1063.42V209.822C1063.63 209.2 1063.81 208.4 1063.95 207.423C1064.13 206.445 1064.27 205.246 1064.35 203.824C1064.47 202.372 1064.56 200.654 1064.62 198.669C1064.68 196.685 1064.71 194.359 1064.71 191.693V180.496C1064.71 177.83 1064.68 175.52 1064.62 173.564C1064.56 171.58 1064.47 169.876 1064.35 168.455C1064.27 167.003 1064.13 165.789 1063.95 164.811C1063.81 163.833 1063.63 163.034 1063.42 162.412V162.234H1073.69V162.412C1073.48 163.034 1073.3 163.833 1073.15 164.811C1073 165.789 1072.87 167.003 1072.75 168.455C1072.66 169.876 1072.59 171.58 1072.53 173.564C1072.47 175.52 1072.44 177.83 1072.44 180.496V206.534Z" fill="#EBEBEB"/>
<path d="M46.2288 92.2697L147.942 0L198.251 45.6547L249.4 0L297.58 45.6547L349.839 0L450.446 92.2697V228.917L414.529 210.463V112.851L349.839 53.371L327.661 71.0542L349.839 97.1173V188.054L315.68 179.706V112.851L249.4 53.371L181.082 112.851V179.706L147.942 188.054V92.5955L169.1 71.0542L147.942 53.371L82.6824 112.851V210.463L46.2288 228.917V92.2697Z" fill="#BDAD5C"/>
<path d="M247.247 200.102C403.152 200.285 494.722 254.271 494.722 254.271C494.722 254.271 384.124 173.079 247.247 172.918C110.369 172.758 0 253.69 0 253.69C0 253.69 91.3421 199.919 247.247 200.102Z" fill="#BDAD5C"/>
</svg>
