<svg width="703" height="320" viewBox="0 0 703 320" fill="none" xmlns="http://www.w3.org/2000/svg">
<path d="M109.713 222.563C109.713 222.789 109.682 223.025 109.621 223.271C109.58 223.517 109.467 223.722 109.282 223.886C108.359 224.583 107.354 225.229 106.268 225.824C105.201 226.398 104.042 226.901 102.792 227.331C101.541 227.762 100.187 228.09 98.731 228.316C97.2954 228.562 95.7471 228.685 94.0859 228.685C90.3535 228.685 86.9492 228.141 83.873 227.054C80.7969 225.947 78.1514 224.388 75.9365 222.379C73.7422 220.369 72.04 217.959 70.8301 215.15C69.6201 212.319 69.0151 209.182 69.0151 205.736C69.0151 203.788 69.2612 201.871 69.7534 199.984C70.2661 198.097 71.0044 196.303 71.9683 194.601C72.9321 192.899 74.1216 191.34 75.5366 189.925C76.9517 188.489 78.5615 187.249 80.3662 186.203C82.1914 185.157 84.1909 184.347 86.3647 183.773C88.5591 183.178 90.9277 182.881 93.4707 182.881C94.4551 182.881 95.46 182.932 96.4854 183.034C97.5107 183.116 98.5259 183.25 99.5308 183.434C100.536 183.598 101.5 183.803 102.422 184.049C103.366 184.296 104.258 184.572 105.099 184.88L107.19 190.571L106.944 190.694C106.145 189.976 105.222 189.31 104.176 188.694C103.13 188.079 102.012 187.546 100.823 187.095C99.6333 186.644 98.3823 186.295 97.0698 186.049C95.7778 185.782 94.4653 185.649 93.1323 185.649C90.5483 185.649 88.1797 186.059 86.0264 186.88C83.873 187.679 82.0171 188.848 80.4585 190.386C78.9204 191.924 77.7207 193.811 76.8594 196.047C75.998 198.282 75.5674 200.825 75.5674 203.675C75.5674 206.813 75.9775 209.725 76.7979 212.412C77.6182 215.098 78.8384 217.426 80.4585 219.395C82.0786 221.363 84.0986 222.912 86.5186 224.04C88.959 225.147 91.7993 225.701 95.0396 225.701C96.4751 225.701 97.7568 225.588 98.8848 225.362C100.013 225.137 100.966 224.86 101.746 224.532C102.525 224.183 103.109 223.814 103.499 223.424C103.909 223.014 104.114 222.645 104.114 222.317V221.117C104.114 219.682 104.094 218.441 104.053 217.395C104.012 216.349 103.95 215.447 103.868 214.688C103.786 213.909 103.694 213.242 103.591 212.689C103.489 212.135 103.366 211.622 103.222 211.151V211.027H110.605V211.151C110.482 211.581 110.359 212.094 110.236 212.689C110.133 213.263 110.041 213.95 109.959 214.75C109.877 215.549 109.815 216.493 109.774 217.58C109.733 218.646 109.713 219.887 109.713 221.302V222.563ZM117.28 194.662C119.29 194.662 121.351 194.662 123.463 194.662C125.576 194.642 127.534 194.621 129.339 194.601C131.144 194.56 132.692 194.519 133.984 194.478C135.296 194.437 136.158 194.375 136.568 194.293L135.368 197.615C134.814 197.472 134.189 197.339 133.492 197.215C132.876 197.113 132.128 197.021 131.246 196.939C130.385 196.836 129.38 196.785 128.231 196.785C127.821 196.785 127.35 196.805 126.816 196.846C126.283 196.867 125.771 196.898 125.278 196.939C124.704 196.98 124.12 197.021 123.525 197.062V209.213C125.186 209.192 126.683 209.151 128.016 209.09C129.349 209.028 130.487 208.946 131.431 208.843C132.538 208.761 133.512 208.649 134.353 208.505L133.615 212.166C132.487 212.022 131.349 211.899 130.2 211.797C129.216 211.694 128.129 211.612 126.939 211.55C125.75 211.468 124.612 211.427 123.525 211.427V225.393C125.432 225.393 127.186 225.321 128.785 225.178C130.385 225.014 131.779 224.84 132.969 224.655C134.363 224.429 135.625 224.173 136.752 223.886L136.045 227.916C135.737 227.895 135.235 227.864 134.538 227.823C133.861 227.803 133.143 227.782 132.384 227.762C131.646 227.762 130.949 227.752 130.292 227.731C129.636 227.731 129.185 227.731 128.939 227.731H117.28V227.608C117.424 227.177 117.547 226.624 117.649 225.947C117.772 225.27 117.865 224.44 117.926 223.455C118.008 222.45 118.07 221.261 118.111 219.887C118.152 218.513 118.172 216.903 118.172 215.057V207.305C118.172 205.46 118.152 203.86 118.111 202.507C118.07 201.132 118.008 199.953 117.926 198.969C117.865 197.964 117.772 197.123 117.649 196.446C117.547 195.77 117.424 195.216 117.28 194.785V194.662ZM149.98 196.846C149.959 198.528 149.939 200.158 149.918 201.737C149.918 202.414 149.908 203.111 149.888 203.829C149.888 204.527 149.877 205.224 149.857 205.921C149.857 206.618 149.857 207.285 149.857 207.921C149.857 208.536 149.857 209.09 149.857 209.582C149.857 210.607 149.857 211.848 149.857 213.304C149.877 214.739 149.898 216.216 149.918 217.734C149.939 219.251 149.97 220.717 150.011 222.132C150.052 223.527 150.103 224.696 150.165 225.639C150.37 225.68 150.636 225.721 150.964 225.762C151.292 225.783 151.631 225.814 151.979 225.855C152.349 225.875 152.708 225.896 153.056 225.916C153.405 225.916 153.702 225.916 153.948 225.916C155.076 225.916 156.214 225.844 157.363 225.701C158.532 225.557 159.649 225.291 160.716 224.901C161.803 224.491 162.818 223.937 163.761 223.24C164.705 222.543 165.525 221.651 166.222 220.564C166.94 219.456 167.494 218.133 167.883 216.595C168.293 215.037 168.499 213.201 168.499 211.089C168.499 206.434 167.381 202.845 165.146 200.322C162.931 197.8 159.619 196.539 155.209 196.539C154.779 196.539 154.317 196.549 153.825 196.569C153.354 196.59 152.882 196.621 152.41 196.662C151.938 196.682 151.487 196.713 151.057 196.754C150.646 196.795 150.288 196.826 149.98 196.846ZM143.612 194.601C144.104 194.621 144.566 194.632 144.997 194.632C145.366 194.652 145.725 194.662 146.073 194.662C146.422 194.662 146.678 194.662 146.842 194.662C147.129 194.662 147.642 194.652 148.38 194.632C149.119 194.611 149.949 194.59 150.872 194.57C151.815 194.529 152.8 194.498 153.825 194.478C154.871 194.437 155.835 194.416 156.717 194.416C159.116 194.416 161.403 194.693 163.577 195.247C165.75 195.8 167.658 196.713 169.298 197.985C170.959 199.236 172.272 200.886 173.236 202.937C174.2 204.967 174.682 207.48 174.682 210.474C174.682 213.694 174.128 216.421 173.021 218.656C171.913 220.892 170.416 222.717 168.529 224.132C166.643 225.527 164.448 226.542 161.946 227.177C159.465 227.793 156.84 228.1 154.071 228.1C153.415 228.1 152.595 228.08 151.61 228.039C150.626 227.998 149.621 227.957 148.596 227.916C147.57 227.875 146.596 227.834 145.673 227.793C144.771 227.752 144.084 227.731 143.612 227.731V227.608C143.756 227.177 143.879 226.624 143.981 225.947C144.104 225.27 144.197 224.44 144.258 223.455C144.34 222.45 144.402 221.261 144.443 219.887C144.484 218.513 144.504 216.903 144.504 215.057V207.305C144.504 205.46 144.484 203.85 144.443 202.476C144.402 201.102 144.34 199.912 144.258 198.907C144.197 197.902 144.104 197.062 143.981 196.385C143.879 195.708 143.756 195.154 143.612 194.724V194.601ZM206.52 207.182C206.52 205.357 206.51 203.768 206.489 202.414C206.469 201.061 206.428 199.892 206.366 198.907C206.305 197.923 206.233 197.103 206.151 196.446C206.069 195.77 205.966 195.216 205.843 194.785V194.662H210.365V194.785C210.242 195.216 210.14 195.77 210.058 196.446C209.976 197.123 209.904 197.964 209.842 198.969C209.781 199.953 209.74 201.132 209.719 202.507C209.699 203.86 209.688 205.46 209.688 207.305V216.134C209.688 218.349 209.34 220.236 208.643 221.794C207.966 223.353 207.022 224.634 205.812 225.639C204.603 226.624 203.157 227.341 201.475 227.793C199.814 228.264 197.989 228.5 196 228.5C193.99 228.5 192.124 228.275 190.401 227.823C188.678 227.393 187.181 226.695 185.91 225.732C184.659 224.768 183.664 223.517 182.926 221.979C182.208 220.441 181.849 218.574 181.849 216.38V207.305C181.849 205.46 181.829 203.86 181.788 202.507C181.747 201.132 181.685 199.953 181.603 198.969C181.521 197.964 181.429 197.123 181.326 196.446C181.224 195.77 181.101 195.216 180.957 194.785V194.662H188.063V194.785C187.919 195.216 187.796 195.77 187.694 196.446C187.591 197.103 187.499 197.923 187.417 198.907C187.355 199.892 187.304 201.061 187.263 202.414C187.222 203.768 187.202 205.357 187.202 207.182V216.38C187.202 218.205 187.479 219.713 188.032 220.902C188.586 222.071 189.314 223.004 190.216 223.701C191.119 224.399 192.144 224.891 193.292 225.178C194.441 225.444 195.62 225.578 196.83 225.578C198.061 225.578 199.25 225.444 200.398 225.178C201.567 224.891 202.603 224.399 203.505 223.701C204.428 223.004 205.156 222.071 205.689 220.902C206.243 219.713 206.52 218.205 206.52 216.38V207.182ZM247.925 228.162H246.726L222.27 204.106V215.057C222.27 216.903 222.28 218.513 222.301 219.887C222.321 221.261 222.352 222.45 222.393 223.455C222.455 224.44 222.526 225.27 222.608 225.947C222.711 226.624 222.834 227.177 222.978 227.608V227.731H218.363V227.608C218.507 227.177 218.63 226.624 218.732 225.947C218.835 225.27 218.917 224.44 218.979 223.455C219.04 222.45 219.081 221.261 219.102 219.887C219.122 218.513 219.132 216.903 219.132 215.057V207.305C219.132 205.46 219.122 203.86 219.102 202.507C219.081 201.132 219.04 199.953 218.979 198.969C218.917 197.964 218.835 197.123 218.732 196.446C218.63 195.77 218.507 195.216 218.363 194.785V194.662H220.271L244.757 218.841V207.305C244.757 205.46 244.747 203.86 244.726 202.507C244.706 201.132 244.665 199.953 244.603 198.969C244.562 197.964 244.5 197.123 244.418 196.446C244.336 195.77 244.224 195.216 244.08 194.785V194.662H248.664V194.785C248.52 195.216 248.397 195.77 248.294 196.446C248.212 197.123 248.141 197.964 248.079 198.969C248.018 199.953 247.977 201.132 247.956 202.507C247.936 203.86 247.925 205.46 247.925 207.305V228.162ZM286.993 224.009C286.993 224.276 286.962 224.501 286.9 224.686C286.859 224.87 286.747 225.024 286.562 225.147C285.106 226.173 283.404 226.993 281.456 227.608C279.528 228.203 277.262 228.5 274.657 228.5C271.725 228.5 269.048 228.08 266.628 227.239C264.229 226.398 262.168 225.229 260.445 223.732C258.723 222.215 257.379 220.4 256.416 218.287C255.472 216.175 255 213.837 255 211.274C255 209.079 255.431 206.946 256.292 204.875C257.174 202.804 258.436 200.968 260.076 199.369C261.717 197.769 263.706 196.487 266.044 195.524C268.402 194.56 271.058 194.078 274.011 194.078C275.549 194.078 277.005 194.17 278.379 194.355C279.753 194.519 281.076 194.785 282.348 195.154L284.655 200.692L284.347 200.907C283.117 199.492 281.63 198.374 279.887 197.554C278.144 196.713 276.144 196.293 273.888 196.293C272.042 196.293 270.34 196.59 268.782 197.185C267.244 197.779 265.9 198.651 264.752 199.799C263.624 200.927 262.742 202.322 262.106 203.983C261.471 205.644 261.153 207.531 261.153 209.643C261.153 212.022 261.45 214.227 262.045 216.257C262.64 218.287 263.532 220.051 264.721 221.548C265.911 223.025 267.377 224.183 269.12 225.024C270.884 225.865 272.935 226.285 275.272 226.285C277.282 226.285 278.841 226.029 279.948 225.516C281.076 225.004 281.64 224.419 281.64 223.763V222.132C281.64 221.066 281.63 220.143 281.609 219.364C281.589 218.585 281.558 217.918 281.517 217.364C281.476 216.79 281.415 216.298 281.333 215.888C281.271 215.478 281.189 215.098 281.086 214.75V214.627H287.639V214.75C287.536 215.057 287.444 215.426 287.362 215.857C287.28 216.288 287.208 216.8 287.146 217.395C287.105 217.99 287.064 218.687 287.023 219.487C287.003 220.287 286.993 221.21 286.993 222.256V224.009ZM319.785 208.197C321.794 208.567 323.63 208.608 325.291 208.32C326.973 208.013 328.408 207.377 329.598 206.413C330.808 205.429 331.741 204.106 332.397 202.445C333.074 200.784 333.412 198.754 333.412 196.354C333.412 194.693 333.238 193.186 332.889 191.832C332.541 190.458 332.018 189.299 331.32 188.356C330.644 187.392 329.782 186.654 328.736 186.141C327.69 185.608 326.47 185.341 325.076 185.341C324.194 185.341 323.425 185.382 322.769 185.465C322.112 185.526 321.559 185.598 321.107 185.68C320.574 185.782 320.133 185.895 319.785 186.018V208.197ZM313.294 183.619C313.704 183.66 314.135 183.701 314.586 183.742C314.976 183.783 315.406 183.814 315.878 183.834C316.37 183.834 316.873 183.834 317.385 183.834C318.185 183.834 319.262 183.742 320.615 183.557C321.989 183.352 323.732 183.25 325.845 183.25C327.813 183.25 329.628 183.537 331.29 184.111C332.971 184.685 334.427 185.526 335.658 186.633C336.888 187.741 337.842 189.094 338.519 190.694C339.216 192.273 339.564 194.078 339.564 196.108C339.564 198.836 339.021 201.194 337.934 203.183C336.847 205.173 335.391 206.782 333.566 208.013C331.741 209.243 329.639 210.084 327.26 210.535C324.881 210.966 322.389 210.986 319.785 210.597V215.703C319.785 217.446 319.805 218.974 319.846 220.287C319.908 221.579 319.969 222.696 320.031 223.64C320.113 224.583 320.205 225.373 320.308 226.008C320.431 226.644 320.554 227.177 320.677 227.608V227.731H313.294V227.608C313.417 227.177 313.53 226.644 313.632 226.008C313.755 225.373 313.858 224.583 313.94 223.64C314.022 222.696 314.083 221.579 314.125 220.287C314.166 218.974 314.186 217.446 314.186 215.703V195.677C314.186 193.934 314.166 192.417 314.125 191.125C314.083 189.812 314.022 188.684 313.94 187.741C313.858 186.777 313.755 185.977 313.632 185.341C313.53 184.706 313.417 184.173 313.294 183.742V183.619ZM345.225 194.662C347.234 194.662 349.295 194.662 351.408 194.662C353.52 194.642 355.479 194.621 357.283 194.601C359.088 194.56 360.636 194.519 361.928 194.478C363.241 194.437 364.102 194.375 364.512 194.293L363.312 197.615C362.759 197.472 362.133 197.339 361.436 197.215C360.821 197.113 360.072 197.021 359.19 196.939C358.329 196.836 357.324 196.785 356.176 196.785C355.766 196.785 355.294 196.805 354.761 196.846C354.228 196.867 353.715 196.898 353.223 196.939C352.648 196.98 352.064 197.021 351.469 197.062V209.213C353.13 209.192 354.627 209.151 355.96 209.09C357.293 209.028 358.432 208.946 359.375 208.843C360.482 208.761 361.457 208.649 362.297 208.505L361.559 212.166C360.431 212.022 359.293 211.899 358.145 211.797C357.16 211.694 356.073 211.612 354.884 211.55C353.694 211.468 352.556 211.427 351.469 211.427V225.393C353.376 225.393 355.13 225.321 356.729 225.178C358.329 225.014 359.724 224.84 360.913 224.655C362.308 224.429 363.569 224.173 364.697 223.886L363.989 227.916C363.682 227.895 363.179 227.864 362.482 227.823C361.805 227.803 361.087 227.782 360.329 227.762C359.59 227.762 358.893 227.752 358.237 227.731C357.581 227.731 357.129 227.731 356.883 227.731H345.225V227.608C345.368 227.177 345.491 226.624 345.594 225.947C345.717 225.27 345.809 224.44 345.871 223.455C345.953 222.45 346.014 221.261 346.055 219.887C346.096 218.513 346.117 216.903 346.117 215.057V207.305C346.117 205.46 346.096 203.86 346.055 202.507C346.014 201.132 345.953 199.953 345.871 198.969C345.809 197.964 345.717 197.123 345.594 196.446C345.491 195.77 345.368 195.216 345.225 194.785V194.662ZM377.801 211.673C378.211 211.735 378.622 211.786 379.032 211.827C379.462 211.848 379.873 211.858 380.262 211.858C382.826 211.858 384.764 211.171 386.076 209.797C387.409 208.423 388.076 206.362 388.076 203.614C388.076 201.358 387.542 199.574 386.476 198.261C385.43 196.949 383.882 196.293 381.831 196.293C381.175 196.293 380.59 196.323 380.078 196.385C379.585 196.426 379.165 196.477 378.816 196.539C378.427 196.621 378.088 196.703 377.801 196.785V211.673ZM382.508 213.673C382.098 213.735 381.688 213.776 381.277 213.796C380.888 213.796 380.488 213.796 380.078 213.796C379.75 213.796 379.391 213.786 379.001 213.765C378.611 213.745 378.211 213.714 377.801 213.673V215.18C377.801 217.006 377.822 218.605 377.863 219.979C377.904 221.333 377.955 222.502 378.017 223.486C378.099 224.47 378.191 225.301 378.293 225.978C378.396 226.634 378.519 227.177 378.663 227.608V227.731H371.557V227.608C371.7 227.177 371.823 226.624 371.926 225.947C372.049 225.27 372.141 224.44 372.203 223.455C372.285 222.45 372.346 221.261 372.387 219.887C372.428 218.513 372.449 216.903 372.449 215.057V207.305C372.449 205.46 372.428 203.86 372.387 202.507C372.346 201.132 372.285 199.953 372.203 198.969C372.141 197.964 372.049 197.123 371.926 196.446C371.823 195.77 371.7 195.216 371.557 194.785V194.662C371.885 194.683 372.233 194.703 372.603 194.724C372.91 194.744 373.249 194.765 373.618 194.785C374.007 194.785 374.397 194.785 374.787 194.785C375.443 194.785 376.417 194.724 377.709 194.601C379.001 194.478 380.519 194.416 382.262 194.416C384.025 194.416 385.625 194.632 387.061 195.062C388.517 195.493 389.757 196.108 390.783 196.908C391.829 197.708 392.628 198.682 393.182 199.83C393.756 200.979 394.043 202.26 394.043 203.675C394.043 204.783 393.89 205.798 393.582 206.721C393.274 207.623 392.844 208.444 392.29 209.182C391.736 209.9 391.08 210.535 390.321 211.089C389.562 211.643 388.722 212.125 387.799 212.535L394.228 221.61C394.782 222.348 395.335 223.055 395.889 223.732C396.463 224.409 397.007 225.014 397.52 225.547C398.032 226.08 398.514 226.531 398.965 226.901C399.417 227.249 399.796 227.485 400.104 227.608V227.731H392.044C392.044 227.547 391.911 227.229 391.644 226.777C391.398 226.306 391.101 225.824 390.752 225.332C390.424 224.819 390.085 224.327 389.737 223.855C389.409 223.383 389.163 223.035 388.999 222.809L382.508 213.673ZM410.532 196.939C408.666 196.939 406.963 197.021 405.425 197.185C403.908 197.349 402.595 197.523 401.488 197.708C400.216 197.933 399.068 198.179 398.042 198.446L398.658 194.478C398.965 194.519 399.468 194.549 400.165 194.57C400.862 194.59 401.59 194.611 402.349 194.632C403.128 194.632 403.856 194.642 404.533 194.662C405.23 194.662 405.712 194.662 405.979 194.662H420.529C420.775 194.662 421.227 194.662 421.883 194.662C422.56 194.642 423.277 194.632 424.036 194.632C424.795 194.611 425.523 194.59 426.22 194.57C426.917 194.549 427.42 194.519 427.728 194.478L428.343 198.446C427.358 198.179 426.23 197.933 424.959 197.708C423.872 197.523 422.56 197.349 421.021 197.185C419.504 197.021 417.792 196.939 415.884 196.939V215.057C415.884 216.903 415.905 218.513 415.946 219.887C415.987 221.261 416.038 222.45 416.1 223.455C416.182 224.44 416.274 225.27 416.376 225.947C416.479 226.624 416.602 227.177 416.746 227.608V227.731H409.64V227.608C409.783 227.177 409.906 226.624 410.009 225.947C410.111 225.27 410.204 224.44 410.286 223.455C410.368 222.45 410.429 221.261 410.47 219.887C410.511 218.513 410.532 216.903 410.532 215.057V196.939ZM432.403 194.662C434.413 194.662 436.474 194.662 438.586 194.662C440.699 194.642 442.657 194.621 444.462 194.601C446.267 194.56 447.815 194.519 449.107 194.478C450.419 194.437 451.281 194.375 451.691 194.293L450.491 197.615C449.938 197.472 449.312 197.339 448.615 197.215C448 197.113 447.251 197.021 446.369 196.939C445.508 196.836 444.503 196.785 443.354 196.785C442.944 196.785 442.473 196.805 441.939 196.846C441.406 196.867 440.894 196.898 440.401 196.939C439.827 196.98 439.243 197.021 438.648 197.062V209.213C440.309 209.192 441.806 209.151 443.139 209.09C444.472 209.028 445.61 208.946 446.554 208.843C447.661 208.761 448.635 208.649 449.476 208.505L448.738 212.166C447.61 212.022 446.472 211.899 445.323 211.797C444.339 211.694 443.252 211.612 442.062 211.55C440.873 211.468 439.735 211.427 438.648 211.427V225.393C440.555 225.393 442.309 225.321 443.908 225.178C445.508 225.014 446.902 224.84 448.092 224.655C449.486 224.429 450.748 224.173 451.875 223.886L451.168 227.916C450.86 227.895 450.358 227.864 449.661 227.823C448.984 227.803 448.266 227.782 447.507 227.762C446.769 227.762 446.072 227.752 445.416 227.731C444.759 227.731 444.308 227.731 444.062 227.731H432.403V227.608C432.547 227.177 432.67 226.624 432.772 225.947C432.896 225.27 432.988 224.44 433.049 223.455C433.131 222.45 433.193 221.261 433.234 219.887C433.275 218.513 433.295 216.903 433.295 215.057V207.305C433.295 205.46 433.275 203.86 433.234 202.507C433.193 201.132 433.131 199.953 433.049 198.969C432.988 197.964 432.896 197.123 432.772 196.446C432.67 195.77 432.547 195.216 432.403 194.785V194.662ZM456.582 227.608C456.849 227.321 457.115 226.798 457.382 226.039C457.669 225.28 457.895 224.46 458.059 223.578C458.305 222.143 458.571 220.512 458.858 218.687C459.166 216.841 459.463 214.944 459.75 212.996C460.058 211.048 460.355 209.11 460.643 207.182C460.93 205.234 461.196 203.429 461.442 201.768C461.688 200.107 461.894 198.651 462.058 197.4C462.222 196.149 462.334 195.236 462.396 194.662H466.057L480.73 220.933L495.772 194.662H498.756L502.448 220.348C502.632 221.517 502.807 222.512 502.971 223.332C503.155 224.152 503.33 224.85 503.494 225.424C503.658 225.978 503.822 226.429 503.986 226.777C504.15 227.126 504.293 227.403 504.417 227.608V227.731H496.849V227.608C496.911 227.444 496.982 227.167 497.064 226.777C497.167 226.388 497.218 225.926 497.218 225.393C497.218 225.045 497.188 224.542 497.126 223.886C497.085 223.23 497.013 222.584 496.911 221.948L494.265 203.091L480.269 227.67L478.084 227.362L464.334 202.906C463.821 206.352 463.37 209.541 462.98 212.473C462.816 213.724 462.652 214.975 462.488 216.226C462.324 217.477 462.181 218.656 462.058 219.764C461.935 220.851 461.832 221.815 461.75 222.655C461.668 223.496 461.627 224.122 461.627 224.532C461.627 225.045 461.637 225.496 461.658 225.885C461.678 226.255 461.709 226.583 461.75 226.87C461.791 227.198 461.832 227.485 461.873 227.731H456.582V227.608ZM536.286 207.182C536.286 205.357 536.275 203.768 536.255 202.414C536.234 201.061 536.193 199.892 536.132 198.907C536.07 197.923 535.999 197.103 535.917 196.446C535.834 195.77 535.732 195.216 535.609 194.785V194.662H540.131V194.785C540.008 195.216 539.905 195.77 539.823 196.446C539.741 197.123 539.669 197.964 539.608 198.969C539.546 199.953 539.505 201.132 539.485 202.507C539.464 203.86 539.454 205.46 539.454 207.305V216.134C539.454 218.349 539.105 220.236 538.408 221.794C537.731 223.353 536.788 224.634 535.578 225.639C534.368 226.624 532.922 227.341 531.241 227.793C529.58 228.264 527.754 228.5 525.765 228.5C523.755 228.5 521.889 228.275 520.167 227.823C518.444 227.393 516.947 226.695 515.675 225.732C514.424 224.768 513.43 223.517 512.691 221.979C511.974 220.441 511.615 218.574 511.615 216.38V207.305C511.615 205.46 511.594 203.86 511.553 202.507C511.512 201.132 511.451 199.953 511.369 198.969C511.287 197.964 511.194 197.123 511.092 196.446C510.989 195.77 510.866 195.216 510.723 194.785V194.662H517.829V194.785C517.685 195.216 517.562 195.77 517.459 196.446C517.357 197.103 517.265 197.923 517.183 198.907C517.121 199.892 517.07 201.061 517.029 202.414C516.988 203.768 516.967 205.357 516.967 207.182V216.38C516.967 218.205 517.244 219.713 517.798 220.902C518.352 222.071 519.08 223.004 519.982 223.701C520.884 224.399 521.91 224.891 523.058 225.178C524.207 225.444 525.386 225.578 526.596 225.578C527.826 225.578 529.016 225.444 530.164 225.178C531.333 224.891 532.369 224.399 533.271 223.701C534.194 223.004 534.922 222.071 535.455 220.902C536.009 219.713 536.286 218.205 536.286 216.38V207.182ZM567.909 217.334C567.355 217.334 566.658 217.334 565.817 217.334C564.997 217.334 564.094 217.334 563.11 217.334C562.125 217.334 561.11 217.334 560.064 217.334C559.019 217.334 558.024 217.344 557.081 217.364C556.137 217.364 555.276 217.375 554.497 217.395C553.717 217.395 553.112 217.395 552.682 217.395L551.543 219.795C551.051 220.779 550.631 221.64 550.282 222.379C549.934 223.096 549.646 223.732 549.421 224.286C549.195 224.84 549.031 225.321 548.929 225.732C548.826 226.121 548.775 226.49 548.775 226.839C548.775 227.065 548.785 227.239 548.806 227.362C548.826 227.465 548.857 227.547 548.898 227.608V227.731H543.484V227.608C543.627 227.465 543.853 227.157 544.161 226.685C544.468 226.193 544.817 225.598 545.207 224.901C545.617 224.204 546.047 223.414 546.499 222.532C546.97 221.651 547.432 220.738 547.883 219.795L560.434 193.893H562.741L575.045 219.795C575.517 220.779 575.989 221.722 576.46 222.625C576.953 223.527 577.404 224.337 577.814 225.055C578.224 225.752 578.583 226.337 578.891 226.808C579.198 227.259 579.403 227.526 579.506 227.608V227.731H571.631C571.672 227.567 571.692 227.423 571.692 227.3C571.692 227.157 571.692 227.003 571.692 226.839C571.692 226.388 571.59 225.844 571.385 225.209C571.2 224.573 570.964 223.927 570.677 223.271C570.411 222.594 570.124 221.948 569.816 221.333C569.529 220.717 569.293 220.205 569.108 219.795L567.909 217.334ZM553.881 214.934H555.758C556.619 214.934 557.532 214.934 558.496 214.934C559.48 214.914 560.464 214.903 561.449 214.903C562.433 214.903 563.387 214.903 564.31 214.903C565.232 214.883 566.063 214.873 566.801 214.873L560.434 201.276L553.881 214.934ZM612.821 228.162H611.621L587.166 204.106V215.057C587.166 216.903 587.176 218.513 587.196 219.887C587.217 221.261 587.248 222.45 587.289 223.455C587.35 224.44 587.422 225.27 587.504 225.947C587.606 226.624 587.729 227.177 587.873 227.608V227.731H583.259V227.608C583.402 227.177 583.525 226.624 583.628 225.947C583.73 225.27 583.812 224.44 583.874 223.455C583.936 222.45 583.977 221.261 583.997 219.887C584.018 218.513 584.028 216.903 584.028 215.057V207.305C584.028 205.46 584.018 203.86 583.997 202.507C583.977 201.132 583.936 199.953 583.874 198.969C583.812 197.964 583.73 197.123 583.628 196.446C583.525 195.77 583.402 195.216 583.259 194.785V194.662H585.166L609.652 218.841V207.305C609.652 205.46 609.642 203.86 609.622 202.507C609.601 201.132 609.56 199.953 609.499 198.969C609.458 197.964 609.396 197.123 609.314 196.446C609.232 195.77 609.119 195.216 608.976 194.785V194.662H613.559V194.785C613.416 195.216 613.292 195.77 613.19 196.446C613.108 197.123 613.036 197.964 612.975 198.969C612.913 199.953 612.872 201.132 612.852 202.507C612.831 203.86 612.821 205.46 612.821 207.305V228.162ZM162.008 244.264C161.967 246.561 161.926 248.786 161.885 250.94C161.864 251.862 161.844 252.806 161.823 253.77C161.823 254.734 161.813 255.687 161.792 256.631C161.792 257.553 161.782 258.445 161.762 259.307C161.762 260.148 161.762 260.896 161.762 261.552C161.762 262.926 161.772 264.588 161.792 266.536C161.813 268.484 161.833 270.484 161.854 272.534C161.895 274.585 161.946 276.554 162.008 278.441C162.069 280.327 162.141 281.896 162.223 283.147C162.51 283.188 162.89 283.239 163.361 283.301C163.854 283.342 164.366 283.383 164.899 283.424C165.433 283.444 165.956 283.465 166.468 283.486C166.981 283.506 167.412 283.516 167.76 283.516C169.196 283.516 170.662 283.424 172.159 283.239C173.677 283.034 175.133 282.665 176.527 282.132C177.942 281.599 179.265 280.871 180.496 279.948C181.747 279.005 182.833 277.795 183.756 276.318C184.7 274.841 185.438 273.068 185.971 270.996C186.504 268.904 186.771 266.444 186.771 263.613C186.771 260.476 186.392 257.687 185.633 255.246C184.874 252.785 183.756 250.714 182.28 249.032C180.824 247.351 179.009 246.079 176.835 245.218C174.682 244.336 172.2 243.895 169.391 243.895C168.837 243.895 168.211 243.916 167.514 243.957C166.817 243.977 166.12 244.008 165.422 244.049C164.746 244.069 164.1 244.111 163.484 244.172C162.89 244.213 162.397 244.244 162.008 244.264ZM155.271 241.496C155.743 241.516 156.184 241.537 156.594 241.557C156.942 241.578 157.301 241.598 157.67 241.619C158.04 241.619 158.337 241.619 158.562 241.619C158.952 241.619 159.598 241.598 160.5 241.557C161.423 241.516 162.469 241.475 163.638 241.434C164.807 241.393 166.017 241.352 167.268 241.311C168.54 241.27 169.729 241.25 170.836 241.25C173.81 241.25 176.64 241.619 179.327 242.357C182.013 243.095 184.372 244.305 186.402 245.987C188.432 247.669 190.042 249.873 191.231 252.601C192.421 255.328 193.016 258.681 193.016 262.66C193.016 265.51 192.698 268.074 192.062 270.35C191.447 272.627 190.575 274.636 189.447 276.38C188.319 278.123 186.966 279.62 185.387 280.871C183.828 282.101 182.095 283.116 180.188 283.916C178.301 284.716 176.281 285.3 174.128 285.67C171.975 286.039 169.75 286.223 167.453 286.223C166.632 286.223 165.638 286.193 164.469 286.131C163.32 286.09 162.162 286.039 160.993 285.977C159.824 285.916 158.716 285.854 157.67 285.793C156.645 285.752 155.845 285.731 155.271 285.731V285.608C155.394 285.177 155.507 284.644 155.609 284.008C155.732 283.373 155.835 282.583 155.917 281.64C155.999 280.696 156.061 279.579 156.102 278.287C156.143 276.974 156.163 275.446 156.163 273.703V253.677C156.163 251.934 156.143 250.406 156.102 249.094C156.061 247.761 155.999 246.623 155.917 245.679C155.835 244.715 155.732 243.905 155.609 243.249C155.507 242.593 155.394 242.049 155.271 241.619V241.496ZM199.875 252.662C201.885 252.662 203.946 252.662 206.059 252.662C208.171 252.642 210.129 252.621 211.934 252.601C213.739 252.56 215.287 252.519 216.579 252.478C217.892 252.437 218.753 252.375 219.163 252.293L217.963 255.615C217.41 255.472 216.784 255.339 216.087 255.215C215.472 255.113 214.723 255.021 213.841 254.939C212.98 254.836 211.975 254.785 210.827 254.785C210.417 254.785 209.945 254.805 209.412 254.846C208.878 254.867 208.366 254.898 207.874 254.939C207.299 254.98 206.715 255.021 206.12 255.062V267.213C207.781 267.192 209.278 267.151 210.611 267.09C211.944 267.028 213.083 266.946 214.026 266.843C215.133 266.761 216.107 266.649 216.948 266.505L216.21 270.166C215.082 270.022 213.944 269.899 212.795 269.797C211.811 269.694 210.724 269.612 209.535 269.55C208.345 269.468 207.207 269.427 206.12 269.427V283.393C208.027 283.393 209.781 283.321 211.38 283.178C212.98 283.014 214.375 282.84 215.564 282.655C216.958 282.429 218.22 282.173 219.348 281.886L218.64 285.916C218.333 285.895 217.83 285.864 217.133 285.823C216.456 285.803 215.738 285.782 214.979 285.762C214.241 285.762 213.544 285.752 212.888 285.731C212.231 285.731 211.78 285.731 211.534 285.731H199.875V285.608C200.019 285.177 200.142 284.624 200.245 283.947C200.368 283.27 200.46 282.44 200.521 281.455C200.604 280.45 200.665 279.261 200.706 277.887C200.747 276.513 200.768 274.903 200.768 273.057V265.305C200.768 263.46 200.747 261.86 200.706 260.507C200.665 259.132 200.604 257.953 200.521 256.969C200.46 255.964 200.368 255.123 200.245 254.446C200.142 253.77 200.019 253.216 199.875 252.785V252.662ZM241.188 259.091H240.573C240.45 258.743 240.245 258.302 239.958 257.769C239.691 257.236 239.322 256.713 238.851 256.2C238.399 255.687 237.835 255.257 237.159 254.908C236.482 254.539 235.672 254.354 234.729 254.354C234.011 254.354 233.365 254.477 232.791 254.723C232.237 254.949 231.765 255.267 231.375 255.677C230.986 256.087 230.688 256.579 230.483 257.153C230.278 257.707 230.176 258.312 230.176 258.968C230.176 260.035 230.494 261.05 231.129 262.014C231.786 262.978 232.596 263.942 233.56 264.905C234.523 265.849 235.569 266.802 236.697 267.766C237.825 268.73 238.871 269.735 239.835 270.781C240.799 271.827 241.599 272.934 242.234 274.103C242.891 275.272 243.219 276.523 243.219 277.856C243.219 278.84 243.034 279.856 242.665 280.902C242.316 281.947 241.742 282.891 240.942 283.732C240.143 284.572 239.117 285.259 237.866 285.793C236.615 286.346 235.098 286.623 233.313 286.623C232.329 286.623 231.386 286.541 230.483 286.377C229.602 286.213 228.781 286.008 228.022 285.762C227.284 285.536 226.618 285.29 226.023 285.024C225.449 284.736 224.967 284.47 224.577 284.224L225.131 278.41H225.777C225.982 279.128 226.279 279.845 226.669 280.563C227.079 281.281 227.571 281.937 228.146 282.532C228.74 283.106 229.427 283.578 230.207 283.947C231.006 284.296 231.919 284.47 232.944 284.47C233.662 284.47 234.339 284.357 234.975 284.132C235.61 283.885 236.154 283.547 236.605 283.116C237.077 282.686 237.446 282.163 237.712 281.548C237.979 280.912 238.112 280.204 238.112 279.425C238.112 278.502 237.928 277.651 237.559 276.872C237.189 276.072 236.697 275.313 236.082 274.595C235.467 273.857 234.77 273.15 233.99 272.473C233.231 271.796 232.442 271.109 231.622 270.412C230.801 269.715 230.001 269.007 229.222 268.289C228.463 267.551 227.776 266.761 227.161 265.921C226.546 265.08 226.054 264.188 225.685 263.244C225.315 262.28 225.131 261.224 225.131 260.076C225.131 258.866 225.387 257.779 225.9 256.815C226.413 255.851 227.089 255.041 227.93 254.385C228.771 253.708 229.735 253.195 230.822 252.847C231.909 252.478 233.037 252.293 234.206 252.293C235.067 252.293 235.867 252.355 236.605 252.478C237.364 252.601 238.041 252.755 238.635 252.939C239.25 253.103 239.784 253.277 240.235 253.462C240.686 253.626 241.055 253.759 241.342 253.862L241.188 259.091ZM269.735 275.334C269.182 275.334 268.484 275.334 267.644 275.334C266.823 275.334 265.921 275.334 264.937 275.334C263.952 275.334 262.937 275.334 261.891 275.334C260.845 275.334 259.851 275.344 258.907 275.364C257.964 275.364 257.103 275.375 256.323 275.395C255.544 275.395 254.939 275.395 254.508 275.395L253.37 277.795C252.878 278.779 252.458 279.64 252.109 280.379C251.76 281.096 251.473 281.732 251.248 282.286C251.022 282.84 250.858 283.321 250.755 283.732C250.653 284.121 250.602 284.49 250.602 284.839C250.602 285.065 250.612 285.239 250.632 285.362C250.653 285.465 250.684 285.547 250.725 285.608V285.731H245.311V285.608C245.454 285.465 245.68 285.157 245.987 284.685C246.295 284.193 246.644 283.598 247.033 282.901C247.443 282.204 247.874 281.414 248.325 280.532C248.797 279.651 249.258 278.738 249.709 277.795L262.26 251.893H264.567L276.872 277.795C277.344 278.779 277.815 279.722 278.287 280.625C278.779 281.527 279.23 282.337 279.641 283.055C280.051 283.752 280.41 284.337 280.717 284.808C281.025 285.259 281.23 285.526 281.333 285.608V285.731H273.458C273.499 285.567 273.519 285.423 273.519 285.3C273.519 285.157 273.519 285.003 273.519 284.839C273.519 284.388 273.417 283.844 273.211 283.209C273.027 282.573 272.791 281.927 272.504 281.271C272.237 280.594 271.95 279.948 271.643 279.333C271.355 278.717 271.12 278.205 270.935 277.795L269.735 275.334ZM255.708 272.934H257.584C258.446 272.934 259.358 272.934 260.322 272.934C261.307 272.914 262.291 272.903 263.275 272.903C264.26 272.903 265.213 272.903 266.136 272.903C267.059 272.883 267.89 272.873 268.628 272.873L262.26 259.276L255.708 272.934ZM340.026 248.386L339.749 248.509C338.149 247.033 336.222 245.854 333.966 244.972C331.73 244.09 329.27 243.649 326.583 243.649C323.999 243.649 321.63 244.059 319.477 244.88C317.324 245.679 315.468 246.848 313.909 248.386C312.371 249.924 311.171 251.811 310.31 254.047C309.449 256.282 309.018 258.825 309.018 261.675C309.018 264.813 309.428 267.746 310.249 270.473C311.069 273.18 312.289 275.528 313.909 277.518C315.529 279.507 317.549 281.076 319.969 282.224C322.41 283.352 325.25 283.916 328.49 283.916C329.659 283.916 330.828 283.793 331.997 283.547C333.166 283.301 334.284 282.942 335.35 282.47C336.437 281.978 337.452 281.394 338.396 280.717C339.359 280.02 340.231 279.23 341.01 278.348L341.349 278.564L338.888 284.839C337.35 285.434 335.647 285.885 333.781 286.193C331.936 286.521 330.069 286.685 328.183 286.685C324.389 286.685 320.913 286.141 317.754 285.054C314.617 283.947 311.91 282.388 309.633 280.379C307.377 278.369 305.614 275.959 304.342 273.15C303.091 270.319 302.466 267.182 302.466 263.736C302.466 261.788 302.712 259.871 303.204 257.984C303.717 256.097 304.455 254.303 305.419 252.601C306.383 250.899 307.572 249.34 308.987 247.925C310.402 246.489 312.012 245.249 313.817 244.203C315.642 243.157 317.642 242.347 319.815 241.773C322.01 241.178 324.378 240.881 326.921 240.881C330.879 240.881 334.55 241.486 337.934 242.695L340.026 248.386ZM366.696 275.334C366.143 275.334 365.445 275.334 364.604 275.334C363.784 275.334 362.882 275.334 361.897 275.334C360.913 275.334 359.898 275.334 358.852 275.334C357.806 275.334 356.812 275.344 355.868 275.364C354.925 275.364 354.063 275.375 353.284 275.395C352.505 275.395 351.9 275.395 351.469 275.395L350.331 277.795C349.839 278.779 349.418 279.64 349.07 280.379C348.721 281.096 348.434 281.732 348.208 282.286C347.983 282.84 347.819 283.321 347.716 283.732C347.614 284.121 347.562 284.49 347.562 284.839C347.562 285.065 347.573 285.239 347.593 285.362C347.614 285.465 347.645 285.547 347.686 285.608V285.731H342.271V285.608C342.415 285.465 342.641 285.157 342.948 284.685C343.256 284.193 343.604 283.598 343.994 282.901C344.404 282.204 344.835 281.414 345.286 280.532C345.758 279.651 346.219 278.738 346.67 277.795L359.221 251.893H361.528L373.833 277.795C374.305 278.779 374.776 279.722 375.248 280.625C375.74 281.527 376.191 282.337 376.602 283.055C377.012 283.752 377.371 284.337 377.678 284.808C377.986 285.259 378.191 285.526 378.293 285.608V285.731H370.418C370.459 285.567 370.48 285.423 370.48 285.3C370.48 285.157 370.48 285.003 370.48 284.839C370.48 284.388 370.377 283.844 370.172 283.209C369.988 282.573 369.752 281.927 369.465 281.271C369.198 280.594 368.911 279.948 368.604 279.333C368.316 278.717 368.081 278.205 367.896 277.795L366.696 275.334ZM352.669 272.934H354.545C355.407 272.934 356.319 272.934 357.283 272.934C358.268 272.914 359.252 272.903 360.236 272.903C361.221 272.903 362.174 272.903 363.097 272.903C364.02 272.883 364.851 272.873 365.589 272.873L359.221 259.276L352.669 272.934ZM411.608 286.162H410.409L385.953 262.106V273.057C385.953 274.903 385.963 276.513 385.984 277.887C386.004 279.261 386.035 280.45 386.076 281.455C386.138 282.44 386.209 283.27 386.292 283.947C386.394 284.624 386.517 285.177 386.661 285.608V285.731H382.046V285.608C382.19 285.177 382.313 284.624 382.416 283.947C382.518 283.27 382.6 282.44 382.662 281.455C382.723 280.45 382.764 279.261 382.785 277.887C382.805 276.513 382.815 274.903 382.815 273.057V265.305C382.815 263.46 382.805 261.86 382.785 260.507C382.764 259.132 382.723 257.953 382.662 256.969C382.6 255.964 382.518 255.123 382.416 254.446C382.313 253.77 382.19 253.216 382.046 252.785V252.662H383.954L408.44 276.841V265.305C408.44 263.46 408.43 261.86 408.409 260.507C408.389 259.132 408.348 257.953 408.286 256.969C408.245 255.964 408.184 255.123 408.102 254.446C408.02 253.77 407.907 253.216 407.763 252.785V252.662H412.347V252.785C412.203 253.216 412.08 253.77 411.978 254.446C411.896 255.123 411.824 255.964 411.762 256.969C411.701 257.953 411.66 259.132 411.639 260.507C411.619 261.86 411.608 263.46 411.608 265.305V286.162ZM450.676 282.009C450.676 282.276 450.645 282.501 450.583 282.686C450.542 282.87 450.43 283.024 450.245 283.147C448.789 284.173 447.087 284.993 445.139 285.608C443.211 286.203 440.945 286.5 438.34 286.5C435.408 286.5 432.731 286.08 430.312 285.239C427.912 284.398 425.851 283.229 424.128 281.732C422.406 280.215 421.062 278.4 420.099 276.287C419.155 274.175 418.684 271.837 418.684 269.274C418.684 267.079 419.114 264.946 419.976 262.875C420.857 260.804 422.119 258.968 423.759 257.369C425.4 255.769 427.389 254.487 429.727 253.524C432.085 252.56 434.741 252.078 437.694 252.078C439.232 252.078 440.688 252.17 442.062 252.355C443.437 252.519 444.759 252.785 446.031 253.154L448.338 258.692L448.03 258.907C446.8 257.492 445.313 256.374 443.57 255.554C441.827 254.713 439.827 254.293 437.571 254.293C435.726 254.293 434.023 254.59 432.465 255.185C430.927 255.779 429.583 256.651 428.435 257.799C427.307 258.927 426.425 260.322 425.79 261.983C425.154 263.644 424.836 265.531 424.836 267.643C424.836 270.022 425.133 272.227 425.728 274.257C426.323 276.287 427.215 278.051 428.404 279.548C429.594 281.025 431.06 282.183 432.803 283.024C434.567 283.865 436.618 284.285 438.956 284.285C440.965 284.285 442.524 284.029 443.631 283.516C444.759 283.004 445.323 282.419 445.323 281.763V280.132C445.323 279.066 445.313 278.143 445.292 277.364C445.272 276.585 445.241 275.918 445.2 275.364C445.159 274.79 445.098 274.298 445.016 273.888C444.954 273.478 444.872 273.098 444.77 272.75V272.627H451.322V272.75C451.219 273.057 451.127 273.426 451.045 273.857C450.963 274.288 450.891 274.8 450.83 275.395C450.789 275.99 450.748 276.687 450.707 277.487C450.686 278.287 450.676 279.21 450.676 280.256V282.009ZM458.612 265.305C458.612 263.46 458.592 261.86 458.551 260.507C458.51 259.132 458.448 257.953 458.366 256.969C458.305 255.964 458.212 255.123 458.089 254.446C457.987 253.77 457.864 253.216 457.72 252.785V252.662H464.826V252.785C464.683 253.216 464.56 253.77 464.457 254.446C464.354 255.123 464.262 255.964 464.18 256.969C464.119 257.953 464.067 259.132 464.026 260.507C463.985 261.86 463.965 263.46 463.965 265.305V267.336L478.023 255.8C478.802 255.164 479.387 254.6 479.776 254.108C480.187 253.616 480.392 253.134 480.392 252.662H487.713V252.785C486.79 253.011 485.836 253.421 484.852 254.016C483.888 254.611 482.863 255.359 481.776 256.261L469.502 266.32L482.299 279.61C484.001 281.394 485.437 282.757 486.605 283.701C487.795 284.624 488.708 285.259 489.343 285.608V285.731H480.976C480.75 285.321 480.269 284.716 479.53 283.916C478.792 283.116 477.818 282.081 476.608 280.809L463.965 267.643V273.057C463.965 274.903 463.985 276.513 464.026 277.887C464.067 279.261 464.119 280.45 464.18 281.455C464.262 282.44 464.354 283.27 464.457 283.947C464.56 284.624 464.683 285.177 464.826 285.608V285.731H457.72V285.608C457.864 285.177 457.987 284.624 458.089 283.947C458.212 283.27 458.305 282.44 458.366 281.455C458.448 280.45 458.51 279.261 458.551 277.887C458.592 276.513 458.612 274.903 458.612 273.057V265.305ZM489.743 269.089C489.743 266.669 490.194 264.423 491.097 262.352C492.02 260.281 493.271 258.486 494.85 256.969C496.429 255.431 498.295 254.231 500.448 253.37C502.602 252.508 504.909 252.078 507.37 252.078C509.79 252.078 512.066 252.488 514.199 253.308C516.352 254.108 518.218 255.257 519.797 256.754C521.397 258.251 522.658 260.066 523.581 262.198C524.504 264.331 524.965 266.72 524.965 269.366C524.965 271.56 524.576 273.683 523.796 275.734C523.017 277.764 521.879 279.569 520.382 281.148C518.885 282.706 517.039 283.957 514.845 284.901C512.65 285.823 510.138 286.285 507.308 286.285C504.909 286.285 502.643 285.885 500.51 285.085C498.377 284.285 496.511 283.147 494.911 281.671C493.312 280.173 492.05 278.369 491.127 276.257C490.205 274.124 489.743 271.735 489.743 269.089ZM508.077 284.101C509.636 284.101 511.071 283.793 512.384 283.178C513.696 282.563 514.824 281.681 515.768 280.532C516.731 279.384 517.47 277.989 517.982 276.349C518.516 274.688 518.782 272.821 518.782 270.75C518.782 268.392 518.526 266.208 518.013 264.198C517.521 262.188 516.762 260.455 515.737 258.999C514.732 257.523 513.471 256.374 511.953 255.554C510.436 254.713 508.662 254.293 506.631 254.293C505.073 254.293 503.637 254.59 502.325 255.185C501.012 255.779 499.874 256.641 498.91 257.769C497.967 258.897 497.229 260.281 496.695 261.922C496.162 263.562 495.896 265.428 495.896 267.52C495.896 269.858 496.152 272.042 496.665 274.072C497.198 276.082 497.967 277.836 498.972 279.333C499.997 280.809 501.269 281.978 502.786 282.84C504.304 283.68 506.067 284.101 508.077 284.101ZM537.485 283.332C539.393 283.332 541.146 283.26 542.746 283.116C544.366 282.952 545.781 282.778 546.991 282.593C548.406 282.368 549.688 282.111 550.836 281.824L550.128 285.916C549.841 285.895 549.349 285.864 548.652 285.823C547.975 285.803 547.257 285.782 546.499 285.762C545.74 285.762 545.032 285.752 544.376 285.731C543.72 285.731 543.269 285.731 543.022 285.731H531.241V285.608C531.384 285.177 531.507 284.624 531.61 283.947C531.733 283.27 531.825 282.44 531.887 281.455C531.969 280.45 532.03 279.261 532.071 277.887C532.112 276.513 532.133 274.903 532.133 273.057V265.305C532.133 263.46 532.112 261.86 532.071 260.507C532.03 259.132 531.969 257.953 531.887 256.969C531.825 255.964 531.733 255.123 531.61 254.446C531.507 253.77 531.384 253.216 531.241 252.785V252.662H538.347V252.785C538.203 253.216 538.08 253.77 537.978 254.446C537.875 255.123 537.783 255.964 537.701 256.969C537.639 257.953 537.588 259.132 537.547 260.507C537.506 261.86 537.485 263.46 537.485 265.305V283.332Z" fill="#EBEBEB"/>
<path d="M202.148 65.8659L274.755 0L310.668 32.5902L347.18 0L381.573 32.5902L418.878 0L490.695 65.8659V157.921L465.056 146.63V80.5576L418.878 38.0984L403.046 50.7214L418.878 69.3263V134.241L394.493 128.282V80.5576L347.18 38.0984L298.412 80.5576V128.282L274.755 134.241V66.0985L289.859 50.7214L274.755 38.0984L228.17 80.5576V150.237L202.148 163.41V65.8659Z" fill="#E7EE32"/>
<path d="M351.606 139.382C459.183 139.506 522.367 177.306 522.367 177.306C522.367 177.306 446.053 120.456 351.606 120.347C257.158 120.238 181 176.912 181 176.912C181 176.912 244.029 139.258 351.606 139.382Z" fill="#E7EE32"/>
</svg>
