<svg width="1318" height="965" viewBox="0 0 1318 965" fill="none" xmlns="http://www.w3.org/2000/svg">
<path d="M782.075 453.671C763.466 478.256 740.469 487.91 710.737 500.391C709.374 500.964 707.996 501.542 706.604 502.128C674.863 515.49 635.766 532.795 586.859 574.392C565.743 592.353 563.622 623.038 573.832 648.635C590.323 689.974 586.199 719.92 571.546 739.257C556.878 758.613 531.559 767.478 505.378 766.431C479.202 765.383 452.254 754.426 434.397 734.257C416.556 714.108 407.745 684.718 417.903 646.689C418.69 643.741 419.188 640.546 419.341 637.498C420.412 616.04 427.313 598.315 433.992 581.163C435.819 576.472 437.629 571.823 439.298 567.153C447.068 545.418 451.735 523.314 440.567 494.565C433.575 476.567 426.85 456.848 425.868 438.975C424.887 421.126 429.633 405.193 445.512 394.623C470.035 378.299 504.178 368.603 547.726 362.369C591.268 356.136 644.154 353.372 706.128 350.874C735.484 349.691 763.34 363.738 779.414 383.926C795.473 404.096 799.74 430.336 782.075 453.671Z" stroke="#636363" stroke-opacity="0.22"/>
<path d="M346.67 444.025C360.399 454.903 368.93 466.165 373.131 477.88C377.331 489.59 377.222 501.799 373.592 514.604C366.323 540.248 344.954 568.218 315.944 599.154C297.537 618.784 276.092 639.571 253.275 661.687C240.141 674.417 226.553 687.588 212.828 701.232C175.272 738.566 136.723 779.419 103.775 824.399C89.1221 844.404 65.2548 854.591 43.329 853.822C21.4186 853.053 1.50369 841.353 -5.39248 817.619C-31.6022 727.418 -35.4206 621.298 29.6314 527.533C34.7155 520.205 36.5397 509.244 36.1862 496.549C35.8323 483.836 33.2918 469.3 29.5615 454.748C22.1024 425.649 9.86222 396.394 0.720026 381.384C-15.8597 354.163 -15.1422 316.523 -3.52309 277.329C8.09087 238.152 30.5692 197.525 57.3556 164.42C84.151 131.305 115.206 105.781 143.942 96.7236C158.3 92.1982 172.051 91.7919 184.404 96.5683C196.752 101.342 207.767 111.319 216.616 127.68C273.84 250.056 282.698 328.145 284.968 375.088C285.252 380.959 285.433 386.344 285.592 391.271L285.631 392.475C285.775 396.927 285.906 400.999 286.088 404.703C286.484 412.764 287.122 419.143 288.674 423.995C290.234 428.871 292.732 432.247 296.857 434.236C300.946 436.208 306.57 436.783 314.311 436.238C325.809 435.428 337.738 436.949 346.67 444.025Z" stroke="#636363" stroke-opacity="0.22"/>
<path d="M280.408 468.724C286.308 474.312 289.993 480.105 291.801 486.123C293.609 492.139 293.552 498.415 291.918 504.988C288.644 518.155 279.051 532.471 265.535 548.142C252.689 563.036 236.35 579.098 218.64 596.508C217.726 597.407 216.808 598.308 215.888 599.214C197.127 617.663 176.983 637.602 157.958 659.211C141.632 677.755 116.403 686.718 94.6009 684.901C83.7051 683.993 73.6921 680.396 66.0755 673.987C58.4664 667.585 53.2202 658.354 51.8822 646.114C49.4035 623.438 50.1664 599.982 55.825 576.716C57.9162 568.117 58.6797 552.753 58.816 534.078C58.941 516.964 58.5385 497.016 58.1316 476.85C58.094 474.989 58.0565 473.127 58.0193 471.264C57.5787 449.212 57.1904 427.185 57.5345 408.567C57.8791 389.928 58.958 374.774 61.4268 366.429C71.973 330.781 97.2932 292.999 124.037 271.509C137.414 260.76 151.085 254.137 163.396 253.825C175.649 253.514 186.649 259.455 194.759 274.064C227.429 342.144 234.629 387.612 236.711 416.463C237.177 422.932 237.387 428.567 237.569 433.444C237.59 434.009 237.61 434.563 237.631 435.108C237.829 440.346 238.025 444.673 238.542 448.153C239.057 451.628 239.901 454.329 241.444 456.271C243.005 458.235 245.232 459.361 248.369 459.789C250.584 460.091 252.84 460.319 255.088 460.546C255.754 460.613 256.419 460.68 257.082 460.749C259.99 461.052 262.868 461.391 265.646 461.926C271.202 462.997 276.314 464.847 280.408 468.724Z" stroke="#636363" stroke-opacity="0.22"/>
<path d="M1268.96 487.437C1272.62 494.312 1273.95 500.667 1273.33 506.639C1272.7 512.612 1270.09 518.249 1265.79 523.675C1257.16 534.547 1241.76 544.502 1222.01 554.52C1204.79 563.253 1184.32 572.005 1162.24 581.443C1159.01 582.824 1155.75 584.22 1152.45 585.633C1126.66 596.694 1099.1 608.778 1072.28 622.872C1051.02 634.048 1025.36 633.53 1006.68 624.451C997.344 619.914 989.774 613.251 985.353 604.869C980.936 596.495 979.642 586.369 982.915 574.854C987.614 558.321 994.467 541.971 1004.1 526.485C1008.84 518.856 1016.16 503.335 1024.86 484.002C1029.29 474.141 1034.1 463.267 1039.11 451.925C1043.92 441.03 1048.93 429.704 1053.98 418.432C1064.3 395.407 1074.83 372.567 1084.39 353.938C1089.17 344.623 1093.7 336.366 1097.85 329.669C1102 322.964 1105.73 317.852 1108.91 314.801C1134.47 290.272 1169.46 269.757 1199.15 262.419C1214 258.749 1227.46 258.392 1237.75 262.408C1247.98 266.407 1255.14 274.765 1257.39 288.716C1264.06 359.645 1254.07 402.233 1245.44 428.335C1243.61 433.851 1241.85 438.632 1240.32 442.797C1240.03 443.564 1239.76 444.31 1239.49 445.035C1237.78 449.694 1236.42 453.544 1235.72 456.74C1235.01 459.932 1234.94 462.556 1235.88 464.723C1236.84 466.907 1238.78 468.524 1241.87 469.807C1243.14 470.338 1244.44 470.856 1245.73 471.374C1249.73 472.979 1253.75 474.588 1257.41 476.601C1262.23 479.255 1266.38 482.579 1268.96 487.437Z" stroke="#636363" stroke-opacity="0.22"/>
<path d="M984.603 386.583C967.082 424.269 948.033 447.967 926.197 464.9C904.353 481.84 879.691 492.034 850.884 502.673C846.353 504.346 841.72 506.031 836.98 507.754C781.456 527.938 711.335 553.429 618.739 629.286C597.347 646.811 593.017 677.523 603.789 702.887C634.457 775.099 630.108 826.643 607.797 859.602C585.48 892.569 545.089 907.096 503.334 905.048C461.582 902.999 418.565 884.376 391.085 851.172C363.624 817.99 351.635 770.194 372.01 709.678C372.983 706.79 373.659 703.588 373.929 700.551C376.055 676.664 382.738 655.982 390.665 636.608C394.142 628.109 397.856 619.867 401.53 611.714C402.045 610.571 402.559 609.431 403.072 608.291C407.24 599.023 411.306 589.841 414.846 580.518C421.928 561.868 426.917 542.633 426.446 520.939C425.975 499.243 420.043 475.121 405.335 446.692C396.479 429.574 389.889 410.377 389.037 392.214C388.185 374.064 393.062 356.974 407.111 343.985C446.569 307.501 507.98 289.801 591.172 281.558C672.861 273.463 775.443 274.496 898.662 275.736L905.424 275.804C934.885 276.1 960.89 290.465 976.423 311.424C991.95 332.377 997.006 359.907 984.603 386.583Z" stroke="#636363" stroke-opacity="0.22"/>
<path d="M1326.12 523.305C1333.57 539.158 1336.2 553.041 1334.74 565.401C1333.29 577.757 1327.75 588.639 1318.8 598.488C1300.87 618.211 1269.28 633.738 1229.53 648.519C1204.31 657.898 1175.85 666.959 1145.57 676.599C1128.14 682.149 1110.11 687.89 1091.75 693.994C1041.49 710.698 988.784 730.109 939.253 755.709C917.224 767.095 891.317 765.588 872.028 755.135C852.753 744.688 840.132 725.344 844.527 701.023C861.23 608.587 905.069 511.871 1005.07 456.887C1012.89 452.59 1019.4 443.588 1024.74 432.064C1030.08 420.524 1034.28 406.378 1037.42 391.687C1043.7 362.31 1045.77 330.666 1044.27 313.155C1041.55 281.399 1058.95 248.017 1086.81 218.098C1114.66 188.193 1152.87 161.827 1191.6 144.115C1230.34 126.398 1269.51 117.374 1299.27 122.062C1314.15 124.404 1326.64 130.164 1335.57 139.942C1344.5 149.715 1349.92 163.553 1350.56 182.143C1347.3 317.198 1320.45 391.061 1301.58 434.103C1299.22 439.486 1296.98 444.388 1294.93 448.871L1294.43 449.966C1292.58 454.017 1290.88 457.721 1289.39 461.119C1286.16 468.512 1283.89 474.508 1283.12 479.543C1282.34 484.604 1283.08 488.739 1285.88 492.356C1288.67 495.943 1293.45 498.963 1300.62 501.922C1311.28 506.317 1321.28 512.992 1326.12 523.305Z" stroke="#636363" stroke-opacity="0.22"/>
</svg>
