<svg width="1318" height="3305" viewBox="0 0 1318 3305" fill="none" xmlns="http://www.w3.org/2000/svg">
<path d="M333.036 542.485C356.37 559.506 370.786 577.182 377.831 595.64C384.873 614.091 384.569 633.376 378.368 653.659C365.954 694.266 329.935 738.788 282.102 788.371C258.017 813.338 230.947 839.576 202.42 867.226C117.715 949.329 20.1664 1043.88 -50.2131 1154.54C-63.5162 1175.46 -86.453 1186.36 -108.226 1186.22C-129.987 1186.08 -150.543 1174.93 -159.184 1151.75C-219.123 991.005 -240.898 781.474 -78.6002 611.914C-72.4342 605.472 -69.4354 596.237 -68.8803 585.86C-68.3249 575.479 -70.2113 563.908 -73.8669 552.728C-77.5229 541.547 -82.9556 530.734 -89.5126 521.869C-96.0657 513.01 -103.766 506.065 -111.971 502.669C-141.352 490.509 -161.127 471.477 -173.034 447.908C-184.946 424.329 -189.001 396.177 -186.876 365.765C-182.625 304.933 -153.653 235.168 -113.624 175.205C-73.5921 115.236 -22.5567 65.1525 25.7489 43.6169C49.8958 32.8518 73.3177 29.2383 94.3322 35.0352C115.331 40.8278 134.01 56.0401 148.641 83.0952C235.075 267.938 246.357 383.974 249.265 452.204C249.566 459.257 249.777 465.807 249.973 471.873C250.25 480.47 250.496 488.094 250.92 494.793C251.644 506.219 252.889 515.06 255.733 521.578C258.596 528.136 263.077 532.34 270.2 534.477C277.28 536.601 286.949 536.678 300.197 535.089C311.604 533.721 323.811 535.756 333.036 542.485Z" stroke="#CACACA" stroke-opacity="0.64"/>
<path d="M-231.996 2011.01C-303.84 1968.41 -332.941 1919.88 -334.569 1864.66C-336.2 1809.38 -310.3 1747.3 -271.855 1677.6C-252.638 1642.76 -230.299 1606.04 -206.723 1567.34L-205.641 1565.56C-182.39 1527.39 -157.968 1487.31 -134.184 1445.21C-85.8783 1359.71 -40.193 1265.93 -12.2642 1163.11C-5.26994 1137.36 15.8408 1119.63 38.892 1113.92C61.9346 1108.2 86.8471 1114.51 101.521 1136.73C176.688 1250.58 246.264 1386.76 274.4 1526.46C302.535 1666.16 289.233 1809.36 198.683 1937.35C188.973 1951.07 191.107 1970.8 199.723 1987.29C208.341 2003.78 223.556 2017.25 240.307 2018.35C293.05 2021.81 335.025 2038.33 367.65 2063.97C400.279 2089.62 423.583 2124.42 438.946 2164.49C469.678 2244.65 468.62 2345.84 446.903 2436.8C425.184 2527.77 382.832 2608.39 331.103 2647.46C305.252 2666.99 277.09 2676.13 247.991 2671.05C218.886 2665.97 188.749 2646.65 158.99 2609.08C-16.4083 2366.26 -73.9894 2211.63 -103.435 2120.93C-106.278 2112.17 -108.861 2104.01 -111.263 2096.41C-115.077 2084.35 -118.436 2073.73 -121.657 2064.48C-126.907 2049.4 -131.817 2037.89 -137.797 2029.61C-143.793 2021.3 -150.871 2016.25 -160.428 2014.1C-169.956 2011.95 -181.908 2012.71 -197.644 2015.93C-209.179 2018.3 -221.912 2016.99 -231.996 2011.01Z" stroke="#CACACA" stroke-opacity="0.64"/>
<path d="M183.152 686.032C192.835 693.695 198.694 701.802 201.367 710.371C204.038 718.939 203.54 728.02 200.413 737.662C194.148 756.977 177.368 778.446 154.64 802.293C138.655 819.064 119.768 836.973 99.5931 856.104C91.0933 864.164 82.365 872.44 73.5287 880.94C43.7284 909.604 12.7199 940.788 -14.8063 974.686C-30.0769 993.491 -53.8069 1002.76 -74.9515 1001.4C-96.0758 1000.04 -114.564 988.088 -119.534 964.482C-130.624 911.805 -129.53 853.157 -101.44 796.568C-99.426 792.511 -98.0974 786.998 -97.2937 780.422C-96.4893 773.839 -96.2071 766.157 -96.3052 757.741C-96.5013 740.908 -98.2187 721.096 -100.342 701.188C-101.404 691.233 -102.567 681.25 -103.693 671.6L-103.746 671.15C-104.854 661.66 -105.923 652.499 -106.821 644.008C-108.649 626.74 -109.764 612.288 -109.075 603.474C-107.183 579.309 -97.2825 551.913 -82.7364 525.72C-68.1928 499.531 -49.0242 474.577 -28.6344 455.297C-8.23362 436.007 13.3397 422.443 32.6866 418.947C42.3498 417.2 51.4413 417.968 59.5611 421.769C67.6765 425.569 74.8654 432.419 80.6926 442.917C123.903 533.99 130.122 593.735 131.179 630.292C131.346 636.053 131.384 641.227 131.419 645.868C131.439 648.604 131.458 651.154 131.501 653.53C131.617 659.909 131.906 665.022 132.882 668.948C133.863 672.891 135.555 675.704 138.516 677.395C141.45 679.07 145.544 679.594 151.212 679.182C162.527 678.36 174.399 679.104 183.152 686.032Z" stroke="#CACACA" stroke-opacity="0.64"/>
<path d="M1525.73 1881.74C1578.14 1997.32 1586.33 2085.39 1564.61 2159.32C1542.89 2233.26 1491.22 2293.15 1423.7 2352.29C1389.94 2381.86 1352.24 2411.23 1312.35 2442.08C1309.59 2444.22 1306.81 2446.36 1304.02 2448.52C1266.63 2477.42 1227.46 2507.7 1187.96 2540.69C1103.04 2611.6 1016.54 2695.05 942.691 2804.36C926.218 2828.74 896.652 2837.71 870.378 2833.24C844.11 2828.77 821.256 2810.89 818.089 2781.68C794.164 2561.03 786.458 2309.94 826.527 2093.39C866.599 1876.82 954.427 1694.93 1121.46 1612.47C1135.03 1605.77 1142.67 1591.2 1143.87 1576.18C1145.07 1561.16 1139.84 1545.55 1127.52 1536.76C1004.39 1448.96 955.182 1320.77 952.165 1187.32C949.148 1053.84 992.338 915.126 1053.99 806.369C1084.81 751.993 1120.24 705.121 1156.8 670.147C1193.37 635.167 1231.03 612.121 1266.32 605.331C1301.57 598.548 1334.48 607.978 1361.65 638.032C1388.84 668.114 1410.3 718.891 1422.51 794.837C1482.67 1257.59 1467.77 1505.85 1455.23 1647.13C1454.14 1659.45 1453.06 1670.95 1452.06 1681.72C1450.18 1701.83 1448.54 1719.36 1447.48 1734.76C1445.85 1758.4 1445.58 1777.08 1447.88 1792.44C1450.19 1807.82 1455.08 1819.9 1463.8 1830.32C1472.5 1840.73 1484.99 1849.46 1502.43 1858.2C1512.42 1863.21 1521.12 1871.58 1525.73 1881.74Z" stroke="#CACACA" stroke-opacity="0.64"/>
<path d="M-123.797 1957.25C-160.367 1929.68 -178.938 1901.88 -185.259 1872.79C-191.582 1843.69 -185.664 1813.22 -173.084 1780.27C-162.21 1751.78 -146.379 1721.5 -129.229 1688.69C-126.537 1683.54 -123.811 1678.33 -121.068 1673.05C-100.857 1634.17 -79.6588 1591.78 -63.1554 1544.83C-53.741 1518.06 -28.3356 1498.92 -1.72326 1492.66C24.8848 1486.41 52.5433 1493.05 66.6025 1517.61C103.888 1582.73 136.023 1653.54 152.26 1722.97C168.497 1792.4 168.828 1860.4 142.558 1919.94C136.185 1934.39 139.024 1954.37 147.037 1972.1C155.052 1989.83 168.321 2005.47 183.026 2011.15C235.692 2031.51 268.817 2075.72 286.534 2127.59C304.253 2179.46 306.543 2238.96 297.562 2289.78C293.072 2315.19 285.767 2338.42 276.177 2357.43C266.584 2376.45 254.721 2391.22 241.132 2399.76C227.562 2408.28 212.251 2410.62 195.676 2404.74C179.079 2398.86 161.173 2384.72 142.492 2360.23C31.1738 2203.12 -12.2539 2104.82 -35.2699 2045.74C-38.1476 2038.36 -40.7066 2031.58 -43.04 2025.38C-43.3429 2024.58 -43.642 2023.78 -43.9375 2022.99C-45.9182 2017.73 -47.7378 2012.89 -49.4563 2008.46C-53.4041 1998.27 -56.8296 1990.21 -60.4725 1983.97C-64.1186 1977.73 -68.0008 1973.3 -72.8779 1970.42C-77.756 1967.54 -83.5791 1966.24 -91.0537 1966.18C-102.663 1966.09 -114.626 1964.16 -123.797 1957.25Z" stroke="#CACACA" stroke-opacity="0.64"/>
<path d="M1315.85 2067.91C1357.66 2257.73 1358.01 2395.98 1329.67 2505.84C1301.33 2615.69 1244.27 2697.22 1171.17 2773.6C1134.62 2811.79 1094.05 2848.69 1051.06 2887.2C1045.46 2892.21 1039.82 2897.25 1034.14 2902.33C996.22 2936.23 956.618 2971.63 916.388 3010.43C823.878 3099.67 728.038 3206.9 641.591 3355.32C625.428 3383.06 592.478 3392.19 563.481 3386.29C534.488 3380.39 509.649 3359.52 509.569 3327.44C508.692 2974.18 528.296 2572.79 595.648 2240.58C629.324 2074.48 674.933 1925.7 735.872 1808.88C796.812 1692.06 873.056 1607.26 967.977 1569.03C980.135 1564.13 988.661 1553.37 992.057 1541.34C995.453 1529.3 993.731 1515.95 985.319 1505.87C855.133 1349.96 809.664 1141.65 815.247 932.012C820.83 722.381 877.463 511.485 951.412 350.47C988.386 269.962 1029.68 201.942 1071.08 152.79C1112.49 103.618 1153.93 73.4133 1191.17 68.3705C1209.77 65.852 1227.34 69.6071 1243.38 80.4308C1259.42 91.2612 1273.96 109.189 1286.44 135.061C1311.4 186.811 1328.08 270.226 1332.23 391.747C1342.78 1121.94 1299.9 1499.75 1272.02 1712.48C1269.92 1728.51 1267.91 1743.6 1266 1757.84C1255.29 1838.06 1248.2 1891.12 1250 1931.29C1251.06 1954.97 1255.21 1974.19 1263.53 1991.89C1271.84 2009.58 1284.31 2025.71 1301.98 2043.2C1308.67 2049.83 1313.83 2058.72 1315.85 2067.91Z" stroke="#CACACA" stroke-opacity="0.64"/>
</svg>
