<svg width="532" height="275" viewBox="0 0 532 275" fill="none" xmlns="http://www.w3.org/2000/svg">
<path d="M49.6996 99.1973L159.049 0L213.135 49.0825L268.125 0L319.922 49.0825L376.105 0L484.265 99.1973V246.104L445.652 226.264V121.324L376.105 57.3781L352.262 76.3889L376.105 104.409V202.173L339.381 193.199V121.324L268.125 57.3781L194.677 121.324V193.199L159.049 202.173V99.5476L181.796 76.3889L159.049 57.3781L88.8901 121.324V226.264L49.6996 246.104V99.1973Z" fill="#BDAD5C"/>
<path d="M265.81 215.126C433.42 215.323 531.866 273.362 531.866 273.362C531.866 273.362 412.964 186.074 265.81 185.901C118.656 185.728 0 272.737 0 272.737C0 272.737 98.2 214.929 265.81 215.126Z" fill="#BDAD5C"/>
</svg>
