<svg width="1320" height="293" viewBox="0 0 1320 293" fill="none" xmlns="http://www.w3.org/2000/svg">
<g filter="url(#filter0_d_114_23)">
<path d="M625.022 96.2578C625.022 96.5085 624.988 96.7705 624.92 97.0439C624.874 97.3174 624.749 97.5452 624.544 97.7275C623.519 98.5023 622.402 99.2201 621.194 99.8809C620.009 100.519 618.722 101.077 617.332 101.556C615.942 102.034 614.438 102.399 612.82 102.649C611.225 102.923 609.505 103.06 607.659 103.06C603.512 103.06 599.729 102.456 596.312 101.248C592.894 100.018 589.954 98.2858 587.493 96.0527C585.055 93.8197 583.164 91.1423 581.819 88.0205C580.475 84.876 579.803 81.3896 579.803 77.5615C579.803 75.3968 580.076 73.2663 580.623 71.1699C581.193 69.0736 582.013 67.0798 583.084 65.1885C584.155 63.2972 585.477 61.5654 587.049 59.9932C588.621 58.3981 590.41 57.0195 592.415 55.8574C594.443 54.6953 596.665 53.7952 599.08 53.1572C601.518 52.4964 604.15 52.166 606.976 52.166C608.069 52.166 609.186 52.223 610.325 52.3369C611.465 52.4281 612.592 52.5762 613.709 52.7812C614.826 52.9635 615.896 53.1914 616.922 53.4648C617.97 53.7383 618.961 54.0459 619.896 54.3877L622.22 60.7109L621.946 60.8477C621.058 60.0501 620.032 59.3096 618.87 58.626C617.708 57.9424 616.466 57.3499 615.145 56.8486C613.823 56.3473 612.433 55.96 610.975 55.6865C609.539 55.3903 608.081 55.2422 606.6 55.2422C603.729 55.2422 601.097 55.6979 598.704 56.6094C596.312 57.498 594.249 58.7969 592.518 60.5059C590.809 62.2148 589.476 64.3112 588.519 66.7949C587.562 69.2786 587.083 72.1042 587.083 75.2715C587.083 78.7578 587.539 81.9935 588.45 84.9785C589.362 87.9635 590.717 90.5498 592.518 92.7373C594.318 94.9248 596.562 96.6452 599.251 97.8984C601.963 99.1289 605.118 99.7441 608.719 99.7441C610.314 99.7441 611.738 99.6188 612.991 99.3682C614.244 99.1175 615.304 98.8099 616.17 98.4453C617.036 98.0579 617.685 97.6478 618.118 97.2148C618.574 96.7591 618.802 96.349 618.802 95.9844V94.6514C618.802 93.0563 618.779 91.6777 618.733 90.5156C618.688 89.3535 618.619 88.3509 618.528 87.5078C618.437 86.6419 618.335 85.9014 618.221 85.2861C618.107 84.6709 617.97 84.1012 617.811 83.5771V83.4404H626.014V83.5771C625.877 84.0557 625.74 84.6253 625.604 85.2861C625.49 85.9242 625.387 86.6875 625.296 87.5762C625.205 88.4648 625.136 89.513 625.091 90.7207C625.045 91.9056 625.022 93.2842 625.022 94.8564V96.2578ZM633.841 52.9863C636.689 52.9863 639.515 52.9749 642.317 52.9521C645.143 52.9294 647.729 52.9066 650.076 52.8838C652.423 52.8382 654.428 52.7812 656.092 52.7129C657.755 52.6445 658.883 52.5534 659.476 52.4395L657.801 56.9854C657.049 56.7803 656.172 56.598 655.169 56.4385C654.303 56.3018 653.243 56.1764 651.99 56.0625C650.76 55.9258 649.336 55.8574 647.718 55.8574C647.171 55.8574 646.51 55.8802 645.735 55.9258C644.983 55.9486 644.254 55.9827 643.548 56.0283C642.728 56.0739 641.896 56.1195 641.053 56.165V74.8271C643.4 74.8044 645.519 74.736 647.41 74.6221C649.301 74.5081 650.908 74.3942 652.229 74.2803C653.779 74.1436 655.146 73.984 656.331 73.8018L655.271 78.7578C653.699 78.5527 652.093 78.359 650.452 78.1768C649.039 78.0173 647.501 77.8805 645.838 77.7666C644.174 77.6299 642.579 77.5615 641.053 77.5615V98.9922C643.742 98.9922 646.214 98.8783 648.47 98.6504C650.726 98.4225 652.697 98.1605 654.383 97.8643C656.342 97.5452 658.131 97.1693 659.749 96.7363L658.758 102.273C658.484 102.251 658.074 102.228 657.527 102.205C656.98 102.182 656.365 102.16 655.682 102.137C655.021 102.114 654.314 102.091 653.562 102.068C652.833 102.068 652.138 102.057 651.478 102.034C650.817 102.034 650.224 102.023 649.7 102C649.199 102 648.834 102 648.606 102H633.841V101.863C633.978 101.385 634.103 100.792 634.217 100.086C634.354 99.3796 634.467 98.5023 634.559 97.4541C634.65 96.4059 634.718 95.1641 634.764 93.7285C634.809 92.2702 634.832 90.5726 634.832 88.6357V66.3848C634.832 64.4479 634.809 62.7617 634.764 61.3262C634.718 59.8678 634.65 58.6146 634.559 57.5664C634.467 56.4954 634.354 55.6068 634.217 54.9004C634.103 54.194 633.978 53.6016 633.841 53.123V52.9863ZM675.643 55.9258C675.597 58.4779 675.551 60.9502 675.506 63.3428C675.483 64.3682 675.46 65.4163 675.438 66.4873C675.438 67.5583 675.426 68.6178 675.403 69.666C675.403 70.6914 675.392 71.6826 675.369 72.6396C675.369 73.5739 675.369 74.4056 675.369 75.1348C675.369 76.6615 675.381 78.5072 675.403 80.6719C675.426 82.8366 675.449 85.0583 675.472 87.3369C675.517 89.6156 675.574 91.8031 675.643 93.8994C675.711 95.9958 675.791 97.7389 675.882 99.1289C676.201 99.1745 676.622 99.2314 677.146 99.2998C677.693 99.3454 678.263 99.391 678.855 99.4365C679.448 99.4593 680.029 99.4821 680.599 99.5049C681.168 99.5277 681.647 99.5391 682.034 99.5391C683.629 99.5391 685.258 99.4365 686.922 99.2314C688.608 99.0036 690.226 98.5934 691.775 98.001C693.348 97.4085 694.817 96.5996 696.185 95.5742C697.575 94.526 698.782 93.1816 699.808 91.541C700.856 89.9004 701.676 87.9294 702.269 85.6279C702.861 83.3037 703.157 80.5693 703.157 77.4248C703.157 73.9385 702.736 70.8395 701.893 68.1279C701.049 65.3936 699.808 63.0921 698.167 61.2236C696.549 59.3551 694.533 57.9424 692.117 56.9854C689.725 56.0055 686.967 55.5156 683.846 55.5156C683.23 55.5156 682.535 55.5384 681.761 55.584C680.986 55.6068 680.211 55.641 679.437 55.6865C678.685 55.7093 677.967 55.7549 677.283 55.8232C676.622 55.8688 676.076 55.903 675.643 55.9258ZM668.157 52.8496C668.681 52.8724 669.171 52.8952 669.627 52.918C670.014 52.9408 670.413 52.9635 670.823 52.9863C671.233 52.9863 671.564 52.9863 671.814 52.9863C672.247 52.9863 672.965 52.9635 673.968 52.918C674.993 52.8724 676.155 52.8268 677.454 52.7812C678.753 52.7357 680.097 52.6901 681.487 52.6445C682.9 52.599 684.222 52.5762 685.452 52.5762C688.756 52.5762 691.901 52.9863 694.886 53.8066C697.871 54.627 700.491 55.9714 702.747 57.8398C705.003 59.7083 706.792 62.1579 708.113 65.1885C709.435 68.2191 710.096 71.9447 710.096 76.3652C710.096 79.5326 709.743 82.3809 709.036 84.9102C708.353 87.4395 707.384 89.6725 706.131 91.6094C704.878 93.5462 703.374 95.2096 701.619 96.5996C699.887 97.9668 697.962 99.0947 695.843 99.9834C693.746 100.872 691.502 101.521 689.109 101.932C686.717 102.342 684.244 102.547 681.692 102.547C680.781 102.547 679.676 102.513 678.377 102.444C677.101 102.399 675.813 102.342 674.515 102.273C673.216 102.205 671.985 102.137 670.823 102.068C669.684 102.023 668.795 102 668.157 102V101.863C668.294 101.385 668.419 100.792 668.533 100.086C668.67 99.3796 668.784 98.5023 668.875 97.4541C668.966 96.4059 669.035 95.1641 669.08 93.7285C669.126 92.2702 669.148 90.5726 669.148 88.6357V66.3848C669.148 64.4479 669.126 62.7503 669.08 61.292C669.035 59.8109 668.966 58.5462 668.875 57.498C668.784 56.4271 668.67 55.527 668.533 54.7979C668.419 54.0687 668.294 53.4648 668.157 52.9863V52.8496ZM753.196 66.3848C753.196 64.4479 753.174 62.7617 753.128 61.3262C753.082 59.8678 753.014 58.6146 752.923 57.5664C752.832 56.4954 752.729 55.6068 752.615 54.9004C752.501 54.194 752.376 53.6016 752.239 53.123V52.9863H758.323V53.123C758.187 53.6016 758.05 54.194 757.913 54.9004C757.799 55.6068 757.697 56.4954 757.605 57.5664C757.537 58.6146 757.469 59.8678 757.4 61.3262C757.355 62.7617 757.332 64.4479 757.332 66.3848V84.8418C757.332 88.1003 756.865 90.8802 755.931 93.1816C754.996 95.4831 753.698 97.3743 752.034 98.8555C750.371 100.314 748.377 101.373 746.053 102.034C743.729 102.718 741.188 103.06 738.431 103.06C735.674 103.06 733.099 102.741 730.706 102.103C728.336 101.465 726.263 100.439 724.485 99.0264C722.731 97.5908 721.352 95.7451 720.35 93.4893C719.347 91.2106 718.846 88.4421 718.846 85.1836V66.3848C718.846 64.4479 718.823 62.7617 718.777 61.3262C718.732 59.8678 718.663 58.6146 718.572 57.5664C718.481 56.4954 718.367 55.6068 718.23 54.9004C718.117 54.194 717.991 53.6016 717.854 53.123V52.9863H726.058V53.123C725.921 53.6016 725.784 54.194 725.647 54.9004C725.534 55.6068 725.431 56.4954 725.34 57.5664C725.249 58.6146 725.18 59.8678 725.135 61.3262C725.089 62.7617 725.066 64.4479 725.066 66.3848V85.5596C725.066 88.2712 725.465 90.5156 726.263 92.293C727.083 94.0475 728.154 95.4489 729.476 96.4971C730.797 97.5225 732.301 98.2402 733.987 98.6504C735.674 99.0605 737.394 99.2656 739.148 99.2656C740.903 99.2656 742.623 99.0605 744.31 98.6504C745.996 98.2402 747.488 97.5225 748.787 96.4971C750.109 95.4489 751.168 94.0475 751.966 92.293C752.786 90.5156 753.196 88.2712 753.196 85.5596V66.3848ZM769.739 52.9863L804.944 90.4473V66.3848C804.944 64.4479 804.922 62.7617 804.876 61.3262C804.83 59.8678 804.762 58.6146 804.671 57.5664C804.58 56.4954 804.466 55.6068 804.329 54.9004C804.215 54.194 804.09 53.6016 803.953 53.123V52.9863H810.037V53.123C809.9 53.6016 809.775 54.194 809.661 54.9004C809.547 55.6068 809.445 56.4954 809.354 57.5664C809.262 58.6146 809.194 59.8678 809.148 61.3262C809.103 62.7617 809.08 64.4479 809.08 66.3848V102.684H807.884L772.679 65.2568V88.6357C772.679 90.5726 772.701 92.2702 772.747 93.7285C772.793 95.1641 772.861 96.4059 772.952 97.4541C773.043 98.5023 773.146 99.3796 773.26 100.086C773.374 100.792 773.499 101.385 773.636 101.863V102H767.552V101.863C767.688 101.385 767.814 100.792 767.928 100.086C768.064 99.3796 768.178 98.5023 768.27 97.4541C768.361 96.4059 768.429 95.1641 768.475 93.7285C768.52 92.2702 768.543 90.5726 768.543 88.6357V66.3848C768.543 64.4479 768.52 62.7617 768.475 61.3262C768.429 59.8678 768.361 58.6146 768.27 57.5664C768.178 56.4954 768.064 55.6068 767.928 54.9004C767.814 54.194 767.688 53.6016 767.552 53.123V52.9863H769.739ZM862.708 96.2578C862.708 96.5085 862.674 96.7705 862.605 97.0439C862.56 97.3174 862.435 97.5452 862.229 97.7275C861.204 98.5023 860.088 99.2201 858.88 99.8809C857.695 100.519 856.408 101.077 855.018 101.556C853.628 102.034 852.124 102.399 850.506 102.649C848.911 102.923 847.19 103.06 845.345 103.06C841.198 103.06 837.415 102.456 833.997 101.248C830.579 100.018 827.64 98.2858 825.179 96.0527C822.741 93.8197 820.849 91.1423 819.505 88.0205C818.16 84.876 817.488 81.3896 817.488 77.5615C817.488 75.3968 817.762 73.2663 818.309 71.1699C818.878 69.0736 819.699 67.0798 820.77 65.1885C821.84 63.2972 823.162 61.5654 824.734 59.9932C826.307 58.3981 828.095 57.0195 830.101 55.8574C832.129 54.6953 834.35 53.7952 836.766 53.1572C839.204 52.4964 841.836 52.166 844.661 52.166C845.755 52.166 846.871 52.223 848.011 52.3369C849.15 52.4281 850.278 52.5762 851.395 52.7812C852.511 52.9635 853.582 53.1914 854.607 53.4648C855.656 53.7383 856.647 54.0459 857.581 54.3877L859.905 60.7109L859.632 60.8477C858.743 60.0501 857.718 59.3096 856.556 58.626C855.394 57.9424 854.152 57.3499 852.83 56.8486C851.508 56.3473 850.118 55.96 848.66 55.6865C847.225 55.3903 845.766 55.2422 844.285 55.2422C841.414 55.2422 838.782 55.6979 836.39 56.6094C833.997 57.498 831.935 58.7969 830.203 60.5059C828.494 62.2148 827.161 64.3112 826.204 66.7949C825.247 69.2786 824.769 72.1042 824.769 75.2715C824.769 78.7578 825.224 81.9935 826.136 84.9785C827.047 87.9635 828.403 90.5498 830.203 92.7373C832.003 94.9248 834.248 96.6452 836.937 97.8984C839.648 99.1289 842.804 99.7441 846.404 99.7441C847.999 99.7441 849.424 99.6188 850.677 99.3682C851.93 99.1175 852.99 98.8099 853.855 98.4453C854.721 98.0579 855.371 97.6478 855.804 97.2148C856.259 96.7591 856.487 96.349 856.487 95.9844V94.6514C856.487 93.0563 856.465 91.6777 856.419 90.5156C856.373 89.3535 856.305 88.3509 856.214 87.5078C856.123 86.6419 856.02 85.9014 855.906 85.2861C855.792 84.6709 855.656 84.1012 855.496 83.5771V83.4404H863.699V83.5771C863.562 84.0557 863.426 84.6253 863.289 85.2861C863.175 85.9242 863.073 86.6875 862.981 87.5762C862.89 88.4648 862.822 89.513 862.776 90.7207C862.731 91.9056 862.708 93.2842 862.708 94.8564V96.2578ZM899.725 80.2959C901.958 80.7061 903.997 80.7516 905.843 80.4326C907.711 80.0908 909.306 79.3844 910.628 78.3135C911.972 77.2197 913.009 75.75 913.738 73.9043C914.49 72.0586 914.866 69.8027 914.866 67.1367C914.866 65.291 914.673 63.6162 914.285 62.1123C913.898 60.5856 913.317 59.2982 912.542 58.25C911.79 57.179 910.833 56.3587 909.671 55.7891C908.509 55.1966 907.153 54.9004 905.604 54.9004C904.624 54.9004 903.769 54.946 903.04 55.0371C902.311 55.1055 901.696 55.1852 901.194 55.2764C900.602 55.3903 900.112 55.5156 899.725 55.6523V80.2959ZM892.513 52.9863C892.968 53.0319 893.447 53.0775 893.948 53.123C894.381 53.1686 894.86 53.2028 895.384 53.2256C895.931 53.2256 896.489 53.2256 897.059 53.2256C897.947 53.2256 899.144 53.123 900.647 52.918C902.174 52.6901 904.111 52.5762 906.458 52.5762C908.646 52.5762 910.662 52.8952 912.508 53.5332C914.376 54.1712 915.994 55.1055 917.361 56.3359C918.729 57.5664 919.788 59.0703 920.54 60.8477C921.315 62.6022 921.702 64.6074 921.702 66.8633C921.702 69.8939 921.098 72.5143 919.891 74.7246C918.683 76.9349 917.065 78.7236 915.037 80.0908C913.009 81.458 910.674 82.3923 908.03 82.8936C905.387 83.3721 902.618 83.3949 899.725 82.9619V88.6357C899.725 90.5726 899.747 92.2702 899.793 93.7285C899.861 95.1641 899.93 96.4059 899.998 97.4541C900.089 98.5023 900.192 99.3796 900.306 100.086C900.442 100.792 900.579 101.385 900.716 101.863V102H892.513V101.863C892.649 101.385 892.775 100.792 892.889 100.086C893.025 99.3796 893.139 98.5023 893.23 97.4541C893.322 96.4059 893.39 95.1641 893.436 93.7285C893.481 92.2702 893.504 90.5726 893.504 88.6357V66.3848C893.504 64.4479 893.481 62.7617 893.436 61.3262C893.39 59.8678 893.322 58.6146 893.23 57.5664C893.139 56.4954 893.025 55.6068 892.889 54.9004C892.775 54.194 892.649 53.6016 892.513 53.123V52.9863ZM928.401 52.9863C931.25 52.9863 934.075 52.9749 936.878 52.9521C939.703 52.9294 942.29 52.9066 944.637 52.8838C946.984 52.8382 948.989 52.7812 950.652 52.7129C952.316 52.6445 953.444 52.5534 954.036 52.4395L952.361 56.9854C951.609 56.7803 950.732 56.598 949.729 56.4385C948.864 56.3018 947.804 56.1764 946.551 56.0625C945.32 55.9258 943.896 55.8574 942.278 55.8574C941.731 55.8574 941.071 55.8802 940.296 55.9258C939.544 55.9486 938.815 55.9827 938.108 56.0283C937.288 56.0739 936.456 56.1195 935.613 56.165V74.8271C937.96 74.8044 940.079 74.736 941.971 74.6221C943.862 74.5081 945.468 74.3942 946.79 74.2803C948.34 74.1436 949.707 73.984 950.892 73.8018L949.832 78.7578C948.26 78.5527 946.653 78.359 945.013 78.1768C943.6 78.0173 942.062 77.8805 940.398 77.7666C938.735 77.6299 937.14 77.5615 935.613 77.5615V98.9922C938.302 98.9922 940.774 98.8783 943.03 98.6504C945.286 98.4225 947.257 98.1605 948.943 97.8643C950.903 97.5452 952.692 97.1693 954.31 96.7363L953.318 102.273C953.045 102.251 952.635 102.228 952.088 102.205C951.541 102.182 950.926 102.16 950.242 102.137C949.581 102.114 948.875 102.091 948.123 102.068C947.394 102.068 946.699 102.057 946.038 102.034C945.377 102.034 944.785 102.023 944.261 102C943.759 102 943.395 102 943.167 102H928.401V101.863C928.538 101.385 928.663 100.792 928.777 100.086C928.914 99.3796 929.028 98.5023 929.119 97.4541C929.21 96.4059 929.279 95.1641 929.324 93.7285C929.37 92.2702 929.393 90.5726 929.393 88.6357V66.3848C929.393 64.4479 929.37 62.7617 929.324 61.3262C929.279 59.8678 929.21 58.6146 929.119 57.5664C929.028 56.4954 928.914 55.6068 928.777 54.9004C928.663 54.194 928.538 53.6016 928.401 53.123V52.9863ZM969.93 88.6357C969.93 90.5726 969.952 92.2702 969.998 93.7285C970.066 95.1641 970.135 96.4059 970.203 97.4541C970.294 98.5023 970.397 99.3796 970.511 100.086C970.647 100.792 970.784 101.385 970.921 101.863V102H962.718V101.863C962.854 101.385 962.98 100.792 963.094 100.086C963.23 99.3796 963.344 98.5023 963.436 97.4541C963.527 96.4059 963.595 95.1641 963.641 93.7285C963.686 92.2702 963.709 90.5726 963.709 88.6357V66.3848C963.709 64.4479 963.686 62.7617 963.641 61.3262C963.595 59.8678 963.527 58.6146 963.436 57.5664C963.344 56.4954 963.23 55.6068 963.094 54.9004C962.98 54.194 962.854 53.6016 962.718 53.123V52.9863C963.174 53.0319 963.652 53.0775 964.153 53.123C964.586 53.1686 965.065 53.2028 965.589 53.2256C966.136 53.2256 966.694 53.2256 967.264 53.2256C968.152 53.2256 969.349 53.123 970.853 52.918C972.379 52.6901 974.316 52.5762 976.663 52.5762C978.851 52.5762 980.867 52.8724 982.713 53.4648C984.581 54.0573 986.199 54.9232 987.566 56.0625C988.934 57.2018 989.993 58.6032 990.745 60.2666C991.52 61.9072 991.907 63.7757 991.907 65.8721C991.907 67.5127 991.691 69.0394 991.258 70.4521C990.848 71.8421 990.255 73.1068 989.48 74.2461C988.729 75.3854 987.817 76.3994 986.746 77.2881C985.675 78.154 984.479 78.8831 983.157 79.4756L995.154 96.3262C995.747 97.1693 996.294 97.8984 996.795 98.5137C997.319 99.1289 997.809 99.653 998.265 100.086C998.743 100.519 999.199 100.883 999.632 101.18C1000.06 101.453 1000.51 101.681 1000.96 101.863V102H991.087C991.019 101.567 990.791 100.997 990.403 100.291C990.039 99.5618 989.606 98.8441 989.104 98.1377L977.005 81.082C975.888 81.196 974.738 81.2529 973.553 81.2529C972.368 81.2529 971.16 81.1504 969.93 80.9453V88.6357ZM969.93 78.2793C972.163 78.6895 974.202 78.7464 976.048 78.4502C977.916 78.154 979.511 77.5046 980.833 76.502C982.177 75.4993 983.214 74.1436 983.943 72.4346C984.695 70.7028 985.071 68.6064 985.071 66.1455C985.071 64.4365 984.878 62.887 984.49 61.4971C984.103 60.1071 983.522 58.9336 982.747 57.9766C981.995 56.9967 981.038 56.2448 979.876 55.7207C978.714 55.1738 977.358 54.9004 975.809 54.9004C974.829 54.9004 973.974 54.946 973.245 55.0371C972.516 55.1055 971.901 55.1852 971.399 55.2764C970.807 55.3903 970.317 55.5156 969.93 55.6523V78.2793ZM1015.94 55.9941C1013.25 55.9941 1010.82 56.1195 1008.66 56.3701C1006.49 56.598 1004.62 56.8486 1003.05 57.1221C1001.23 57.4639 999.598 57.8398 998.162 58.25L999.153 52.7129C999.427 52.7357 999.837 52.7585 1000.38 52.7812C1000.93 52.804 1001.53 52.8268 1002.2 52.8496C1002.88 52.8724 1003.59 52.8952 1004.31 52.918C1005.07 52.918 1005.77 52.9294 1006.43 52.9521C1007.09 52.9521 1007.68 52.9635 1008.18 52.9863C1008.7 52.9863 1009.08 52.9863 1009.3 52.9863H1028.82C1029.05 52.9863 1029.41 52.9863 1029.92 52.9863C1030.44 52.9635 1031.03 52.9521 1031.69 52.9521C1032.35 52.9294 1033.05 52.918 1033.78 52.918C1034.53 52.8952 1035.24 52.8724 1035.9 52.8496C1036.58 52.8268 1037.2 52.804 1037.74 52.7812C1038.29 52.7585 1038.7 52.7357 1038.97 52.7129L1039.96 58.25C1038.51 57.8398 1036.86 57.4639 1035.04 57.1221C1033.47 56.8486 1031.6 56.598 1029.44 56.3701C1027.27 56.1195 1024.85 55.9941 1022.16 55.9941V88.6357C1022.16 90.5726 1022.18 92.2702 1022.22 93.7285C1022.29 95.1641 1022.36 96.4059 1022.43 97.4541C1022.52 98.5023 1022.62 99.3796 1022.74 100.086C1022.87 100.792 1023.01 101.385 1023.15 101.863V102H1014.98V101.863C1015.12 101.385 1015.24 100.792 1015.35 100.086C1015.47 99.3796 1015.57 98.5023 1015.66 97.4541C1015.75 96.4059 1015.82 95.1641 1015.87 93.7285C1015.91 92.2702 1015.94 90.5726 1015.94 88.6357V55.9941ZM1044.89 52.9863C1047.73 52.9863 1050.56 52.9749 1053.36 52.9521C1056.19 52.9294 1058.77 52.9066 1061.12 52.8838C1063.47 52.8382 1065.47 52.7812 1067.14 52.7129C1068.8 52.6445 1069.93 52.5534 1070.52 52.4395L1068.85 56.9854C1068.09 56.7803 1067.22 56.598 1066.21 56.4385C1065.35 56.3018 1064.29 56.1764 1063.04 56.0625C1061.8 55.9258 1060.38 55.8574 1058.76 55.8574C1058.22 55.8574 1057.56 55.8802 1056.78 55.9258C1056.03 55.9486 1055.3 55.9827 1054.59 56.0283C1053.77 56.0739 1052.94 56.1195 1052.1 56.165V74.8271C1054.44 74.8044 1056.56 74.736 1058.46 74.6221C1060.35 74.5081 1061.95 74.3942 1063.27 74.2803C1064.82 74.1436 1066.19 73.984 1067.38 73.8018L1066.32 78.7578C1064.74 78.5527 1063.14 78.359 1061.5 78.1768C1060.08 78.0173 1058.55 77.8805 1056.88 77.7666C1055.22 77.6299 1053.62 77.5615 1052.1 77.5615V98.9922C1054.79 98.9922 1057.26 98.8783 1059.51 98.6504C1061.77 98.4225 1063.74 98.1605 1065.43 97.8643C1067.39 97.5452 1069.18 97.1693 1070.79 96.7363L1069.8 102.273C1069.53 102.251 1069.12 102.228 1068.57 102.205C1068.03 102.182 1067.41 102.16 1066.73 102.137C1066.07 102.114 1065.36 102.091 1064.61 102.068C1063.88 102.068 1063.18 102.057 1062.52 102.034C1061.86 102.034 1061.27 102.023 1060.75 102C1060.24 102 1059.88 102 1059.65 102H1044.89V101.863C1045.02 101.385 1045.15 100.792 1045.26 100.086C1045.4 99.3796 1045.51 98.5023 1045.6 97.4541C1045.69 96.4059 1045.76 95.1641 1045.81 93.7285C1045.85 92.2702 1045.88 90.5726 1045.88 88.6357V66.3848C1045.88 64.4479 1045.85 62.7617 1045.81 61.3262C1045.76 59.8678 1045.69 58.6146 1045.6 57.5664C1045.51 56.4954 1045.4 55.6068 1045.26 54.9004C1045.15 54.194 1045.02 53.6016 1044.89 53.123V52.9863ZM1076.78 101.863C1077.03 101.499 1077.31 100.963 1077.63 100.257C1077.95 99.5277 1078.2 98.6162 1078.38 97.5225C1078.63 95.9274 1078.91 94.1387 1079.2 92.1562C1079.52 90.151 1079.84 88.0547 1080.16 85.8672C1080.5 83.6797 1080.83 81.4466 1081.15 79.168C1081.49 76.8665 1081.81 74.6107 1082.11 72.4004C1082.43 70.1673 1082.72 68.0254 1083 65.9746C1083.29 63.901 1083.55 62.0098 1083.78 60.3008C1084.01 58.5918 1084.19 57.1107 1084.33 55.8574C1084.49 54.5814 1084.6 53.6243 1084.67 52.9863H1089.01L1110.51 93.1816L1131.84 52.9863H1135.09L1140.69 93.5918C1140.85 94.8678 1141.02 95.9616 1141.2 96.873C1141.39 97.7845 1141.57 98.5706 1141.75 99.2314C1141.93 99.8695 1142.1 100.405 1142.26 100.838C1142.45 101.248 1142.62 101.59 1142.78 101.863V102H1134.16V101.863C1134.28 101.613 1134.38 101.202 1134.47 100.633C1134.58 100.063 1134.64 99.3796 1134.64 98.582C1134.64 98.2858 1134.63 97.9896 1134.61 97.6934C1134.58 97.3743 1134.55 97.0326 1134.5 96.668L1130.16 63.9238L1110 101.863L1107.64 101.59L1087.34 63.582C1086.54 68.9824 1085.84 73.9727 1085.25 78.5527C1085 80.5124 1084.75 82.472 1084.5 84.4316C1084.25 86.3685 1084.02 88.18 1083.82 89.8662C1083.63 91.5524 1083.49 93.0449 1083.37 94.3438C1083.26 95.6198 1083.2 96.5654 1083.2 97.1807C1083.2 97.9554 1083.22 98.639 1083.27 99.2314C1083.32 99.8239 1083.36 100.325 1083.41 100.735C1083.47 101.214 1083.54 101.635 1083.61 102H1076.78V101.863ZM1185.57 66.3848C1185.57 64.4479 1185.55 62.7617 1185.5 61.3262C1185.46 59.8678 1185.39 58.6146 1185.3 57.5664C1185.2 56.4954 1185.1 55.6068 1184.99 54.9004C1184.87 54.194 1184.75 53.6016 1184.61 53.123V52.9863H1190.7V53.123C1190.56 53.6016 1190.42 54.194 1190.29 54.9004C1190.17 55.6068 1190.07 56.4954 1189.98 57.5664C1189.91 58.6146 1189.84 59.8678 1189.77 61.3262C1189.73 62.7617 1189.71 64.4479 1189.71 66.3848V84.8418C1189.71 88.1003 1189.24 90.8802 1188.3 93.1816C1187.37 95.4831 1186.07 97.3743 1184.41 98.8555C1182.74 100.314 1180.75 101.373 1178.43 102.034C1176.1 102.718 1173.56 103.06 1170.8 103.06C1168.05 103.06 1165.47 102.741 1163.08 102.103C1160.71 101.465 1158.64 100.439 1156.86 99.0264C1155.1 97.5908 1153.73 95.7451 1152.72 93.4893C1151.72 91.2106 1151.22 88.4421 1151.22 85.1836V66.3848C1151.22 64.4479 1151.2 62.7617 1151.15 61.3262C1151.1 59.8678 1151.04 58.6146 1150.95 57.5664C1150.85 56.4954 1150.74 55.6068 1150.6 54.9004C1150.49 54.194 1150.36 53.6016 1150.23 53.123V52.9863H1158.43V53.123C1158.29 53.6016 1158.16 54.194 1158.02 54.9004C1157.91 55.6068 1157.8 56.4954 1157.71 57.5664C1157.62 58.6146 1157.55 59.8678 1157.51 61.3262C1157.46 62.7617 1157.44 64.4479 1157.44 66.3848V85.5596C1157.44 88.2712 1157.84 90.5156 1158.64 92.293C1159.46 94.0475 1160.53 95.4489 1161.85 96.4971C1163.17 97.5225 1164.67 98.2402 1166.36 98.6504C1168.05 99.0605 1169.77 99.2656 1171.52 99.2656C1173.28 99.2656 1175 99.0605 1176.68 98.6504C1178.37 98.2402 1179.86 97.5225 1181.16 96.4971C1182.48 95.4489 1183.54 94.0475 1184.34 92.293C1185.16 90.5156 1185.57 88.2712 1185.57 85.5596V66.3848ZM1234.1 102V101.863C1234.15 101.749 1234.18 101.578 1234.21 101.351C1234.23 101.123 1234.24 100.918 1234.24 100.735C1234.24 100.029 1234.14 99.2542 1233.93 98.4111C1233.75 97.5452 1233.39 96.4743 1232.84 95.1982L1228.7 85.9014C1227.43 85.8558 1225.73 85.833 1223.61 85.833C1221.49 85.833 1219.2 85.833 1216.74 85.833C1214.94 85.833 1213.2 85.833 1211.51 85.833C1209.85 85.833 1208.34 85.8558 1207 85.9014L1203.07 94.9248C1202.73 95.7679 1202.36 96.6908 1201.98 97.6934C1201.59 98.696 1201.39 99.71 1201.39 100.735C1201.39 101.032 1201.42 101.282 1201.46 101.487C1201.51 101.67 1201.55 101.795 1201.6 101.863V102H1194.63V101.863C1195.04 101.43 1195.55 100.667 1196.17 99.5732C1196.78 98.4567 1197.45 97.0667 1198.18 95.4033L1217.77 51.9609H1220.5L1239.06 93.7285C1239.49 94.7083 1239.94 95.6654 1240.39 96.5996C1240.87 97.5111 1241.32 98.3314 1241.73 99.0605C1242.14 99.7897 1242.5 100.405 1242.82 100.906C1243.14 101.408 1243.36 101.727 1243.47 101.863V102H1234.1ZM1211.96 82.8936C1213.28 82.8936 1214.63 82.8936 1216.02 82.8936C1217.41 82.8708 1218.77 82.8594 1220.09 82.8594C1221.44 82.8366 1222.72 82.8252 1223.95 82.8252C1225.18 82.8024 1226.3 82.7796 1227.3 82.7568L1217.7 61.0527L1208.26 82.8936H1211.96ZM1249.62 52.9863L1284.83 90.4473V66.3848C1284.83 64.4479 1284.8 62.7617 1284.76 61.3262C1284.71 59.8678 1284.64 58.6146 1284.55 57.5664C1284.46 56.4954 1284.35 55.6068 1284.21 54.9004C1284.1 54.194 1283.97 53.6016 1283.84 53.123V52.9863H1289.92V53.123C1289.78 53.6016 1289.66 54.194 1289.54 54.9004C1289.43 55.6068 1289.33 56.4954 1289.24 57.5664C1289.15 58.6146 1289.08 59.8678 1289.03 61.3262C1288.99 62.7617 1288.96 64.4479 1288.96 66.3848V102.684H1287.77L1252.56 65.2568V88.6357C1252.56 90.5726 1252.58 92.2702 1252.63 93.7285C1252.68 95.1641 1252.74 96.4059 1252.83 97.4541C1252.93 98.5023 1253.03 99.3796 1253.14 100.086C1253.26 100.792 1253.38 101.385 1253.52 101.863V102H1247.43V101.863C1247.57 101.385 1247.7 100.792 1247.81 100.086C1247.95 99.3796 1248.06 98.5023 1248.15 97.4541C1248.24 96.4059 1248.31 95.1641 1248.36 93.7285C1248.4 92.2702 1248.43 90.5726 1248.43 88.6357V66.3848C1248.43 64.4479 1248.4 62.7617 1248.36 61.3262C1248.31 59.8678 1248.24 58.6146 1248.15 57.5664C1248.06 56.4954 1247.95 55.6068 1247.81 54.9004C1247.7 54.194 1247.57 53.6016 1247.43 53.123V52.9863H1249.62ZM589.373 157.926C589.327 160.478 589.282 162.95 589.236 165.343C589.214 166.368 589.191 167.416 589.168 168.487C589.168 169.558 589.157 170.618 589.134 171.666C589.134 172.691 589.122 173.683 589.1 174.64C589.1 175.574 589.1 176.406 589.1 177.135C589.1 178.661 589.111 180.507 589.134 182.672C589.157 184.837 589.179 187.058 589.202 189.337C589.248 191.616 589.305 193.803 589.373 195.899C589.441 197.996 589.521 199.739 589.612 201.129C589.931 201.174 590.353 201.231 590.877 201.3C591.424 201.345 591.993 201.391 592.586 201.437C593.178 201.459 593.759 201.482 594.329 201.505C594.899 201.528 595.377 201.539 595.765 201.539C597.36 201.539 598.989 201.437 600.652 201.231C602.339 201.004 603.956 200.593 605.506 200.001C607.078 199.409 608.548 198.6 609.915 197.574C611.305 196.526 612.513 195.182 613.538 193.541C614.586 191.9 615.407 189.929 615.999 187.628C616.591 185.304 616.888 182.569 616.888 179.425C616.888 175.938 616.466 172.84 615.623 170.128C614.78 167.394 613.538 165.092 611.897 163.224C610.28 161.355 608.263 159.942 605.848 158.985C603.455 158.006 600.698 157.516 597.576 157.516C596.961 157.516 596.266 157.538 595.491 157.584C594.716 157.607 593.942 157.641 593.167 157.687C592.415 157.709 591.697 157.755 591.014 157.823C590.353 157.869 589.806 157.903 589.373 157.926ZM581.888 154.85C582.412 154.872 582.902 154.895 583.357 154.918C583.745 154.941 584.144 154.964 584.554 154.986C584.964 154.986 585.294 154.986 585.545 154.986C585.978 154.986 586.696 154.964 587.698 154.918C588.724 154.872 589.886 154.827 591.185 154.781C592.483 154.736 593.828 154.69 595.218 154.645C596.631 154.599 597.952 154.576 599.183 154.576C602.487 154.576 605.631 154.986 608.616 155.807C611.601 156.627 614.222 157.971 616.478 159.84C618.733 161.708 620.522 164.158 621.844 167.188C623.165 170.219 623.826 173.945 623.826 178.365C623.826 181.533 623.473 184.381 622.767 186.91C622.083 189.439 621.115 191.673 619.861 193.609C618.608 195.546 617.104 197.21 615.35 198.6C613.618 199.967 611.692 201.095 609.573 201.983C607.477 202.872 605.232 203.521 602.84 203.932C600.447 204.342 597.975 204.547 595.423 204.547C594.511 204.547 593.406 204.513 592.107 204.444C590.831 204.399 589.544 204.342 588.245 204.273C586.946 204.205 585.716 204.137 584.554 204.068C583.414 204.023 582.526 204 581.888 204V203.863C582.024 203.385 582.15 202.792 582.264 202.086C582.4 201.38 582.514 200.502 582.605 199.454C582.697 198.406 582.765 197.164 582.811 195.729C582.856 194.27 582.879 192.573 582.879 190.636V168.385C582.879 166.448 582.856 164.75 582.811 163.292C582.765 161.811 582.697 160.546 582.605 159.498C582.514 158.427 582.4 157.527 582.264 156.798C582.15 156.069 582.024 155.465 581.888 154.986V154.85ZM631.858 154.986C634.707 154.986 637.532 154.975 640.335 154.952C643.16 154.929 645.747 154.907 648.094 154.884C650.441 154.838 652.446 154.781 654.109 154.713C655.773 154.645 656.901 154.553 657.493 154.439L655.818 158.985C655.066 158.78 654.189 158.598 653.187 158.438C652.321 158.302 651.261 158.176 650.008 158.062C648.777 157.926 647.353 157.857 645.735 157.857C645.188 157.857 644.528 157.88 643.753 157.926C643.001 157.949 642.272 157.983 641.565 158.028C640.745 158.074 639.913 158.119 639.07 158.165V176.827C641.417 176.804 643.536 176.736 645.428 176.622C647.319 176.508 648.925 176.394 650.247 176.28C651.797 176.144 653.164 175.984 654.349 175.802L653.289 180.758C651.717 180.553 650.11 180.359 648.47 180.177C647.057 180.017 645.519 179.881 643.855 179.767C642.192 179.63 640.597 179.562 639.07 179.562V200.992C641.759 200.992 644.231 200.878 646.487 200.65C648.743 200.423 650.714 200.16 652.4 199.864C654.36 199.545 656.149 199.169 657.767 198.736L656.775 204.273C656.502 204.251 656.092 204.228 655.545 204.205C654.998 204.182 654.383 204.16 653.699 204.137C653.038 204.114 652.332 204.091 651.58 204.068C650.851 204.068 650.156 204.057 649.495 204.034C648.834 204.034 648.242 204.023 647.718 204C647.216 204 646.852 204 646.624 204H631.858V203.863C631.995 203.385 632.12 202.792 632.234 202.086C632.371 201.38 632.485 200.502 632.576 199.454C632.667 198.406 632.736 197.164 632.781 195.729C632.827 194.27 632.85 192.573 632.85 190.636V168.385C632.85 166.448 632.827 164.762 632.781 163.326C632.736 161.868 632.667 160.615 632.576 159.566C632.485 158.495 632.371 157.607 632.234 156.9C632.12 156.194 631.995 155.602 631.858 155.123V154.986ZM686.614 162.779H685.862C685.68 162.255 685.384 161.663 684.974 161.002C684.586 160.341 684.062 159.726 683.401 159.156C682.763 158.564 681.977 158.074 681.043 157.687C680.132 157.299 679.049 157.105 677.796 157.105C676.679 157.105 675.688 157.276 674.822 157.618C673.956 157.96 673.227 158.438 672.635 159.054C672.065 159.669 671.632 160.398 671.336 161.241C671.04 162.084 670.892 163.019 670.892 164.044C670.892 165.685 671.347 167.257 672.259 168.761C673.193 170.242 674.355 171.712 675.745 173.17C677.135 174.628 678.639 176.087 680.257 177.545C681.875 179.003 683.379 180.519 684.769 182.091C686.159 183.663 687.309 185.315 688.221 187.047C689.155 188.756 689.622 190.602 689.622 192.584C689.622 194.065 689.36 195.558 688.836 197.062C688.335 198.543 687.549 199.876 686.478 201.061C685.407 202.245 684.028 203.214 682.342 203.966C680.656 204.695 678.65 205.06 676.326 205.06C675.027 205.06 673.785 204.934 672.601 204.684C671.438 204.456 670.356 204.171 669.354 203.829C668.374 203.465 667.485 203.077 666.688 202.667C665.913 202.257 665.275 201.881 664.773 201.539L665.56 193.985H666.414C666.665 195.056 667.075 196.082 667.645 197.062C668.214 198.019 668.909 198.873 669.729 199.625C670.573 200.354 671.53 200.947 672.601 201.402C673.672 201.835 674.845 202.052 676.121 202.052C677.283 202.052 678.32 201.881 679.231 201.539C680.166 201.174 680.963 200.685 681.624 200.069C682.285 199.431 682.786 198.679 683.128 197.813C683.493 196.948 683.675 196.002 683.675 194.977C683.675 193.541 683.413 192.219 682.889 191.012C682.365 189.781 681.67 188.619 680.804 187.525C679.961 186.432 678.992 185.372 677.898 184.347C676.827 183.321 675.722 182.296 674.583 181.271C673.444 180.222 672.327 179.151 671.233 178.058C670.162 176.964 669.194 175.802 668.328 174.571C667.485 173.318 666.801 171.985 666.277 170.572C665.753 169.137 665.491 167.564 665.491 165.855C665.491 164.055 665.833 162.438 666.517 161.002C667.223 159.544 668.146 158.302 669.285 157.276C670.447 156.251 671.757 155.465 673.216 154.918C674.674 154.371 676.178 154.098 677.728 154.098C678.867 154.098 679.915 154.189 680.872 154.371C681.829 154.553 682.684 154.77 683.436 155.021C684.21 155.271 684.882 155.522 685.452 155.772C686.022 156.023 686.489 156.228 686.854 156.388L686.614 162.779ZM731.937 204V203.863C731.982 203.749 732.016 203.578 732.039 203.351C732.062 203.123 732.073 202.918 732.073 202.735C732.073 202.029 731.971 201.254 731.766 200.411C731.583 199.545 731.219 198.474 730.672 197.198L726.536 187.901C725.26 187.856 723.562 187.833 721.443 187.833C719.324 187.833 717.034 187.833 714.573 187.833C712.773 187.833 711.03 187.833 709.344 187.833C707.68 187.833 706.176 187.856 704.832 187.901L700.901 196.925C700.56 197.768 700.195 198.691 699.808 199.693C699.42 200.696 699.227 201.71 699.227 202.735C699.227 203.032 699.249 203.282 699.295 203.487C699.34 203.67 699.386 203.795 699.432 203.863V204H692.459V203.863C692.869 203.43 693.382 202.667 693.997 201.573C694.612 200.457 695.285 199.067 696.014 197.403L715.599 153.961H718.333L736.893 195.729C737.326 196.708 737.77 197.665 738.226 198.6C738.704 199.511 739.148 200.331 739.559 201.061C739.969 201.79 740.333 202.405 740.652 202.906C740.971 203.408 741.188 203.727 741.302 203.863V204H731.937ZM709.788 184.894C711.11 184.894 712.465 184.894 713.855 184.894C715.245 184.871 716.601 184.859 717.923 184.859C719.267 184.837 720.555 184.825 721.785 184.825C723.016 184.802 724.132 184.78 725.135 184.757L715.53 163.053L706.097 184.894H709.788ZM806.175 162.506L805.867 162.643C804.09 161.002 801.948 159.692 799.441 158.712C796.958 157.732 794.223 157.242 791.238 157.242C788.367 157.242 785.735 157.698 783.343 158.609C780.95 159.498 778.888 160.797 777.156 162.506C775.447 164.215 774.114 166.311 773.157 168.795C772.2 171.279 771.722 174.104 771.722 177.271C771.722 180.758 772.177 184.016 773.089 187.047C774 190.055 775.356 192.664 777.156 194.874C778.956 197.084 781.201 198.827 783.89 200.104C786.601 201.357 789.757 201.983 793.357 201.983C794.656 201.983 795.955 201.847 797.254 201.573C798.553 201.3 799.795 200.901 800.979 200.377C802.187 199.83 803.315 199.181 804.363 198.429C805.434 197.654 806.403 196.777 807.269 195.797L807.645 196.036L804.91 203.009C803.201 203.67 801.31 204.171 799.236 204.513C797.186 204.877 795.112 205.06 793.016 205.06C788.8 205.06 784.938 204.456 781.429 203.248C777.942 202.018 774.935 200.286 772.405 198.053C769.899 195.82 767.939 193.142 766.526 190.021C765.136 186.876 764.441 183.39 764.441 179.562C764.441 177.397 764.715 175.266 765.262 173.17C765.831 171.074 766.652 169.08 767.723 167.188C768.794 165.297 770.115 163.565 771.688 161.993C773.26 160.398 775.049 159.02 777.054 157.857C779.082 156.695 781.303 155.795 783.719 155.157C786.157 154.496 788.789 154.166 791.614 154.166C796.012 154.166 800.091 154.838 803.851 156.183L806.175 162.506ZM848.147 204V203.863C848.193 203.749 848.227 203.578 848.25 203.351C848.273 203.123 848.284 202.918 848.284 202.735C848.284 202.029 848.182 201.254 847.977 200.411C847.794 199.545 847.43 198.474 846.883 197.198L842.747 187.901C841.471 187.856 839.773 187.833 837.654 187.833C835.535 187.833 833.245 187.833 830.784 187.833C828.984 187.833 827.241 187.833 825.555 187.833C823.891 187.833 822.387 187.856 821.043 187.901L817.112 196.925C816.771 197.768 816.406 198.691 816.019 199.693C815.631 200.696 815.438 201.71 815.438 202.735C815.438 203.032 815.46 203.282 815.506 203.487C815.551 203.67 815.597 203.795 815.643 203.863V204H808.67V203.863C809.08 203.43 809.593 202.667 810.208 201.573C810.823 200.457 811.495 199.067 812.225 197.403L831.81 153.961H834.544L853.104 195.729C853.536 196.708 853.981 197.665 854.437 198.6C854.915 199.511 855.359 200.331 855.77 201.061C856.18 201.79 856.544 202.405 856.863 202.906C857.182 203.408 857.399 203.727 857.513 203.863V204H848.147ZM825.999 184.894C827.321 184.894 828.676 184.894 830.066 184.894C831.456 184.871 832.812 184.859 834.134 184.859C835.478 184.837 836.766 184.825 837.996 184.825C839.227 184.802 840.343 184.78 841.346 184.757L831.741 163.053L822.308 184.894H825.999ZM863.665 154.986L898.87 192.447V168.385C898.87 166.448 898.847 164.762 898.802 163.326C898.756 161.868 898.688 160.615 898.597 159.566C898.506 158.495 898.392 157.607 898.255 156.9C898.141 156.194 898.016 155.602 897.879 155.123V154.986H903.963V155.123C903.826 155.602 903.701 156.194 903.587 156.9C903.473 157.607 903.37 158.495 903.279 159.566C903.188 160.615 903.12 161.868 903.074 163.326C903.029 164.762 903.006 166.448 903.006 168.385V204.684H901.81L866.604 167.257V190.636C866.604 192.573 866.627 194.27 866.673 195.729C866.718 197.164 866.787 198.406 866.878 199.454C866.969 200.502 867.072 201.38 867.186 202.086C867.299 202.792 867.425 203.385 867.562 203.863V204H861.478V203.863C861.614 203.385 861.74 202.792 861.854 202.086C861.99 201.38 862.104 200.502 862.195 199.454C862.286 198.406 862.355 197.164 862.4 195.729C862.446 194.27 862.469 192.573 862.469 190.636V168.385C862.469 166.448 862.446 164.762 862.4 163.326C862.355 161.868 862.286 160.615 862.195 159.566C862.104 158.495 861.99 157.607 861.854 156.9C861.74 156.194 861.614 155.602 861.478 155.123V154.986H863.665ZM956.634 198.258C956.634 198.508 956.6 198.771 956.531 199.044C956.486 199.317 956.36 199.545 956.155 199.728C955.13 200.502 954.013 201.22 952.806 201.881C951.621 202.519 950.333 203.077 948.943 203.556C947.553 204.034 946.049 204.399 944.432 204.649C942.837 204.923 941.116 205.06 939.271 205.06C935.123 205.06 931.341 204.456 927.923 203.248C924.505 202.018 921.565 200.286 919.104 198.053C916.666 195.82 914.775 193.142 913.431 190.021C912.086 186.876 911.414 183.39 911.414 179.562C911.414 177.397 911.688 175.266 912.234 173.17C912.804 171.074 913.624 169.08 914.695 167.188C915.766 165.297 917.088 163.565 918.66 161.993C920.232 160.398 922.021 159.02 924.026 157.857C926.054 156.695 928.276 155.795 930.691 155.157C933.13 154.496 935.761 154.166 938.587 154.166C939.681 154.166 940.797 154.223 941.937 154.337C943.076 154.428 944.204 154.576 945.32 154.781C946.437 154.964 947.508 155.191 948.533 155.465C949.581 155.738 950.573 156.046 951.507 156.388L953.831 162.711L953.558 162.848C952.669 162.05 951.644 161.31 950.481 160.626C949.319 159.942 948.077 159.35 946.756 158.849C945.434 158.347 944.044 157.96 942.586 157.687C941.15 157.39 939.692 157.242 938.211 157.242C935.34 157.242 932.708 157.698 930.315 158.609C927.923 159.498 925.861 160.797 924.129 162.506C922.42 164.215 921.087 166.311 920.13 168.795C919.173 171.279 918.694 174.104 918.694 177.271C918.694 180.758 919.15 183.993 920.062 186.979C920.973 189.964 922.329 192.55 924.129 194.737C925.929 196.925 928.174 198.645 930.862 199.898C933.574 201.129 936.73 201.744 940.33 201.744C941.925 201.744 943.349 201.619 944.603 201.368C945.856 201.118 946.915 200.81 947.781 200.445C948.647 200.058 949.297 199.648 949.729 199.215C950.185 198.759 950.413 198.349 950.413 197.984V196.651C950.413 195.056 950.39 193.678 950.345 192.516C950.299 191.354 950.231 190.351 950.14 189.508C950.049 188.642 949.946 187.901 949.832 187.286C949.718 186.671 949.581 186.101 949.422 185.577V185.44H957.625V185.577C957.488 186.056 957.352 186.625 957.215 187.286C957.101 187.924 956.998 188.688 956.907 189.576C956.816 190.465 956.748 191.513 956.702 192.721C956.657 193.906 956.634 195.284 956.634 196.856V198.258ZM965.452 203.863C965.589 203.385 965.714 202.792 965.828 202.086C965.965 201.38 966.079 200.502 966.17 199.454C966.261 198.406 966.329 197.164 966.375 195.729C966.421 194.27 966.443 192.573 966.443 190.636V168.385C966.443 166.448 966.421 164.762 966.375 163.326C966.329 161.868 966.261 160.615 966.17 159.566C966.079 158.495 965.965 157.607 965.828 156.9C965.714 156.194 965.589 155.602 965.452 155.123V154.986H973.655V155.123C973.519 155.602 973.382 156.194 973.245 156.9C973.131 157.607 973.029 158.495 972.938 159.566C972.869 160.615 972.801 161.868 972.732 163.326C972.687 164.762 972.664 166.448 972.664 168.385V176.007L992.625 159.703C994.858 157.88 995.975 156.308 995.975 154.986H1005.58V155.123C1004.23 155.442 1002.87 156.057 1001.48 156.969C1000.11 157.857 998.652 158.951 997.103 160.25L979.466 175.016L1000.69 198.326C1001.58 199.238 1002.33 200.001 1002.95 200.616C1003.59 201.209 1004.14 201.71 1004.62 202.12C1005.1 202.507 1005.53 202.838 1005.92 203.111C1006.33 203.362 1006.75 203.613 1007.19 203.863V204H997.171C997.08 203.795 996.92 203.533 996.692 203.214C996.487 202.895 996.237 202.564 995.94 202.223C995.667 201.881 995.359 201.528 995.018 201.163C994.699 200.799 994.391 200.457 994.095 200.138L972.664 176.622V190.636C972.664 192.573 972.687 194.27 972.732 195.729C972.801 197.164 972.869 198.406 972.938 199.454C973.029 200.502 973.131 201.38 973.245 202.086C973.382 202.792 973.519 203.385 973.655 203.863V204H965.452V203.863ZM1031.35 154.166C1035.16 154.166 1038.67 154.793 1041.88 156.046C1045.11 157.276 1047.9 159.02 1050.25 161.275C1052.6 163.508 1054.43 166.197 1055.75 169.342C1057.08 172.486 1057.74 175.961 1057.74 179.767C1057.74 181.931 1057.49 184.062 1056.99 186.158C1056.48 188.255 1055.74 190.237 1054.76 192.105C1053.81 193.974 1052.62 195.706 1051.21 197.301C1049.8 198.873 1048.18 200.24 1046.36 201.402C1044.56 202.542 1042.56 203.43 1040.37 204.068C1038.19 204.729 1035.83 205.06 1033.3 205.06C1029.49 205.06 1025.97 204.456 1022.74 203.248C1019.52 202.018 1016.74 200.286 1014.4 198.053C1012.05 195.82 1010.22 193.142 1008.89 190.021C1007.57 186.876 1006.91 183.39 1006.91 179.562C1006.91 177.397 1007.16 175.266 1007.66 173.17C1008.17 171.074 1008.89 169.08 1009.85 167.188C1010.83 165.297 1012.02 163.565 1013.41 161.993C1014.82 160.398 1016.43 159.02 1018.23 157.857C1020.05 156.695 1022.05 155.795 1024.24 155.157C1026.45 154.496 1028.82 154.166 1031.35 154.166ZM1033.3 201.983C1035.83 201.983 1038.14 201.528 1040.24 200.616C1042.33 199.705 1044.13 198.383 1045.64 196.651C1047.16 194.92 1048.35 192.812 1049.19 190.328C1050.04 187.822 1050.46 184.985 1050.46 181.817C1050.46 178.308 1050.05 175.061 1049.23 172.076C1048.43 169.068 1047.23 166.471 1045.64 164.283C1044.04 162.073 1042.05 160.353 1039.66 159.122C1037.29 157.869 1034.52 157.242 1031.35 157.242C1028.82 157.242 1026.51 157.698 1024.41 158.609C1022.32 159.498 1020.5 160.797 1018.98 162.506C1017.47 164.215 1016.3 166.311 1015.46 168.795C1014.61 171.279 1014.19 174.104 1014.19 177.271C1014.19 180.758 1014.59 184.016 1015.39 187.047C1016.19 190.055 1017.38 192.664 1018.98 194.874C1020.57 197.084 1022.57 198.827 1024.96 200.104C1027.35 201.357 1030.13 201.983 1033.3 201.983ZM1072.67 200.992C1075.36 200.992 1077.83 200.878 1080.09 200.65C1082.35 200.423 1084.32 200.16 1086 199.864C1087.96 199.545 1089.75 199.169 1091.37 198.736L1090.38 204.273C1090.11 204.251 1089.7 204.228 1089.15 204.205C1088.6 204.182 1087.99 204.16 1087.3 204.137C1086.64 204.114 1085.94 204.091 1085.18 204.068C1084.45 204.068 1083.76 204.057 1083.1 204.034C1082.44 204.034 1081.85 204.023 1081.32 204C1080.82 204 1080.46 204 1080.23 204H1065.46V203.863C1065.6 203.385 1065.72 202.792 1065.84 202.086C1065.97 201.38 1066.09 200.502 1066.18 199.454C1066.27 198.406 1066.34 197.164 1066.38 195.729C1066.43 194.27 1066.45 192.573 1066.45 190.636V168.385C1066.45 166.448 1066.43 164.762 1066.38 163.326C1066.34 161.868 1066.27 160.615 1066.18 159.566C1066.09 158.495 1065.97 157.607 1065.84 156.9C1065.72 156.194 1065.6 155.602 1065.46 155.123V154.986H1073.67V155.123C1073.53 155.602 1073.39 156.194 1073.25 156.9C1073.14 157.607 1073.04 158.495 1072.95 159.566C1072.88 160.615 1072.81 161.868 1072.74 163.326C1072.7 164.762 1072.67 166.448 1072.67 168.385V200.992Z" fill="#EBEBEB"/>
<path d="M53.6996 99.1973L163.049 0L217.135 49.0825L272.125 0L323.922 49.0825L380.105 0L488.265 99.1973V246.104L449.652 226.264V121.324L380.105 57.3781L356.262 76.3889L380.105 104.409V202.173L343.381 193.199V121.324L272.125 57.3781L198.677 121.324V193.199L163.049 202.173V99.5476L185.796 76.3889L163.049 57.3781L92.8901 121.324V226.264L53.6996 246.104V99.1973Z" fill="#BDAD5C"/>
<path d="M269.81 215.126C437.42 215.323 535.866 273.362 535.866 273.362C535.866 273.362 416.964 186.074 269.81 185.901C122.656 185.728 4 272.737 4 272.737C4 272.737 102.2 214.929 269.81 215.126Z" fill="#BDAD5C"/>
</g>
<defs>
<filter id="filter0_d_114_23" x="0" y="0" width="1293.92" height="281.362" filterUnits="userSpaceOnUse" color-interpolation-filters="sRGB">
<feFlood flood-opacity="0" result="BackgroundImageFix"/>
<feColorMatrix in="SourceAlpha" type="matrix" values="0 0 0 0 0 0 0 0 0 0 0 0 0 0 0 0 0 0 127 0" result="hardAlpha"/>
<feOffset dy="4"/>
<feGaussianBlur stdDeviation="2"/>
<feComposite in2="hardAlpha" operator="out"/>
<feColorMatrix type="matrix" values="0 0 0 0 0 0 0 0 0 0 0 0 0 0 0 0 0 0 0.25 0"/>
<feBlend mode="normal" in2="BackgroundImageFix" result="effect1_dropShadow_114_23"/>
<feBlend mode="normal" in="SourceGraphic" in2="effect1_dropShadow_114_23" result="shape"/>
</filter>
</defs>
</svg>
