<svg width="906" height="178" viewBox="0 0 906 178" fill="none" xmlns="http://www.w3.org/2000/svg">
<path d="M21.1482 65.9408L93.7553 0.0748596L129.668 32.6651L166.18 0.0748596L200.573 32.6651L237.878 0.0748596L309.695 65.9408V157.996L284.056 146.705V80.6324L237.878 38.1733L222.046 50.7963L237.878 69.4012V134.316L213.493 128.357V80.6324L166.18 38.1733L117.412 80.6324V128.357L93.7553 134.316V66.1734L108.859 50.7963L93.7553 38.1733L47.1703 80.6324V150.312L21.1482 163.485V65.9408Z" fill="#E7EE32"/>
<path d="M170.606 139.457C278.183 139.581 341.367 177.381 341.367 177.381C341.367 177.381 265.053 120.531 170.606 120.422C76.158 120.313 0 176.987 0 176.987C0 176.987 63.0285 139.333 170.606 139.457Z" fill="#E7EE32"/>
<path d="M391.987 77.832C391.987 78.0576 391.956 78.2935 391.894 78.5396C391.853 78.7856 391.74 78.9907 391.556 79.1548C390.633 79.8521 389.628 80.498 388.541 81.0928C387.475 81.667 386.316 82.1694 385.065 82.6001C383.814 83.0308 382.461 83.3589 381.005 83.5845C379.569 83.8306 378.021 83.9536 376.36 83.9536C372.627 83.9536 369.223 83.4102 366.147 82.3232C363.071 81.2158 360.425 79.6572 358.21 77.6475C356.016 75.6377 354.314 73.228 353.104 70.4185C351.894 67.5884 351.289 64.4507 351.289 61.0054C351.289 59.0571 351.535 57.1396 352.027 55.2529C352.54 53.3662 353.278 51.5718 354.242 49.8696C355.206 48.1675 356.395 46.6089 357.81 45.1938C359.225 43.7583 360.835 42.5176 362.64 41.4717C364.465 40.4258 366.465 39.6157 368.638 39.0415C370.833 38.4468 373.201 38.1494 375.744 38.1494C376.729 38.1494 377.734 38.2007 378.759 38.3032C379.784 38.3853 380.8 38.5186 381.804 38.7031C382.809 38.8672 383.773 39.0723 384.696 39.3184C385.639 39.5645 386.531 39.8413 387.372 40.1489L389.464 45.8398L389.218 45.9629C388.418 45.2451 387.495 44.5786 386.449 43.9634C385.404 43.3481 384.286 42.8149 383.096 42.3638C381.907 41.9126 380.656 41.564 379.344 41.3179C378.052 41.0513 376.739 40.918 375.406 40.918C372.822 40.918 370.453 41.3281 368.3 42.1484C366.147 42.9482 364.291 44.1172 362.732 45.6553C361.194 47.1934 359.994 49.0801 359.133 51.3154C358.272 53.5508 357.841 56.0938 357.841 58.9443C357.841 62.082 358.251 64.9941 359.072 67.6807C359.892 70.3672 361.112 72.6948 362.732 74.6636C364.352 76.6323 366.372 78.1807 368.792 79.3086C371.233 80.416 374.073 80.9697 377.313 80.9697C378.749 80.9697 380.031 80.8569 381.158 80.6313C382.286 80.4058 383.24 80.1289 384.019 79.8008C384.799 79.4521 385.383 79.083 385.773 78.6934C386.183 78.2832 386.388 77.9141 386.388 77.5859V76.3862C386.388 74.9507 386.367 73.71 386.326 72.6641C386.285 71.6182 386.224 70.7158 386.142 69.957C386.06 69.1777 385.968 68.5112 385.865 67.9575C385.762 67.4038 385.639 66.8911 385.496 66.4194V66.2964H392.879V66.4194C392.756 66.8501 392.633 67.3628 392.51 67.9575C392.407 68.5317 392.315 69.2188 392.233 70.0186C392.151 70.8184 392.089 71.7617 392.048 72.8486C392.007 73.915 391.987 75.1558 391.987 76.5708V77.832ZM399.554 49.9312C401.564 49.9312 403.625 49.9312 405.737 49.9312C407.849 49.9106 409.808 49.8901 411.613 49.8696C413.417 49.8286 414.966 49.7876 416.258 49.7466C417.57 49.7056 418.431 49.644 418.842 49.562L417.642 52.8843C417.088 52.7407 416.463 52.6074 415.765 52.4844C415.15 52.3818 414.402 52.2896 413.52 52.2075C412.658 52.105 411.654 52.0537 410.505 52.0537C410.095 52.0537 409.623 52.0742 409.09 52.1152C408.557 52.1357 408.044 52.1665 407.552 52.2075C406.978 52.2485 406.393 52.2896 405.799 52.3306V64.4814C407.46 64.4609 408.957 64.4199 410.29 64.3584C411.623 64.2969 412.761 64.2148 413.704 64.1123C414.812 64.0303 415.786 63.9175 416.627 63.7739L415.888 67.4346C414.76 67.291 413.622 67.168 412.474 67.0654C411.49 66.9629 410.403 66.8809 409.213 66.8193C408.024 66.7373 406.885 66.6963 405.799 66.6963V80.6621C407.706 80.6621 409.459 80.5903 411.059 80.4468C412.658 80.2827 414.053 80.1084 415.242 79.9238C416.637 79.6982 417.898 79.4419 419.026 79.1548L418.319 83.1846C418.011 83.1641 417.509 83.1333 416.811 83.0923C416.135 83.0718 415.417 83.0513 414.658 83.0308C413.92 83.0308 413.222 83.0205 412.566 83C411.91 83 411.459 83 411.213 83H399.554V82.877C399.698 82.4463 399.821 81.8926 399.923 81.2158C400.046 80.5391 400.138 79.7085 400.2 78.7241C400.282 77.7192 400.344 76.5298 400.385 75.1558C400.426 73.7817 400.446 72.1719 400.446 70.3262V62.5742C400.446 60.7285 400.426 59.1289 400.385 57.7754C400.344 56.4014 400.282 55.2222 400.2 54.2378C400.138 53.2329 400.046 52.3921 399.923 51.7153C399.821 51.0386 399.698 50.4849 399.554 50.0542V49.9312ZM432.254 52.1152C432.233 53.7969 432.213 55.4272 432.192 57.0063C432.192 57.6831 432.182 58.3804 432.161 59.0981C432.161 59.7954 432.151 60.4927 432.131 61.1899C432.131 61.8872 432.131 62.5537 432.131 63.1895C432.131 63.8047 432.131 64.3584 432.131 64.8506C432.131 65.876 432.131 67.1167 432.131 68.5728C432.151 70.0083 432.172 71.4849 432.192 73.0024C432.213 74.52 432.243 75.9863 432.284 77.4014C432.325 78.7959 432.377 79.9648 432.438 80.9082C432.643 80.9492 432.91 80.9902 433.238 81.0312C433.566 81.0518 433.905 81.0825 434.253 81.1235C434.622 81.144 434.981 81.1646 435.33 81.1851C435.678 81.1851 435.976 81.1851 436.222 81.1851C437.35 81.1851 438.488 81.1133 439.636 80.9697C440.805 80.8262 441.923 80.5596 442.99 80.1699C444.076 79.7598 445.092 79.2061 446.035 78.5088C446.978 77.8115 447.799 76.9194 448.496 75.8325C449.214 74.7251 449.767 73.4023 450.157 71.8643C450.567 70.3057 450.772 68.4702 450.772 66.3579C450.772 61.7026 449.655 58.1138 447.419 55.5913C445.204 53.0688 441.892 51.8076 437.483 51.8076C437.052 51.8076 436.591 51.8179 436.099 51.8384C435.627 51.8589 435.156 51.8896 434.684 51.9307C434.212 51.9512 433.761 51.9819 433.33 52.0229C432.92 52.064 432.561 52.0947 432.254 52.1152ZM425.886 49.8696C426.378 49.8901 426.84 49.9004 427.27 49.9004C427.639 49.9209 427.998 49.9312 428.347 49.9312C428.696 49.9312 428.952 49.9312 429.116 49.9312C429.403 49.9312 429.916 49.9209 430.654 49.9004C431.392 49.8799 432.223 49.8594 433.146 49.8389C434.089 49.7979 435.073 49.7671 436.099 49.7466C437.145 49.7056 438.109 49.6851 438.99 49.6851C441.39 49.6851 443.677 49.9619 445.85 50.5156C448.024 51.0693 449.931 51.9819 451.572 53.2534C453.233 54.5044 454.546 56.1553 455.51 58.2061C456.473 60.2363 456.955 62.7485 456.955 65.7427C456.955 68.9624 456.402 71.6899 455.294 73.9253C454.187 76.1606 452.69 77.9858 450.803 79.4009C448.916 80.7954 446.722 81.8105 444.22 82.4463C441.739 83.0615 439.114 83.3691 436.345 83.3691C435.689 83.3691 434.868 83.3486 433.884 83.3076C432.9 83.2666 431.895 83.2256 430.869 83.1846C429.844 83.1436 428.87 83.1025 427.947 83.0615C427.045 83.0205 426.358 83 425.886 83V82.877C426.03 82.4463 426.153 81.8926 426.255 81.2158C426.378 80.5391 426.47 79.7085 426.532 78.7241C426.614 77.7192 426.676 76.5298 426.717 75.1558C426.758 73.7817 426.778 72.1719 426.778 70.3262V62.5742C426.778 60.7285 426.758 59.1187 426.717 57.7446C426.676 56.3706 426.614 55.1812 426.532 54.1763C426.47 53.1714 426.378 52.3306 426.255 51.6538C426.153 50.9771 426.03 50.4233 425.886 49.9927V49.8696ZM488.794 62.4512C488.794 60.626 488.783 59.0366 488.763 57.6831C488.742 56.3296 488.701 55.1606 488.64 54.1763C488.578 53.1919 488.507 52.3716 488.425 51.7153C488.343 51.0386 488.24 50.4849 488.117 50.0542V49.9312H492.639V50.0542C492.516 50.4849 492.413 51.0386 492.331 51.7153C492.249 52.3921 492.177 53.2329 492.116 54.2378C492.054 55.2222 492.013 56.4014 491.993 57.7754C491.972 59.1289 491.962 60.7285 491.962 62.5742V71.4028C491.962 73.6177 491.614 75.5044 490.916 77.063C490.24 78.6216 489.296 79.9033 488.086 80.9082C486.876 81.8926 485.43 82.6104 483.749 83.0615C482.088 83.5332 480.262 83.769 478.273 83.769C476.263 83.769 474.397 83.5435 472.675 83.0923C470.952 82.6616 469.455 81.9644 468.183 81.0005C466.932 80.0366 465.938 78.7856 465.199 77.2476C464.482 75.7095 464.123 73.8433 464.123 71.6489V62.5742C464.123 60.7285 464.102 59.1289 464.061 57.7754C464.02 56.4014 463.959 55.2222 463.877 54.2378C463.795 53.2329 463.702 52.3921 463.6 51.7153C463.497 51.0386 463.374 50.4849 463.231 50.0542V49.9312H470.337V50.0542C470.193 50.4849 470.07 51.0386 469.968 51.7153C469.865 52.3716 469.773 53.1919 469.691 54.1763C469.629 55.1606 469.578 56.3296 469.537 57.6831C469.496 59.0366 469.475 60.626 469.475 62.4512V71.6489C469.475 73.4741 469.752 74.9814 470.306 76.1709C470.86 77.3398 471.588 78.2729 472.49 78.9702C473.392 79.6675 474.418 80.1597 475.566 80.4468C476.715 80.7134 477.894 80.8467 479.104 80.8467C480.334 80.8467 481.524 80.7134 482.672 80.4468C483.841 80.1597 484.877 79.6675 485.779 78.9702C486.702 78.2729 487.43 77.3398 487.963 76.1709C488.517 74.9814 488.794 73.4741 488.794 71.6489V62.4512ZM530.199 83.4307H528.999L504.544 59.375V70.3262C504.544 72.1719 504.554 73.7817 504.574 75.1558C504.595 76.5298 504.626 77.7192 504.667 78.7241C504.728 79.7085 504.8 80.5391 504.882 81.2158C504.985 81.8926 505.108 82.4463 505.251 82.877V83H500.637V82.877C500.781 82.4463 500.904 81.8926 501.006 81.2158C501.109 80.5391 501.191 79.7085 501.252 78.7241C501.314 77.7192 501.355 76.5298 501.375 75.1558C501.396 73.7817 501.406 72.1719 501.406 70.3262V62.5742C501.406 60.7285 501.396 59.1289 501.375 57.7754C501.355 56.4014 501.314 55.2222 501.252 54.2378C501.191 53.2329 501.109 52.3921 501.006 51.7153C500.904 51.0386 500.781 50.4849 500.637 50.0542V49.9312H502.544L527.031 74.1099V62.5742C527.031 60.7285 527.02 59.1289 527 57.7754C526.979 56.4014 526.938 55.2222 526.877 54.2378C526.836 53.2329 526.774 52.3921 526.692 51.7153C526.61 51.0386 526.497 50.4849 526.354 50.0542V49.9312H530.937V50.0542C530.794 50.4849 530.671 51.0386 530.568 51.7153C530.486 52.3921 530.414 53.2329 530.353 54.2378C530.291 55.2222 530.25 56.4014 530.23 57.7754C530.209 59.1289 530.199 60.7285 530.199 62.5742V83.4307ZM569.266 79.2778C569.266 79.5444 569.236 79.77 569.174 79.9546C569.133 80.1392 569.02 80.293 568.836 80.416C567.38 81.4414 565.677 82.2617 563.729 82.877C561.802 83.4717 559.535 83.769 556.931 83.769C553.998 83.769 551.322 83.3486 548.902 82.5078C546.503 81.667 544.442 80.498 542.719 79.001C540.996 77.4834 539.653 75.6685 538.689 73.5562C537.746 71.4438 537.274 69.106 537.274 66.5425C537.274 64.3481 537.705 62.2153 538.566 60.144C539.448 58.0728 540.709 56.2373 542.35 54.6377C543.99 53.0381 545.98 51.7563 548.318 50.7925C550.676 49.8286 553.332 49.3467 556.285 49.3467C557.823 49.3467 559.279 49.439 560.653 49.6235C562.027 49.7876 563.35 50.0542 564.621 50.4233L566.928 55.9604L566.621 56.1758C565.39 54.7607 563.904 53.6431 562.16 52.8228C560.417 51.9819 558.418 51.5615 556.162 51.5615C554.316 51.5615 552.614 51.8589 551.055 52.4536C549.517 53.0483 548.174 53.9199 547.026 55.0684C545.898 56.1963 545.016 57.5908 544.38 59.252C543.744 60.9131 543.427 62.7998 543.427 64.9121C543.427 67.291 543.724 69.4956 544.319 71.5259C544.913 73.5562 545.805 75.3198 546.995 76.8169C548.184 78.2935 549.651 79.4521 551.394 80.293C553.157 81.1338 555.208 81.5542 557.546 81.5542C559.556 81.5542 561.115 81.2979 562.222 80.7852C563.35 80.2725 563.914 79.688 563.914 79.0317V77.4014C563.914 76.335 563.904 75.4121 563.883 74.6328C563.863 73.8535 563.832 73.187 563.791 72.6333C563.75 72.0591 563.688 71.5669 563.606 71.1567C563.545 70.7466 563.463 70.3672 563.36 70.0186V69.8955H569.912V70.0186C569.81 70.3262 569.718 70.6953 569.635 71.126C569.553 71.5566 569.482 72.0693 569.42 72.6641C569.379 73.2588 569.338 73.9561 569.297 74.7559C569.277 75.5557 569.266 76.4785 569.266 77.5244V79.2778ZM602.058 63.4663C604.068 63.8354 605.904 63.8765 607.565 63.5894C609.246 63.2817 610.682 62.646 611.871 61.6821C613.081 60.6978 614.014 59.375 614.671 57.7139C615.347 56.0527 615.686 54.0225 615.686 51.623C615.686 49.9619 615.511 48.4546 615.163 47.1011C614.814 45.7271 614.291 44.5684 613.594 43.625C612.917 42.6611 612.056 41.9229 611.01 41.4102C609.964 40.877 608.744 40.6104 607.349 40.6104C606.468 40.6104 605.698 40.6514 605.042 40.7334C604.386 40.7949 603.832 40.8667 603.381 40.9487C602.848 41.0513 602.407 41.1641 602.058 41.2871V63.4663ZM595.568 38.8877C595.978 38.9287 596.408 38.9697 596.86 39.0107C597.249 39.0518 597.68 39.0825 598.152 39.103C598.644 39.103 599.146 39.103 599.659 39.103C600.459 39.103 601.535 39.0107 602.889 38.8262C604.263 38.6211 606.006 38.5186 608.118 38.5186C610.087 38.5186 611.902 38.8057 613.563 39.3799C615.245 39.9541 616.701 40.7949 617.931 41.9023C619.162 43.0098 620.115 44.3633 620.792 45.9629C621.49 47.542 621.838 49.3467 621.838 51.377C621.838 54.1045 621.295 56.4629 620.208 58.4521C619.121 60.4414 617.665 62.0513 615.84 63.2817C614.014 64.5122 611.912 65.353 609.533 65.8042C607.155 66.2349 604.663 66.2554 602.058 65.8657V70.9722C602.058 72.7153 602.079 74.2432 602.12 75.5557C602.181 76.8477 602.243 77.9653 602.304 78.9087C602.386 79.8521 602.479 80.6416 602.581 81.2773C602.704 81.9131 602.827 82.4463 602.95 82.877V83H595.568V82.877C595.691 82.4463 595.803 81.9131 595.906 81.2773C596.029 80.6416 596.132 79.8521 596.214 78.9087C596.296 77.9653 596.357 76.8477 596.398 75.5557C596.439 74.2432 596.46 72.7153 596.46 70.9722V50.9463C596.46 49.2031 596.439 47.6855 596.398 46.3936C596.357 45.0811 596.296 43.9531 596.214 43.0098C596.132 42.0459 596.029 41.2461 595.906 40.6104C595.803 39.9746 595.691 39.4414 595.568 39.0107V38.8877ZM627.498 49.9312C629.508 49.9312 631.569 49.9312 633.681 49.9312C635.794 49.9106 637.752 49.8901 639.557 49.8696C641.362 49.8286 642.91 49.7876 644.202 49.7466C645.514 49.7056 646.376 49.644 646.786 49.562L645.586 52.8843C645.032 52.7407 644.407 52.6074 643.71 52.4844C643.094 52.3818 642.346 52.2896 641.464 52.2075C640.603 52.105 639.598 52.0537 638.449 52.0537C638.039 52.0537 637.568 52.0742 637.034 52.1152C636.501 52.1357 635.989 52.1665 635.496 52.2075C634.922 52.2485 634.338 52.2896 633.743 52.3306V64.4814C635.404 64.4609 636.901 64.4199 638.234 64.3584C639.567 64.2969 640.705 64.2148 641.649 64.1123C642.756 64.0303 643.73 63.9175 644.571 63.7739L643.833 67.4346C642.705 67.291 641.567 67.168 640.418 67.0654C639.434 66.9629 638.347 66.8809 637.157 66.8193C635.968 66.7373 634.83 66.6963 633.743 66.6963V80.6621C635.65 80.6621 637.404 80.5903 639.003 80.4468C640.603 80.2827 641.997 80.1084 643.187 79.9238C644.581 79.6982 645.843 79.4419 646.97 79.1548L646.263 83.1846C645.955 83.1641 645.453 83.1333 644.756 83.0923C644.079 83.0718 643.361 83.0513 642.602 83.0308C641.864 83.0308 641.167 83.0205 640.51 83C639.854 83 639.403 83 639.157 83H627.498V82.877C627.642 82.4463 627.765 81.8926 627.867 81.2158C627.99 80.5391 628.083 79.7085 628.144 78.7241C628.226 77.7192 628.288 76.5298 628.329 75.1558C628.37 73.7817 628.39 72.1719 628.39 70.3262V62.5742C628.39 60.7285 628.37 59.1289 628.329 57.7754C628.288 56.4014 628.226 55.2222 628.144 54.2378C628.083 53.2329 627.99 52.3921 627.867 51.7153C627.765 51.0386 627.642 50.4849 627.498 50.0542V49.9312ZM660.075 66.9424C660.485 67.0039 660.895 67.0552 661.305 67.0962C661.736 67.1167 662.146 67.127 662.536 67.127C665.099 67.127 667.037 66.4399 668.35 65.0659C669.683 63.6919 670.349 61.6309 670.349 58.8828C670.349 56.627 669.816 54.8428 668.75 53.5303C667.704 52.2178 666.156 51.5615 664.105 51.5615C663.448 51.5615 662.864 51.5923 662.351 51.6538C661.859 51.6948 661.439 51.7461 661.09 51.8076C660.7 51.8896 660.362 51.9717 660.075 52.0537V66.9424ZM664.781 68.9419C664.371 69.0034 663.961 69.0444 663.551 69.0649C663.161 69.0649 662.761 69.0649 662.351 69.0649C662.023 69.0649 661.664 69.0547 661.275 69.0342C660.885 69.0137 660.485 68.9829 660.075 68.9419V70.4492C660.075 72.2744 660.095 73.874 660.136 75.248C660.177 76.6016 660.229 77.7705 660.29 78.7549C660.372 79.7393 660.465 80.5698 660.567 81.2466C660.67 81.9028 660.793 82.4463 660.936 82.877V83H653.83V82.877C653.974 82.4463 654.097 81.8926 654.199 81.2158C654.323 80.5391 654.415 79.7085 654.476 78.7241C654.558 77.7192 654.62 76.5298 654.661 75.1558C654.702 73.7817 654.722 72.1719 654.722 70.3262V62.5742C654.722 60.7285 654.702 59.1289 654.661 57.7754C654.62 56.4014 654.558 55.2222 654.476 54.2378C654.415 53.2329 654.323 52.3921 654.199 51.7153C654.097 51.0386 653.974 50.4849 653.83 50.0542V49.9312C654.158 49.9517 654.507 49.9722 654.876 49.9927C655.184 50.0132 655.522 50.0337 655.891 50.0542C656.281 50.0542 656.671 50.0542 657.06 50.0542C657.717 50.0542 658.691 49.9927 659.983 49.8696C661.275 49.7466 662.792 49.6851 664.535 49.6851C666.299 49.6851 667.899 49.9004 669.334 50.3311C670.79 50.7617 672.031 51.377 673.056 52.1768C674.102 52.9766 674.902 53.9507 675.456 55.0991C676.03 56.2476 676.317 57.5293 676.317 58.9443C676.317 60.0518 676.163 61.0669 675.856 61.9897C675.548 62.8921 675.117 63.7124 674.564 64.4507C674.01 65.1685 673.354 65.8042 672.595 66.3579C671.836 66.9116 670.995 67.3936 670.073 67.8037L676.502 76.8784C677.055 77.6167 677.609 78.3242 678.163 79.001C678.737 79.6777 679.281 80.2827 679.793 80.8159C680.306 81.3491 680.788 81.8003 681.239 82.1694C681.69 82.5181 682.07 82.7539 682.377 82.877V83H674.318C674.318 82.8154 674.184 82.4976 673.918 82.0464C673.672 81.5747 673.374 81.0928 673.026 80.6006C672.698 80.0879 672.359 79.5957 672.01 79.124C671.682 78.6523 671.436 78.3037 671.272 78.0781L664.781 68.9419ZM692.805 52.2075C690.939 52.2075 689.237 52.2896 687.699 52.4536C686.181 52.6177 684.869 52.792 683.761 52.9766C682.49 53.2021 681.342 53.4482 680.316 53.7148L680.931 49.7466C681.239 49.7876 681.741 49.8184 682.439 49.8389C683.136 49.8594 683.864 49.8799 684.623 49.9004C685.402 49.9004 686.13 49.9106 686.807 49.9312C687.504 49.9312 687.986 49.9312 688.253 49.9312H702.803C703.049 49.9312 703.5 49.9312 704.156 49.9312C704.833 49.9106 705.551 49.9004 706.31 49.9004C707.069 49.8799 707.797 49.8594 708.494 49.8389C709.191 49.8184 709.694 49.7876 710.001 49.7466L710.616 53.7148C709.632 53.4482 708.504 53.2021 707.233 52.9766C706.146 52.792 704.833 52.6177 703.295 52.4536C701.778 52.2896 700.065 52.2075 698.158 52.2075V70.3262C698.158 72.1719 698.178 73.7817 698.219 75.1558C698.26 76.5298 698.312 77.7192 698.373 78.7241C698.455 79.7085 698.548 80.5391 698.65 81.2158C698.753 81.8926 698.876 82.4463 699.019 82.877V83H691.913V82.877C692.057 82.4463 692.18 81.8926 692.282 81.2158C692.385 80.5391 692.477 79.7085 692.559 78.7241C692.641 77.7192 692.703 76.5298 692.744 75.1558C692.785 73.7817 692.805 72.1719 692.805 70.3262V52.2075ZM714.677 49.9312C716.687 49.9312 718.748 49.9312 720.86 49.9312C722.972 49.9106 724.931 49.8901 726.736 49.8696C728.54 49.8286 730.089 49.7876 731.381 49.7466C732.693 49.7056 733.554 49.644 733.965 49.562L732.765 52.8843C732.211 52.7407 731.586 52.6074 730.888 52.4844C730.273 52.3818 729.525 52.2896 728.643 52.2075C727.781 52.105 726.777 52.0537 725.628 52.0537C725.218 52.0537 724.746 52.0742 724.213 52.1152C723.68 52.1357 723.167 52.1665 722.675 52.2075C722.101 52.2485 721.516 52.2896 720.922 52.3306V64.4814C722.583 64.4609 724.08 64.4199 725.413 64.3584C726.746 64.2969 727.884 64.2148 728.827 64.1123C729.935 64.0303 730.909 63.9175 731.75 63.7739L731.011 67.4346C729.884 67.291 728.745 67.168 727.597 67.0654C726.613 66.9629 725.526 66.8809 724.336 66.8193C723.147 66.7373 722.009 66.6963 720.922 66.6963V80.6621C722.829 80.6621 724.582 80.5903 726.182 80.4468C727.781 80.2827 729.176 80.1084 730.365 79.9238C731.76 79.6982 733.021 79.4419 734.149 79.1548L733.442 83.1846C733.134 83.1641 732.632 83.1333 731.934 83.0923C731.258 83.0718 730.54 83.0513 729.781 83.0308C729.043 83.0308 728.345 83.0205 727.689 83C727.033 83 726.582 83 726.336 83H714.677V82.877C714.821 82.4463 714.944 81.8926 715.046 81.2158C715.169 80.5391 715.261 79.7085 715.323 78.7241C715.405 77.7192 715.467 76.5298 715.508 75.1558C715.549 73.7817 715.569 72.1719 715.569 70.3262V62.5742C715.569 60.7285 715.549 59.1289 715.508 57.7754C715.467 56.4014 715.405 55.2222 715.323 54.2378C715.261 53.2329 715.169 52.3921 715.046 51.7153C714.944 51.0386 714.821 50.4849 714.677 50.0542V49.9312ZM738.856 82.877C739.122 82.5898 739.389 82.0669 739.656 81.3081C739.943 80.5493 740.168 79.729 740.332 78.8472C740.578 77.4116 740.845 75.7812 741.132 73.9561C741.44 72.1104 741.737 70.2134 742.024 68.2651C742.332 66.3169 742.629 64.3789 742.916 62.4512C743.203 60.5029 743.47 58.6982 743.716 57.0371C743.962 55.376 744.167 53.9199 744.331 52.6689C744.495 51.418 744.608 50.5054 744.67 49.9312H748.33L763.004 76.2017L778.046 49.9312H781.03L784.721 75.6172C784.906 76.7861 785.08 77.7808 785.244 78.6011C785.429 79.4214 785.603 80.1187 785.767 80.6929C785.931 81.2466 786.095 81.6978 786.26 82.0464C786.424 82.395 786.567 82.6719 786.69 82.877V83H779.123V82.877C779.184 82.7129 779.256 82.436 779.338 82.0464C779.441 81.6567 779.492 81.1953 779.492 80.6621C779.492 80.3135 779.461 79.811 779.4 79.1548C779.359 78.4985 779.287 77.8525 779.184 77.2168L776.539 58.3599L762.542 82.9385L760.358 82.6309L746.608 58.1753C746.095 61.6206 745.644 64.8096 745.254 67.7422C745.09 68.9932 744.926 70.2441 744.762 71.4951C744.598 72.7461 744.454 73.9253 744.331 75.0327C744.208 76.1196 744.106 77.0835 744.024 77.9243C743.942 78.7651 743.901 79.3906 743.901 79.8008C743.901 80.3135 743.911 80.7646 743.931 81.1543C743.952 81.5234 743.983 81.8516 744.024 82.1387C744.065 82.4668 744.106 82.7539 744.147 83H738.856V82.877ZM818.559 62.4512C818.559 60.626 818.549 59.0366 818.529 57.6831C818.508 56.3296 818.467 55.1606 818.406 54.1763C818.344 53.1919 818.272 52.3716 818.19 51.7153C818.108 51.0386 818.006 50.4849 817.883 50.0542V49.9312H822.405V50.0542C822.281 50.4849 822.179 51.0386 822.097 51.7153C822.015 52.3921 821.943 53.2329 821.882 54.2378C821.82 55.2222 821.779 56.4014 821.759 57.7754C821.738 59.1289 821.728 60.7285 821.728 62.5742V71.4028C821.728 73.6177 821.379 75.5044 820.682 77.063C820.005 78.6216 819.062 79.9033 817.852 80.9082C816.642 81.8926 815.196 82.6104 813.514 83.0615C811.853 83.5332 810.028 83.769 808.039 83.769C806.029 83.769 804.163 83.5435 802.44 83.0923C800.718 82.6616 799.22 81.9644 797.949 81.0005C796.698 80.0366 795.703 78.7856 794.965 77.2476C794.247 75.7095 793.888 73.8433 793.888 71.6489V62.5742C793.888 60.7285 793.868 59.1289 793.827 57.7754C793.786 56.4014 793.724 55.2222 793.642 54.2378C793.56 53.2329 793.468 52.3921 793.365 51.7153C793.263 51.0386 793.14 50.4849 792.996 50.0542V49.9312H800.102V50.0542C799.959 50.4849 799.836 51.0386 799.733 51.7153C799.631 52.3716 799.538 53.1919 799.456 54.1763C799.395 55.1606 799.344 56.3296 799.302 57.6831C799.261 59.0366 799.241 60.626 799.241 62.4512V71.6489C799.241 73.4741 799.518 74.9814 800.072 76.1709C800.625 77.3398 801.353 78.2729 802.256 78.9702C803.158 79.6675 804.183 80.1597 805.332 80.4468C806.48 80.7134 807.659 80.8467 808.869 80.8467C810.1 80.8467 811.289 80.7134 812.438 80.4468C813.607 80.1597 814.642 79.6675 815.545 78.9702C816.468 78.2729 817.196 77.3398 817.729 76.1709C818.282 74.9814 818.559 73.4741 818.559 71.6489V62.4512ZM850.182 72.6025C849.629 72.6025 848.931 72.6025 848.091 72.6025C847.27 72.6025 846.368 72.6025 845.384 72.6025C844.399 72.6025 843.384 72.6025 842.338 72.6025C841.292 72.6025 840.298 72.6128 839.354 72.6333C838.411 72.6333 837.55 72.6436 836.77 72.6641C835.991 72.6641 835.386 72.6641 834.955 72.6641L833.817 75.0635C833.325 76.0479 832.905 76.9092 832.556 77.6475C832.207 78.3652 831.92 79.001 831.695 79.5547C831.469 80.1084 831.305 80.5903 831.202 81.0005C831.1 81.3901 831.049 81.7593 831.049 82.1079C831.049 82.3335 831.059 82.5078 831.079 82.6309C831.1 82.7334 831.131 82.8154 831.172 82.877V83H825.758V82.877C825.901 82.7334 826.127 82.4258 826.434 81.9541C826.742 81.4619 827.091 80.8672 827.48 80.1699C827.89 79.4727 828.321 78.6831 828.772 77.8013C829.244 76.9194 829.705 76.0068 830.156 75.0635L842.707 49.1621H845.014L857.319 75.0635C857.791 76.0479 858.262 76.9912 858.734 77.8936C859.226 78.7959 859.677 79.606 860.088 80.3237C860.498 81.021 860.857 81.6055 861.164 82.0771C861.472 82.5283 861.677 82.7949 861.78 82.877V83H853.905C853.946 82.8359 853.966 82.6924 853.966 82.5693C853.966 82.4258 853.966 82.272 853.966 82.1079C853.966 81.6567 853.864 81.1133 853.658 80.4775C853.474 79.8418 853.238 79.1958 852.951 78.5396C852.684 77.8628 852.397 77.2168 852.09 76.6016C851.802 75.9863 851.567 75.4736 851.382 75.0635L850.182 72.6025ZM836.155 70.2031H838.031C838.893 70.2031 839.805 70.2031 840.769 70.2031C841.754 70.1826 842.738 70.1724 843.722 70.1724C844.707 70.1724 845.66 70.1724 846.583 70.1724C847.506 70.1519 848.337 70.1416 849.075 70.1416L842.707 56.5449L836.155 70.2031ZM895.094 83.4307H893.895L869.439 59.375V70.3262C869.439 72.1719 869.449 73.7817 869.47 75.1558C869.49 76.5298 869.521 77.7192 869.562 78.7241C869.624 79.7085 869.696 80.5391 869.778 81.2158C869.88 81.8926 870.003 82.4463 870.147 82.877V83H865.532V82.877C865.676 82.4463 865.799 81.8926 865.902 81.2158C866.004 80.5391 866.086 79.7085 866.148 78.7241C866.209 77.7192 866.25 76.5298 866.271 75.1558C866.291 73.7817 866.302 72.1719 866.302 70.3262V62.5742C866.302 60.7285 866.291 59.1289 866.271 57.7754C866.25 56.4014 866.209 55.2222 866.148 54.2378C866.086 53.2329 866.004 52.3921 865.902 51.7153C865.799 51.0386 865.676 50.4849 865.532 50.0542V49.9312H867.44L891.926 74.1099V62.5742C891.926 60.7285 891.916 59.1289 891.895 57.7754C891.875 56.4014 891.834 55.2222 891.772 54.2378C891.731 53.2329 891.67 52.3921 891.588 51.7153C891.506 51.0386 891.393 50.4849 891.249 50.0542V49.9312H895.833V50.0542C895.689 50.4849 895.566 51.0386 895.464 51.7153C895.382 52.3921 895.31 53.2329 895.248 54.2378C895.187 55.2222 895.146 56.4014 895.125 57.7754C895.105 59.1289 895.094 60.7285 895.094 62.5742V83.4307ZM359.902 99.5332C359.861 101.83 359.82 104.055 359.779 106.208C359.759 107.131 359.738 108.075 359.718 109.039C359.718 110.002 359.707 110.956 359.687 111.899C359.687 112.822 359.677 113.714 359.656 114.576C359.656 115.417 359.656 116.165 359.656 116.821C359.656 118.195 359.666 119.856 359.687 121.805C359.707 123.753 359.728 125.752 359.748 127.803C359.789 129.854 359.841 131.823 359.902 133.709C359.964 135.596 360.035 137.165 360.117 138.416C360.405 138.457 360.784 138.508 361.256 138.57C361.748 138.611 362.26 138.652 362.794 138.693C363.327 138.713 363.85 138.734 364.363 138.754C364.875 138.775 365.306 138.785 365.655 138.785C367.09 138.785 368.556 138.693 370.053 138.508C371.571 138.303 373.027 137.934 374.422 137.401C375.837 136.868 377.159 136.14 378.39 135.217C379.641 134.273 380.728 133.063 381.651 131.587C382.594 130.11 383.332 128.336 383.865 126.265C384.399 124.173 384.665 121.712 384.665 118.882C384.665 115.745 384.286 112.956 383.527 110.515C382.768 108.054 381.651 105.983 380.174 104.301C378.718 102.62 376.903 101.348 374.729 100.487C372.576 99.605 370.094 99.1641 367.285 99.1641C366.731 99.1641 366.106 99.1846 365.408 99.2256C364.711 99.2461 364.014 99.2769 363.317 99.3179C362.64 99.3384 361.994 99.3794 361.379 99.4409C360.784 99.4819 360.292 99.5127 359.902 99.5332ZM353.165 96.7646C353.637 96.7852 354.078 96.8057 354.488 96.8262C354.837 96.8467 355.196 96.8672 355.565 96.8877C355.934 96.8877 356.231 96.8877 356.457 96.8877C356.846 96.8877 357.492 96.8672 358.395 96.8262C359.318 96.7852 360.364 96.7441 361.532 96.7031C362.701 96.6621 363.911 96.6211 365.162 96.5801C366.434 96.5391 367.623 96.5186 368.731 96.5186C371.704 96.5186 374.534 96.8877 377.221 97.626C379.907 98.3643 382.266 99.5742 384.296 101.256C386.326 102.938 387.936 105.142 389.126 107.87C390.315 110.597 390.91 113.95 390.91 117.929C390.91 120.779 390.592 123.343 389.956 125.619C389.341 127.896 388.469 129.905 387.342 131.648C386.214 133.392 384.86 134.889 383.281 136.14C381.722 137.37 379.99 138.385 378.082 139.185C376.196 139.985 374.176 140.569 372.022 140.938C369.869 141.308 367.644 141.492 365.347 141.492C364.527 141.492 363.532 141.461 362.363 141.4C361.215 141.359 360.056 141.308 358.887 141.246C357.718 141.185 356.611 141.123 355.565 141.062C354.539 141.021 353.74 141 353.165 141V140.877C353.288 140.446 353.401 139.913 353.504 139.277C353.627 138.642 353.729 137.852 353.811 136.909C353.893 135.965 353.955 134.848 353.996 133.556C354.037 132.243 354.057 130.715 354.057 128.972V108.946C354.057 107.203 354.037 105.675 353.996 104.363C353.955 103.03 353.893 101.892 353.811 100.948C353.729 99.9844 353.627 99.1743 353.504 98.5181C353.401 97.8618 353.288 97.3184 353.165 96.8877V96.7646ZM397.77 107.931C399.78 107.931 401.841 107.931 403.953 107.931C406.065 107.911 408.024 107.89 409.828 107.87C411.633 107.829 413.181 107.788 414.473 107.747C415.786 107.706 416.647 107.644 417.057 107.562L415.858 110.884C415.304 110.741 414.678 110.607 413.981 110.484C413.366 110.382 412.617 110.29 411.736 110.208C410.874 110.105 409.869 110.054 408.721 110.054C408.311 110.054 407.839 110.074 407.306 110.115C406.773 110.136 406.26 110.167 405.768 110.208C405.194 110.249 404.609 110.29 404.014 110.331V122.481C405.676 122.461 407.173 122.42 408.506 122.358C409.839 122.297 410.977 122.215 411.92 122.112C413.028 122.03 414.002 121.917 414.843 121.774L414.104 125.435C412.976 125.291 411.838 125.168 410.69 125.065C409.705 124.963 408.618 124.881 407.429 124.819C406.24 124.737 405.101 124.696 404.014 124.696V138.662C405.922 138.662 407.675 138.59 409.275 138.447C410.874 138.283 412.269 138.108 413.458 137.924C414.853 137.698 416.114 137.442 417.242 137.155L416.534 141.185C416.227 141.164 415.724 141.133 415.027 141.092C414.35 141.072 413.633 141.051 412.874 141.031C412.135 141.031 411.438 141.021 410.782 141C410.126 141 409.675 141 409.428 141H397.77V140.877C397.913 140.446 398.036 139.893 398.139 139.216C398.262 138.539 398.354 137.708 398.416 136.724C398.498 135.719 398.559 134.53 398.6 133.156C398.641 131.782 398.662 130.172 398.662 128.326V120.574C398.662 118.729 398.641 117.129 398.6 115.775C398.559 114.401 398.498 113.222 398.416 112.238C398.354 111.233 398.262 110.392 398.139 109.715C398.036 109.039 397.913 108.485 397.77 108.054V107.931ZM439.083 114.36H438.468C438.344 114.012 438.139 113.571 437.852 113.038C437.586 112.504 437.217 111.981 436.745 111.469C436.294 110.956 435.73 110.525 435.053 110.177C434.376 109.808 433.566 109.623 432.623 109.623C431.905 109.623 431.259 109.746 430.685 109.992C430.131 110.218 429.659 110.536 429.27 110.946C428.88 111.356 428.583 111.848 428.378 112.422C428.173 112.976 428.07 113.581 428.07 114.237C428.07 115.304 428.388 116.319 429.024 117.283C429.68 118.247 430.49 119.21 431.454 120.174C432.418 121.118 433.464 122.071 434.592 123.035C435.719 123.999 436.765 125.004 437.729 126.05C438.693 127.096 439.493 128.203 440.129 129.372C440.785 130.541 441.113 131.792 441.113 133.125C441.113 134.109 440.928 135.125 440.559 136.17C440.211 137.216 439.636 138.16 438.837 139C438.037 139.841 437.011 140.528 435.76 141.062C434.51 141.615 432.992 141.892 431.208 141.892C430.223 141.892 429.28 141.81 428.378 141.646C427.496 141.482 426.676 141.277 425.917 141.031C425.178 140.805 424.512 140.559 423.917 140.292C423.343 140.005 422.861 139.739 422.471 139.493L423.025 133.679H423.671C423.876 134.396 424.174 135.114 424.563 135.832C424.973 136.55 425.466 137.206 426.04 137.801C426.635 138.375 427.322 138.847 428.101 139.216C428.901 139.564 429.813 139.739 430.839 139.739C431.556 139.739 432.233 139.626 432.869 139.4C433.505 139.154 434.048 138.816 434.499 138.385C434.971 137.955 435.34 137.432 435.607 136.816C435.873 136.181 436.007 135.473 436.007 134.694C436.007 133.771 435.822 132.92 435.453 132.141C435.084 131.341 434.592 130.582 433.976 129.864C433.361 129.126 432.664 128.418 431.885 127.742C431.126 127.065 430.336 126.378 429.516 125.681C428.696 124.983 427.896 124.276 427.116 123.558C426.358 122.82 425.671 122.03 425.055 121.189C424.44 120.349 423.948 119.457 423.579 118.513C423.21 117.549 423.025 116.493 423.025 115.345C423.025 114.135 423.281 113.048 423.794 112.084C424.307 111.12 424.984 110.31 425.824 109.654C426.665 108.977 427.629 108.464 428.716 108.116C429.803 107.747 430.931 107.562 432.1 107.562C432.961 107.562 433.761 107.624 434.499 107.747C435.258 107.87 435.935 108.023 436.53 108.208C437.145 108.372 437.678 108.546 438.129 108.731C438.58 108.895 438.949 109.028 439.237 109.131L439.083 114.36ZM467.63 130.603C467.076 130.603 466.379 130.603 465.538 130.603C464.718 130.603 463.815 130.603 462.831 130.603C461.846 130.603 460.831 130.603 459.785 130.603C458.74 130.603 457.745 130.613 456.802 130.633C455.858 130.633 454.997 130.644 454.218 130.664C453.438 130.664 452.833 130.664 452.403 130.664L451.264 133.063C450.772 134.048 450.352 134.909 450.003 135.647C449.655 136.365 449.367 137.001 449.142 137.555C448.916 138.108 448.752 138.59 448.65 139C448.547 139.39 448.496 139.759 448.496 140.108C448.496 140.333 448.506 140.508 448.527 140.631C448.547 140.733 448.578 140.815 448.619 140.877V141H443.205V140.877C443.348 140.733 443.574 140.426 443.882 139.954C444.189 139.462 444.538 138.867 444.927 138.17C445.338 137.473 445.768 136.683 446.219 135.801C446.691 134.919 447.153 134.007 447.604 133.063L460.155 107.162H462.462L474.766 133.063C475.238 134.048 475.71 134.991 476.181 135.894C476.674 136.796 477.125 137.606 477.535 138.324C477.945 139.021 478.304 139.605 478.612 140.077C478.919 140.528 479.124 140.795 479.227 140.877V141H471.352C471.393 140.836 471.413 140.692 471.413 140.569C471.413 140.426 471.413 140.272 471.413 140.108C471.413 139.657 471.311 139.113 471.106 138.478C470.921 137.842 470.685 137.196 470.398 136.54C470.132 135.863 469.844 135.217 469.537 134.602C469.25 133.986 469.014 133.474 468.829 133.063L467.63 130.603ZM453.602 128.203H455.479C456.34 128.203 457.253 128.203 458.217 128.203C459.201 128.183 460.185 128.172 461.17 128.172C462.154 128.172 463.108 128.172 464.031 128.172C464.953 128.152 465.784 128.142 466.522 128.142L460.155 114.545L453.602 128.203ZM537.92 103.655L537.643 103.778C536.044 102.302 534.116 101.123 531.86 100.241C529.625 99.3589 527.164 98.918 524.477 98.918C521.893 98.918 519.525 99.3281 517.371 100.148C515.218 100.948 513.362 102.117 511.803 103.655C510.265 105.193 509.066 107.08 508.204 109.315C507.343 111.551 506.912 114.094 506.912 116.944C506.912 120.082 507.323 123.015 508.143 125.742C508.963 128.449 510.183 130.797 511.803 132.787C513.424 134.776 515.444 136.345 517.864 137.493C520.304 138.621 523.144 139.185 526.385 139.185C527.553 139.185 528.722 139.062 529.891 138.816C531.06 138.57 532.178 138.211 533.244 137.739C534.331 137.247 535.346 136.663 536.29 135.986C537.254 135.289 538.125 134.499 538.905 133.617L539.243 133.833L536.782 140.108C535.244 140.703 533.542 141.154 531.676 141.461C529.83 141.79 527.964 141.954 526.077 141.954C522.283 141.954 518.807 141.41 515.649 140.323C512.511 139.216 509.804 137.657 507.528 135.647C505.272 133.638 503.508 131.228 502.237 128.418C500.986 125.588 500.36 122.451 500.36 119.005C500.36 117.057 500.606 115.14 501.098 113.253C501.611 111.366 502.349 109.572 503.313 107.87C504.277 106.167 505.467 104.609 506.882 103.194C508.297 101.758 509.906 100.518 511.711 99.4717C513.536 98.4258 515.536 97.6157 517.71 97.0415C519.904 96.4468 522.273 96.1494 524.816 96.1494C528.774 96.1494 532.445 96.7544 535.828 97.9644L537.92 103.655ZM564.591 130.603C564.037 130.603 563.34 130.603 562.499 130.603C561.678 130.603 560.776 130.603 559.792 130.603C558.807 130.603 557.792 130.603 556.746 130.603C555.7 130.603 554.706 130.613 553.762 130.633C552.819 130.633 551.958 130.644 551.178 130.664C550.399 130.664 549.794 130.664 549.364 130.664L548.225 133.063C547.733 134.048 547.313 134.909 546.964 135.647C546.615 136.365 546.328 137.001 546.103 137.555C545.877 138.108 545.713 138.59 545.611 139C545.508 139.39 545.457 139.759 545.457 140.108C545.457 140.333 545.467 140.508 545.488 140.631C545.508 140.733 545.539 140.815 545.58 140.877V141H540.166V140.877C540.309 140.733 540.535 140.426 540.843 139.954C541.15 139.462 541.499 138.867 541.888 138.17C542.299 137.473 542.729 136.683 543.18 135.801C543.652 134.919 544.114 134.007 544.565 133.063L557.115 107.162H559.423L571.727 133.063C572.199 134.048 572.671 134.991 573.142 135.894C573.635 136.796 574.086 137.606 574.496 138.324C574.906 139.021 575.265 139.605 575.573 140.077C575.88 140.528 576.085 140.795 576.188 140.877V141H568.313C568.354 140.836 568.374 140.692 568.374 140.569C568.374 140.426 568.374 140.272 568.374 140.108C568.374 139.657 568.272 139.113 568.067 138.478C567.882 137.842 567.646 137.196 567.359 136.54C567.093 135.863 566.805 135.217 566.498 134.602C566.211 133.986 565.975 133.474 565.79 133.063L564.591 130.603ZM550.563 128.203H552.44C553.301 128.203 554.214 128.203 555.177 128.203C556.162 128.183 557.146 128.172 558.131 128.172C559.115 128.172 560.069 128.172 560.991 128.172C561.914 128.152 562.745 128.142 563.483 128.142L557.115 114.545L550.563 128.203ZM609.503 141.431H608.303L583.847 117.375V128.326C583.847 130.172 583.858 131.782 583.878 133.156C583.899 134.53 583.929 135.719 583.97 136.724C584.032 137.708 584.104 138.539 584.186 139.216C584.288 139.893 584.411 140.446 584.555 140.877V141H579.941V140.877C580.084 140.446 580.207 139.893 580.31 139.216C580.412 138.539 580.494 137.708 580.556 136.724C580.617 135.719 580.658 134.53 580.679 133.156C580.699 131.782 580.71 130.172 580.71 128.326V120.574C580.71 118.729 580.699 117.129 580.679 115.775C580.658 114.401 580.617 113.222 580.556 112.238C580.494 111.233 580.412 110.392 580.31 109.715C580.207 109.039 580.084 108.485 579.941 108.054V107.931H581.848L606.334 132.11V120.574C606.334 118.729 606.324 117.129 606.303 115.775C606.283 114.401 606.242 113.222 606.18 112.238C606.139 111.233 606.078 110.392 605.996 109.715C605.914 109.039 605.801 108.485 605.657 108.054V107.931H610.241V108.054C610.097 108.485 609.974 109.039 609.872 109.715C609.79 110.392 609.718 111.233 609.656 112.238C609.595 113.222 609.554 114.401 609.533 115.775C609.513 117.129 609.503 118.729 609.503 120.574V141.431ZM648.57 137.278C648.57 137.544 648.539 137.77 648.478 137.955C648.437 138.139 648.324 138.293 648.139 138.416C646.683 139.441 644.981 140.262 643.033 140.877C641.105 141.472 638.839 141.769 636.235 141.769C633.302 141.769 630.626 141.349 628.206 140.508C625.806 139.667 623.745 138.498 622.023 137.001C620.3 135.483 618.957 133.668 617.993 131.556C617.05 129.444 616.578 127.106 616.578 124.542C616.578 122.348 617.009 120.215 617.87 118.144C618.752 116.073 620.013 114.237 621.654 112.638C623.294 111.038 625.283 109.756 627.621 108.792C629.98 107.829 632.635 107.347 635.589 107.347C637.127 107.347 638.583 107.439 639.957 107.624C641.331 107.788 642.654 108.054 643.925 108.423L646.232 113.96L645.925 114.176C644.694 112.761 643.207 111.643 641.464 110.823C639.721 109.982 637.721 109.562 635.466 109.562C633.62 109.562 631.918 109.859 630.359 110.454C628.821 111.048 627.478 111.92 626.329 113.068C625.201 114.196 624.32 115.591 623.684 117.252C623.048 118.913 622.73 120.8 622.73 122.912C622.73 125.291 623.028 127.496 623.622 129.526C624.217 131.556 625.109 133.32 626.299 134.817C627.488 136.293 628.954 137.452 630.698 138.293C632.461 139.134 634.512 139.554 636.85 139.554C638.86 139.554 640.418 139.298 641.526 138.785C642.654 138.272 643.218 137.688 643.218 137.032V135.401C643.218 134.335 643.207 133.412 643.187 132.633C643.166 131.854 643.135 131.187 643.094 130.633C643.053 130.059 642.992 129.567 642.91 129.157C642.848 128.747 642.766 128.367 642.664 128.019V127.896H649.216V128.019C649.114 128.326 649.021 128.695 648.939 129.126C648.857 129.557 648.785 130.069 648.724 130.664C648.683 131.259 648.642 131.956 648.601 132.756C648.58 133.556 648.57 134.479 648.57 135.524V137.278ZM656.507 120.574C656.507 118.729 656.486 117.129 656.445 115.775C656.404 114.401 656.343 113.222 656.26 112.238C656.199 111.233 656.107 110.392 655.984 109.715C655.881 109.039 655.758 108.485 655.615 108.054V107.931H662.72V108.054C662.577 108.485 662.454 109.039 662.351 109.715C662.249 110.392 662.156 111.233 662.074 112.238C662.013 113.222 661.962 114.401 661.921 115.775C661.88 117.129 661.859 118.729 661.859 120.574V122.604L675.917 111.069C676.697 110.433 677.281 109.869 677.671 109.377C678.081 108.885 678.286 108.403 678.286 107.931H685.607V108.054C684.684 108.28 683.731 108.69 682.746 109.285C681.782 109.879 680.757 110.628 679.67 111.53L667.396 121.589L680.193 134.878C681.895 136.663 683.331 138.026 684.5 138.97C685.689 139.893 686.602 140.528 687.238 140.877V141H678.87C678.645 140.59 678.163 139.985 677.425 139.185C676.686 138.385 675.712 137.35 674.502 136.078L661.859 122.912V128.326C661.859 130.172 661.88 131.782 661.921 133.156C661.962 134.53 662.013 135.719 662.074 136.724C662.156 137.708 662.249 138.539 662.351 139.216C662.454 139.893 662.577 140.446 662.72 140.877V141H655.615V140.877C655.758 140.446 655.881 139.893 655.984 139.216C656.107 138.539 656.199 137.708 656.26 136.724C656.343 135.719 656.404 134.53 656.445 133.156C656.486 131.782 656.507 130.172 656.507 128.326V120.574ZM687.637 124.358C687.637 121.938 688.089 119.692 688.991 117.621C689.914 115.55 691.165 113.755 692.744 112.238C694.323 110.7 696.189 109.5 698.343 108.639C700.496 107.777 702.803 107.347 705.264 107.347C707.684 107.347 709.96 107.757 712.093 108.577C714.246 109.377 716.113 110.525 717.692 112.022C719.291 113.52 720.552 115.334 721.475 117.467C722.398 119.6 722.86 121.989 722.86 124.635C722.86 126.829 722.47 128.952 721.691 131.002C720.911 133.033 719.773 134.837 718.276 136.417C716.779 137.975 714.933 139.226 712.739 140.169C710.545 141.092 708.032 141.554 705.202 141.554C702.803 141.554 700.537 141.154 698.404 140.354C696.271 139.554 694.405 138.416 692.805 136.939C691.206 135.442 689.945 133.638 689.022 131.525C688.099 129.393 687.637 127.003 687.637 124.358ZM705.971 139.37C707.53 139.37 708.966 139.062 710.278 138.447C711.591 137.832 712.719 136.95 713.662 135.801C714.626 134.653 715.364 133.258 715.877 131.618C716.41 129.957 716.677 128.09 716.677 126.019C716.677 123.661 716.42 121.477 715.907 119.467C715.415 117.457 714.656 115.724 713.631 114.268C712.626 112.792 711.365 111.643 709.847 110.823C708.33 109.982 706.556 109.562 704.526 109.562C702.967 109.562 701.531 109.859 700.219 110.454C698.906 111.048 697.768 111.91 696.804 113.038C695.861 114.166 695.123 115.55 694.59 117.19C694.056 118.831 693.79 120.697 693.79 122.789C693.79 125.127 694.046 127.311 694.559 129.341C695.092 131.351 695.861 133.104 696.866 134.602C697.891 136.078 699.163 137.247 700.68 138.108C702.198 138.949 703.962 139.37 705.971 139.37ZM735.38 138.601C737.287 138.601 739.04 138.529 740.64 138.385C742.26 138.221 743.675 138.047 744.885 137.862C746.3 137.637 747.582 137.38 748.73 137.093L748.023 141.185C747.736 141.164 747.243 141.133 746.546 141.092C745.869 141.072 745.152 141.051 744.393 141.031C743.634 141.031 742.927 141.021 742.27 141C741.614 141 741.163 141 740.917 141H729.135V140.877C729.279 140.446 729.402 139.893 729.504 139.216C729.627 138.539 729.719 137.708 729.781 136.724C729.863 135.719 729.925 134.53 729.966 133.156C730.007 131.782 730.027 130.172 730.027 128.326V120.574C730.027 118.729 730.007 117.129 729.966 115.775C729.925 114.401 729.863 113.222 729.781 112.238C729.719 111.233 729.627 110.392 729.504 109.715C729.402 109.039 729.279 108.485 729.135 108.054V107.931H736.241V108.054C736.097 108.485 735.974 109.039 735.872 109.715C735.769 110.392 735.677 111.233 735.595 112.238C735.533 113.222 735.482 114.401 735.441 115.775C735.4 117.129 735.38 118.729 735.38 120.574V138.601Z" fill="#EBEBEB"/>
</svg>
